<svg width="533" height="533" viewBox="0 0 533 533" fill="none" xmlns="http://www.w3.org/2000/svg">
<path d="M36.8871 183.665C34.2225 189.19 31.7847 194.744 29.5736 200.269C27.3909 205.794 25.435 211.291 23.7058 216.731C21.9767 222.172 20.5026 227.584 19.2554 232.939C18.0081 238.294 16.9876 243.593 16.2222 248.806C15.4569 254.02 14.8899 259.177 14.6065 264.475C14.2947 269.774 14.2947 274.931 14.5214 279.946C14.7482 284.961 15.2301 289.835 15.9388 294.567C16.6474 299.298 17.5829 303.917 18.7451 308.365C19.9073 312.814 21.268 317.149 22.7987 321.314C24.3578 325.48 26.0869 329.531 28.0429 333.413C29.9705 337.295 32.0681 341.064 34.3642 344.662C36.632 348.261 39.0981 351.746 41.706 355.061C44.314 358.376 47.0919 361.55 50.04 364.581C52.9597 367.613 56.0779 370.503 59.3094 373.223C62.5693 375.944 65.9709 378.522 69.5143 380.959C73.0576 383.396 76.7711 385.634 80.6546 387.759C84.5098 389.856 88.8185 391.868 92.5603 393.511C96.3304 395.154 100.186 396.684 104.182 398.186C108.151 399.688 112.233 401.133 116.372 402.55C120.51 403.966 124.706 405.412 128.958 406.885C133.21 408.358 137.49 409.832 141.77 411.418C146.051 413.005 150.331 414.677 154.611 416.49C158.863 418.304 163.087 420.259 167.254 422.412C171.393 424.566 175.475 426.917 179.443 429.553C183.384 432.188 187.21 435.078 190.867 438.336C194.524 441.595 197.954 445.193 201.185 449.273C204.388 453.325 207.365 457.944 209.944 462.846C212.524 467.748 214.82 472.933 217.116 478.203C219.412 483.473 221.708 488.857 224.401 494.099C227.094 499.341 230.241 504.526 234.039 509.286M47.829 168.534C45.5612 174.059 43.4919 179.585 41.621 185.11C39.7501 190.635 38.0777 196.132 36.632 201.601C35.1579 207.069 33.9107 212.51 32.8618 217.893C31.813 223.277 30.9343 228.632 30.2823 233.902C29.6303 239.172 29.1768 244.244 28.95 249.6C28.6949 254.955 28.7232 260.168 28.95 265.269C29.1768 270.369 29.6586 275.327 30.3106 280.173C30.9909 285.018 31.8697 289.721 32.9185 294.311C33.9674 298.902 35.243 303.35 36.6603 307.657C38.0777 311.992 39.6934 316.158 41.4793 320.238C43.2368 324.29 45.1927 328.228 47.262 332.025C49.3597 335.822 51.5991 339.505 53.9802 343.047C56.3614 346.589 58.9126 349.989 61.5772 353.276C64.2418 356.563 67.0765 359.708 70.0245 362.711C72.9726 365.715 76.0907 368.605 79.3223 371.325C82.5538 374.073 85.9271 376.652 89.4421 379.117C92.9571 381.582 96.5855 383.877 100.384 386.031C104.182 388.184 107.839 390.082 111.496 391.896C115.124 393.709 118.866 395.438 122.693 397.138C126.491 398.838 130.403 400.51 134.315 402.21C138.255 403.881 142.224 405.582 146.249 407.338C150.246 409.067 154.3 410.88 158.325 412.75C162.35 414.649 166.375 416.604 170.344 418.729C174.313 420.854 178.253 423.121 182.108 425.586C185.963 428.051 189.733 430.714 193.39 433.661C197.047 436.58 200.562 439.781 203.935 443.323C207.28 446.865 210.455 450.719 213.403 455.025C216.323 459.332 219.015 464.121 221.397 469.136C223.749 474.151 225.875 479.421 228.001 484.777C230.127 490.132 232.282 495.544 234.805 500.871C237.328 506.198 240.276 511.44 243.791 516.285M59.7063 154.197C57.807 159.694 56.0779 165.191 54.5188 170.659C52.9597 176.156 51.5707 181.625 50.3802 187.093C49.1613 192.534 48.1124 197.974 47.2337 203.357C46.3549 208.741 45.6463 214.096 45.1077 219.395C44.5691 224.665 44.2573 229.68 44.0588 235.036C43.8604 240.419 43.9171 245.661 44.1722 250.79C44.4273 255.918 44.8809 260.962 45.5045 265.864C46.1565 270.765 46.9786 275.554 47.9707 280.229C48.9628 284.904 50.1534 289.438 51.4857 293.858C52.818 298.278 54.292 302.585 55.9362 306.779C57.5803 310.972 59.3661 315.052 61.2937 318.991C63.2213 322.958 65.2906 326.783 67.4733 330.495C69.656 334.207 72.0088 337.805 74.4466 341.29C76.9128 344.775 79.4924 348.119 82.1853 351.377C84.9066 354.608 87.713 357.724 90.6894 360.728C93.6374 363.731 96.7272 366.593 99.9304 369.342C103.134 372.09 106.45 374.697 109.88 377.162C113.31 379.655 116.882 381.979 120.567 384.189C124.252 386.399 127.342 388.269 130.828 390.224C134.343 392.179 137.915 394.106 141.572 396.004C145.2 397.903 148.914 399.801 152.656 401.7C156.397 403.598 160.167 405.553 163.938 407.537C167.708 409.52 171.506 411.588 175.276 413.742C179.046 415.895 182.817 418.134 186.53 420.542C190.243 422.951 193.9 425.472 197.472 428.221C201.044 430.969 204.559 433.888 207.932 437.09C211.305 440.291 214.565 443.72 217.626 447.488C220.716 451.257 223.608 455.337 226.301 459.814C228.994 464.291 231.403 469.249 233.557 474.35C235.712 479.45 237.668 484.777 239.652 490.16C241.636 495.544 243.649 501.012 246.002 506.339C248.354 511.695 251.132 516.965 254.364 521.923M72.349 140.851C70.7899 146.263 69.3726 151.703 68.0969 157.144C66.8213 162.584 65.7158 168.024 64.752 173.436C63.7882 178.848 62.9378 184.232 62.2575 189.615C61.5488 194.97 61.0102 200.326 60.6134 205.596C60.2165 210.866 59.9614 216.08 59.8764 221.208C59.7913 226.365 59.848 231.749 60.1315 236.906C60.415 242.063 60.8685 247.106 61.4921 252.036C62.1158 256.967 62.9095 261.812 63.8733 266.515C64.8371 271.247 65.9426 275.837 67.1898 280.343C68.4371 284.848 69.8261 289.24 71.3568 293.518C72.8876 297.797 74.5317 301.962 76.3175 306.042C78.1034 310.094 80.0026 314.061 82.0436 317.914C84.0846 321.768 86.2106 325.508 88.4783 329.135C90.7461 332.762 93.1272 336.303 95.5934 339.704C98.0879 343.104 100.696 346.419 103.389 349.621C106.11 352.823 108.916 355.883 111.836 358.858C114.756 361.833 117.789 364.695 120.935 367.415C124.082 370.163 127.342 372.77 130.687 375.263C134.06 377.757 137.433 380.08 140.665 382.262C143.896 384.444 147.185 386.569 150.558 388.694C153.931 390.791 157.333 392.888 160.819 394.956C164.278 397.024 167.793 399.121 171.336 401.218C174.879 403.343 178.423 405.468 181.966 407.678C185.51 409.888 189.081 412.155 192.596 414.535C196.14 416.915 199.626 419.409 203.085 422.044C206.543 424.679 209.944 427.456 213.261 430.403C216.578 433.378 219.809 436.523 222.927 439.923C226.045 443.323 229.022 446.95 231.857 450.917C234.691 454.855 237.356 459.106 239.794 463.724C242.232 468.343 244.443 473.358 246.399 478.515C248.383 483.672 250.169 488.999 252.011 494.41C253.854 499.794 255.753 505.263 257.936 510.618C260.118 515.973 262.698 521.272 265.703 526.287M85.6153 128.639C84.3397 134.136 83.2058 139.661 82.1853 145.187C81.1648 150.712 80.2861 156.237 79.5207 161.734C78.7553 167.231 78.1317 172.728 77.6215 178.196C77.1112 183.665 76.7144 189.134 76.4593 194.517C76.2041 199.901 76.0908 205.228 76.1191 210.469C76.1758 215.711 76.3459 221.208 76.7144 226.479C77.0829 231.749 77.6215 236.877 78.3302 241.949C79.0388 246.993 79.8892 251.923 80.9097 256.768C81.9302 261.613 83.0641 266.317 84.368 270.935C85.6436 275.554 87.0893 280.059 88.6201 284.479C90.1791 288.9 91.8516 293.178 93.6374 297.4C95.4233 301.594 97.3509 305.702 99.3635 309.669C101.376 313.664 103.53 317.546 105.77 321.314C108.009 325.083 110.362 328.766 112.8 332.337C115.266 335.907 117.817 339.364 120.454 342.735C123.118 346.079 125.868 349.337 128.731 352.482C131.594 355.628 134.57 358.659 137.632 361.578C140.693 364.496 143.868 367.301 147.128 369.993C150.388 372.685 153.676 375.207 156.823 377.615C159.969 379.995 163.172 382.347 166.432 384.671C169.692 386.994 173.009 389.289 176.382 391.556C179.755 393.851 183.157 396.146 186.558 398.47C189.988 400.793 193.418 403.173 196.848 405.582C200.278 408.018 203.737 410.512 207.138 413.09C210.54 415.669 213.941 418.389 217.258 421.222C220.603 424.056 223.863 427.031 227.066 430.204C230.269 433.378 233.387 436.721 236.392 440.32C239.397 443.918 242.26 447.743 244.981 451.852C247.702 455.96 250.254 460.381 252.606 465.169C254.959 469.958 257.057 475.115 258.956 480.413C260.855 485.712 262.556 491.18 264.314 496.734C266.071 502.259 267.857 507.869 269.955 513.366C272.024 518.863 274.49 524.332 277.353 529.489M99.3352 117.674C98.3714 123.057 97.521 128.469 96.7839 133.881C96.0469 139.293 95.3949 144.705 94.8564 150.145C94.3178 155.557 93.8926 160.969 93.5241 166.352C93.1839 171.736 92.9571 177.148 92.8154 182.447C92.6737 187.745 92.6453 193.015 92.787 198.229C92.9004 203.414 93.1272 208.769 93.5524 213.983C93.9493 219.196 94.5162 224.325 95.2249 229.34C95.9335 234.356 96.7556 239.286 97.7477 244.103C98.7115 248.92 99.817 253.651 101.036 258.298C102.255 262.917 103.616 267.45 105.061 271.899C106.507 276.347 108.094 280.683 109.767 284.904C111.439 289.155 113.225 293.291 115.096 297.343C116.967 301.395 118.951 305.362 121.02 309.216C123.09 313.069 125.273 316.838 127.54 320.521C129.808 324.205 132.161 327.775 134.599 331.232C137.036 334.717 139.588 338.088 142.224 341.375C144.86 344.662 147.581 347.836 150.388 350.952C153.194 354.041 156.086 357.044 159.09 359.906C162.067 362.796 165.156 365.573 168.331 368.265C171.506 370.957 174.284 373.365 177.289 375.83C180.294 378.295 183.355 380.732 186.473 383.14C189.591 385.549 192.738 387.957 195.913 390.366C199.088 392.774 202.291 395.211 205.522 397.676C208.754 400.141 211.957 402.663 215.189 405.241C218.42 407.82 221.623 410.483 224.798 413.232C227.973 415.98 231.12 418.842 234.209 421.846C237.299 424.849 240.332 427.994 243.28 431.309C246.228 434.624 249.091 438.138 251.841 441.85C254.591 445.562 257.227 449.528 259.722 453.75C262.216 457.972 264.512 462.449 266.666 467.323C268.821 472.196 270.692 477.325 272.393 482.595C274.122 487.865 275.681 493.305 277.325 498.802C278.941 504.299 280.613 509.825 282.541 515.293C284.468 520.762 286.736 526.145 289.372 531.302M113.877 107.841C113.168 113.225 112.573 118.665 112.063 124.106C111.553 129.546 111.127 135.014 110.787 140.455C110.447 145.895 110.192 151.363 110.022 156.775C109.852 162.216 109.767 167.656 109.767 173.039C109.767 178.395 109.88 183.722 110.107 188.963C110.334 194.205 110.674 199.617 111.184 204.888C111.666 210.158 112.318 215.315 113.083 220.415C113.849 225.487 114.756 230.474 115.776 235.347C116.797 240.221 117.959 245.038 119.206 249.713C120.454 254.416 121.843 259.007 123.317 263.512C124.791 268.017 126.378 272.437 128.05 276.772C129.723 281.108 131.509 285.329 133.38 289.466C135.251 293.603 137.207 297.655 139.247 301.594C141.288 305.56 143.443 309.414 145.654 313.182C147.865 316.951 150.189 320.634 152.599 324.233C155.008 327.831 157.474 331.317 160.026 334.717C162.577 338.117 165.242 341.432 167.963 344.634C170.684 347.864 173.519 350.981 176.41 353.984C179.302 357.016 182.306 359.934 185.368 362.768C188.429 365.601 191.122 368.18 194.042 370.815C196.962 373.45 199.91 376.028 202.914 378.607C205.919 381.185 208.952 383.764 212.042 386.342C215.104 388.921 218.193 391.528 221.312 394.163C224.43 396.798 227.52 399.49 230.609 402.238C233.699 404.986 236.789 407.82 239.85 410.738C242.912 413.657 245.917 416.689 248.893 419.834C251.869 422.979 254.761 426.294 257.596 429.751C260.43 433.208 263.151 436.863 265.788 440.716C268.424 444.57 270.947 448.65 273.3 452.985C275.652 457.32 277.863 461.911 279.904 466.898C281.945 471.856 283.703 477.07 285.347 482.453C286.963 487.808 288.465 493.334 289.996 498.887C291.527 504.441 293.086 510.08 294.9 515.605C296.714 521.158 298.84 526.655 301.306 531.926M129.95 99.3695C129.496 104.753 129.128 110.165 128.844 115.605C128.561 121.045 128.334 126.514 128.192 131.954C128.05 137.423 127.965 142.863 127.937 148.332C127.909 153.772 127.994 159.269 128.079 164.681C128.192 170.064 128.419 175.42 128.731 180.69C129.071 185.96 129.496 191.372 130.063 196.67C130.63 201.969 131.339 207.154 132.189 212.283C133.011 217.383 133.975 222.398 135.024 227.329C136.101 232.259 137.263 237.076 138.539 241.836C139.814 246.568 141.203 251.215 142.677 255.776C144.151 260.338 145.739 264.815 147.411 269.179C149.084 273.571 150.841 277.849 152.684 282.043C154.526 286.236 156.454 290.345 158.467 294.397C160.479 298.42 162.577 302.359 164.731 306.212C166.914 310.066 169.153 313.834 171.478 317.489C173.802 321.173 176.212 324.743 178.706 328.256C181.201 331.742 183.752 335.17 186.417 338.485C189.053 341.8 191.774 345.03 194.58 348.176C197.387 351.321 200.25 354.353 203.226 357.299C206.174 360.246 208.782 362.966 211.589 365.743C214.395 368.492 217.23 371.24 220.121 373.932C223.012 376.652 225.932 379.372 228.88 382.092C231.828 384.812 234.776 387.561 237.753 390.338C240.729 393.114 243.706 395.948 246.654 398.838C249.602 401.728 252.55 404.675 255.469 407.735C258.389 410.795 261.252 413.94 264.087 417.227C266.922 420.514 269.671 423.942 272.364 427.512C275.057 431.111 277.665 434.851 280.16 438.818C282.654 442.785 285.035 446.95 287.275 451.399C289.514 455.847 291.583 460.494 293.511 465.537C295.439 470.581 297.083 475.851 298.613 481.263C300.116 486.675 301.505 492.257 302.922 497.867C304.339 503.478 305.785 509.144 307.458 514.755C309.13 520.365 311.114 525.919 313.41 531.274M146.929 92.9092C146.703 98.2361 146.561 103.591 146.476 109.003C146.391 114.415 146.363 119.827 146.391 125.267C146.419 130.708 146.504 136.148 146.618 141.56C146.731 147 146.929 152.497 147.156 157.88C147.383 163.264 147.695 168.591 148.12 173.889C148.545 179.16 149.055 184.572 149.707 189.842C150.359 195.14 151.125 200.326 152.004 205.426C152.882 210.526 153.874 215.541 154.98 220.5C156.085 225.43 157.276 230.275 158.552 235.036C159.856 239.796 161.216 244.471 162.719 249.033C164.193 253.623 165.752 258.1 167.396 262.52C169.04 266.94 170.769 271.247 172.583 275.497C174.398 279.748 176.268 283.884 178.253 287.965C180.209 292.045 182.25 296.012 184.376 299.922C186.502 303.832 188.684 307.629 190.924 311.369C193.192 315.109 195.516 318.764 197.925 322.306C200.335 325.876 202.801 329.361 205.352 332.762C207.903 336.162 210.511 339.477 213.204 342.707C215.897 345.937 218.647 349.082 221.482 352.114C224.316 355.174 226.811 357.979 229.475 360.87C232.168 363.731 234.89 366.565 237.639 369.398C240.389 372.232 243.195 375.037 246.002 377.899C248.808 380.732 251.643 383.594 254.449 386.484C257.255 389.374 260.09 392.321 262.925 395.324C265.731 398.328 268.537 401.388 271.287 404.561C274.037 407.735 276.786 410.993 279.451 414.365C282.115 417.765 284.752 421.279 287.275 424.934C289.826 428.618 292.264 432.443 294.616 436.495C296.969 440.546 299.209 444.797 301.306 449.273C303.404 453.779 305.332 458.482 307.117 463.554C308.903 468.626 310.434 473.925 311.823 479.365C313.212 484.805 314.488 490.387 315.763 496.026C317.039 501.664 318.371 507.359 319.902 512.97C321.433 518.608 323.247 524.19 325.373 529.574M164.59 88.8006C164.59 94.0142 164.675 99.3128 164.788 104.64C164.901 109.967 165.043 115.322 165.242 120.677C165.44 126.061 165.667 131.444 165.922 136.799C166.177 142.183 166.489 147.652 166.801 152.979C167.112 158.334 167.538 163.604 168.048 168.846C168.558 174.088 169.125 179.443 169.834 184.685C170.542 189.927 171.364 195.084 172.272 200.156C173.179 205.228 174.199 210.214 175.333 215.116C176.439 220.018 177.657 224.835 178.961 229.595C180.265 234.327 181.626 238.974 183.1 243.564C184.574 248.126 186.105 252.631 187.721 257.023C189.336 261.415 191.037 265.75 192.795 270C194.552 274.251 196.395 278.416 198.322 282.496C200.222 286.576 202.206 290.571 204.247 294.51C206.288 298.42 208.414 302.274 210.596 306.042C212.779 309.811 215.019 313.494 217.315 317.093C219.611 320.691 221.992 324.233 224.43 327.661C226.868 331.118 229.362 334.462 231.942 337.748C234.521 341.035 237.157 344.237 239.85 347.354C242.543 350.471 244.924 353.389 247.476 356.308C250.027 359.254 252.635 362.173 255.243 365.063C257.879 367.981 260.515 370.872 263.18 373.79C265.844 376.709 268.509 379.655 271.202 382.63C273.867 385.606 276.56 388.637 279.224 391.698C281.889 394.786 284.525 397.931 287.133 401.161C289.741 404.391 292.32 407.735 294.815 411.192C297.338 414.649 299.776 418.219 302.157 421.959C304.538 425.699 306.834 429.581 309.017 433.661C311.199 437.741 313.297 442.02 315.253 446.553C317.209 451.059 318.995 455.79 320.639 460.862C322.283 465.934 323.672 471.233 324.948 476.645C326.223 482.085 327.357 487.639 328.491 493.249C329.653 498.859 330.815 504.526 332.204 510.136C333.593 515.746 335.209 521.328 337.137 526.712M182.732 87.3556C182.958 92.4558 183.242 97.6127 183.525 102.798C183.837 108.012 184.149 113.253 184.517 118.524C184.858 123.794 185.226 129.092 185.623 134.363C185.991 139.661 186.445 145.045 186.842 150.315C187.267 155.585 187.749 160.799 188.316 165.956C188.883 171.113 189.535 176.383 190.3 181.568C191.065 186.725 191.916 191.825 192.88 196.84C193.843 201.856 194.864 206.786 195.998 211.631C197.132 216.476 198.351 221.237 199.626 225.94C200.93 230.615 202.291 235.234 203.737 239.767C205.182 244.301 206.685 248.749 208.272 253.113C209.859 257.477 211.504 261.783 213.233 265.977C214.962 270.199 216.748 274.336 218.59 278.387C220.433 282.439 222.36 286.434 224.316 290.345C226.301 294.255 228.313 298.08 230.411 301.849C232.509 305.617 234.663 309.301 236.874 312.899C239.085 316.498 241.353 320.039 243.677 323.496C246.002 326.953 248.383 330.325 250.849 333.64C253.287 336.955 255.81 340.185 258.389 343.33C260.969 346.476 263.208 349.422 265.646 352.426C268.055 355.401 270.522 358.376 273.016 361.323C275.511 364.27 278.005 367.245 280.528 370.22C283.051 373.195 285.574 376.17 288.097 379.202C290.62 382.234 293.142 385.294 295.637 388.411C298.131 391.528 300.626 394.729 303.064 398.016C305.502 401.303 307.911 404.675 310.264 408.16C312.617 411.645 314.913 415.244 317.124 419.012C319.335 422.781 321.461 426.662 323.502 430.771C325.543 434.851 327.47 439.13 329.256 443.635C331.042 448.14 332.686 452.844 334.189 457.887C335.691 462.931 336.938 468.173 338.072 473.528C339.206 478.911 340.198 484.408 341.219 489.962C342.239 495.516 343.26 501.126 344.479 506.679C345.697 512.233 347.143 517.758 348.872 523.085M200.788 89.3107C201.242 94.3542 201.724 99.5111 202.234 104.696C202.744 109.882 203.255 115.123 203.793 120.422C204.332 125.721 204.842 130.991 205.352 136.318C205.863 141.645 206.401 147.057 206.94 152.327C207.478 157.625 208.102 162.839 208.782 168.024C209.463 173.209 210.228 178.565 211.107 183.722C211.985 188.907 212.949 194.007 213.998 198.994C215.047 204.009 216.181 208.939 217.4 213.785C218.619 218.63 219.894 223.418 221.283 228.094C222.644 232.797 224.09 237.387 225.592 241.921C227.094 246.454 228.682 250.903 230.326 255.266C231.97 259.63 233.671 263.937 235.428 268.159C237.186 272.381 239.028 276.517 240.899 280.598C242.77 284.678 244.726 288.645 246.739 292.583C248.751 296.493 250.792 300.347 252.918 304.115C255.044 307.884 257.199 311.567 259.438 315.194C261.677 318.821 263.945 322.363 266.298 325.82C268.651 329.276 271.032 332.677 273.498 335.992C275.964 339.307 278.402 342.509 280.727 345.597C283.051 348.714 285.432 351.774 287.813 354.863C290.194 357.923 292.632 360.983 295.042 364.043C297.479 367.103 299.917 370.192 302.355 373.28C304.793 376.397 307.231 379.514 309.64 382.715C312.05 385.917 314.459 389.176 316.84 392.491C319.193 395.834 321.546 399.235 323.814 402.776C326.081 406.318 328.321 409.945 330.447 413.742C332.601 417.539 334.671 421.477 336.626 425.586C338.582 429.694 340.453 434.001 342.154 438.506C343.883 443.012 345.471 447.772 346.888 452.787C348.305 457.802 349.524 463.101 350.545 468.513C351.594 473.925 352.472 479.478 353.379 485.088C354.287 490.699 355.165 496.366 356.242 501.976C357.32 507.586 358.624 513.196 360.183 518.608M218.023 93.7876C218.732 98.7744 219.469 103.846 220.178 108.975C220.915 114.132 221.623 119.317 222.332 124.587C223.041 129.829 223.721 135.128 224.401 140.426C225.053 145.725 225.734 151.165 226.414 156.435C227.094 161.706 227.831 166.806 228.653 172.104C229.447 177.403 230.354 182.645 231.318 187.802C232.31 192.959 233.359 198.031 234.521 203.017C235.683 208.004 236.902 212.906 238.206 217.751C239.51 222.568 240.871 227.329 242.317 232.004C243.762 236.679 245.265 241.269 246.852 245.774C248.411 250.28 250.055 254.7 251.756 259.063C253.457 263.427 255.214 267.677 257 271.899C258.814 276.092 260.685 280.229 262.585 284.281C264.512 288.333 266.468 292.3 268.509 296.21C270.55 300.12 272.619 303.917 274.745 307.685C276.871 311.426 279.054 315.109 281.293 318.708C283.533 322.306 285.829 325.82 288.182 329.276C290.535 332.733 292.944 336.105 295.382 339.392C297.848 342.679 299.889 345.767 302.213 348.941C304.51 352.086 306.834 355.231 309.187 358.376C311.54 361.521 313.892 364.638 316.245 367.811C318.598 370.985 320.951 374.158 323.303 377.417C325.656 380.647 327.981 383.962 330.248 387.306C332.545 390.677 334.784 394.106 336.995 397.676C339.206 401.218 341.36 404.873 343.43 408.67C345.499 412.467 347.512 416.405 349.383 420.514C351.253 424.622 353.068 428.901 354.712 433.406C356.356 437.911 357.887 442.615 359.219 447.602C360.551 452.589 361.713 457.887 362.677 463.299C363.641 468.711 364.435 474.265 365.2 479.903C365.994 485.542 366.759 491.209 367.666 496.847C368.602 502.486 369.736 508.124 371.125 513.565M235.06 99.2561C236.024 104.13 237.016 109.117 237.951 114.188C238.915 119.26 239.85 124.417 240.729 129.631C241.636 134.844 242.487 140.086 243.309 145.357C244.131 150.627 244.896 156.039 245.718 161.281C246.54 166.522 247.391 171.651 248.326 176.921C249.262 182.192 250.282 187.377 251.359 192.477C252.465 197.577 253.627 202.621 254.874 207.551C256.121 212.481 257.454 217.355 258.843 222.143C260.232 226.932 261.677 231.635 263.208 236.254C264.711 240.872 266.298 245.434 267.914 249.911C269.53 254.388 271.23 258.78 272.959 263.087C274.689 267.394 276.503 271.644 278.345 275.809C280.188 279.974 282.087 284.054 284.043 288.078C285.999 292.101 287.983 296.04 290.024 299.893C292.065 303.747 294.163 307.544 296.317 311.256C298.472 314.967 300.654 318.623 302.894 322.193C305.133 325.763 307.429 329.248 309.782 332.677C312.135 336.105 314.374 339.364 316.585 342.594C318.796 345.824 321.036 349.026 323.303 352.227C325.571 355.429 327.839 358.631 330.107 361.833C332.374 365.035 334.642 368.293 336.91 371.552C339.178 374.838 341.417 378.154 343.628 381.554C345.839 384.954 348.022 388.411 350.148 391.953C352.274 395.523 354.343 399.178 356.356 402.946C358.34 406.743 360.268 410.653 362.082 414.762C363.896 418.842 365.625 423.121 367.184 427.597C368.772 432.074 370.217 436.75 371.465 441.68C372.74 446.61 373.818 451.88 374.696 457.264C375.575 462.647 376.255 468.201 376.907 473.84C377.559 479.45 378.183 485.145 378.977 490.812C379.742 496.479 380.734 502.089 381.953 507.558M252.521 104.215C253.769 108.975 254.988 113.877 256.178 118.864C257.369 123.851 258.503 128.951 259.608 134.108C260.714 139.265 261.677 144.421 262.67 149.748C263.662 155.075 264.512 160.374 265.448 165.559C266.383 170.773 267.375 175.93 268.424 181.143C269.473 186.357 270.607 191.514 271.797 196.557C272.988 201.629 274.263 206.616 275.596 211.518C276.928 216.42 278.345 221.237 279.791 225.997C281.237 230.757 282.767 235.404 284.327 239.994C285.886 244.584 287.53 249.089 289.202 253.538C290.875 257.987 292.604 262.322 294.361 266.6C296.119 270.879 297.961 275.101 299.804 279.209C301.675 283.346 303.574 287.398 305.53 291.393C307.486 295.388 309.47 299.298 311.54 303.124C313.58 306.949 315.678 310.717 317.804 314.429C319.93 318.113 322.113 321.739 324.352 325.281C326.592 328.823 329.001 332.337 331.099 335.652C333.197 338.967 335.351 342.282 337.505 345.541C339.66 348.827 341.842 352.086 343.997 355.373C346.179 358.659 348.334 361.946 350.516 365.261C352.671 368.577 354.825 371.948 356.951 375.348C359.077 378.777 361.146 382.262 363.187 385.832C365.228 389.402 367.213 393.086 369.112 396.854C371.011 400.651 372.854 404.561 374.583 408.642C376.312 412.722 377.928 416.972 379.43 421.392C380.933 425.841 382.265 430.488 383.455 435.39C384.646 440.291 385.638 445.505 386.432 450.86C387.197 456.244 387.764 461.769 388.303 467.408C388.813 473.018 389.295 478.713 389.89 484.38C390.485 490.047 391.279 495.686 392.3 501.154M270.238 106.481C271.712 110.987 273.158 115.662 274.547 120.45C275.936 125.239 277.24 130.112 278.487 135.071C279.734 140.03 280.84 144.988 281.945 150.145C283.051 155.302 283.986 160.402 285.007 165.446C286.027 170.489 287.076 175.476 288.182 180.548C289.287 185.592 290.449 190.579 291.697 195.48C292.916 200.382 294.22 205.228 295.552 209.988C296.884 214.748 298.273 219.452 299.719 224.042C301.165 228.66 302.639 233.194 304.169 237.671C305.7 242.148 307.287 246.539 308.903 250.875C310.519 255.21 312.163 259.46 313.864 263.653C315.565 267.847 317.294 271.956 319.08 276.007C320.866 280.059 322.651 284.026 324.522 287.936C326.365 291.846 328.264 295.7 330.163 299.468C332.091 303.237 334.047 306.949 336.031 310.576C338.015 314.202 340.056 317.773 342.126 321.286C344.195 324.8 346.434 328.256 348.39 331.572C350.346 334.887 352.331 338.145 354.315 341.404C356.299 344.662 358.312 347.921 360.296 351.179C362.28 354.438 364.293 357.724 366.249 361.011C368.233 364.326 370.189 367.67 372.088 371.07C374.016 374.47 375.887 377.927 377.729 381.497C379.572 385.039 381.329 388.694 383.059 392.434C384.759 396.174 386.403 400.056 387.906 404.08C389.437 408.103 390.854 412.268 392.158 416.66C393.462 421.024 394.596 425.586 395.588 430.374C396.58 435.163 397.402 440.235 397.997 445.477C398.593 450.719 398.989 456.102 399.358 461.571C399.698 467.039 400.01 472.565 400.407 478.09C400.804 483.587 401.371 489.084 402.164 494.41M287.671 104.158C289.429 108.635 291.158 113.282 292.774 118.07C294.39 122.859 295.949 127.761 297.366 132.748C298.783 137.735 300.087 142.778 301.335 147.963C302.582 153.177 303.631 158.305 304.765 163.377C305.899 168.449 307.061 173.549 308.28 178.621C309.499 183.693 310.774 188.708 312.106 193.639C313.439 198.569 314.799 203.442 316.217 208.231C317.634 213.02 319.08 217.751 320.582 222.37C322.085 227.017 323.615 231.579 325.174 236.084C326.733 240.589 328.349 245.009 329.993 249.373C331.637 253.736 333.31 258.015 335.011 262.237C336.712 266.459 338.441 270.624 340.198 274.704C341.956 278.784 343.77 282.808 345.584 286.775C347.398 290.713 349.269 294.623 351.168 298.42C353.068 302.245 354.967 305.985 356.923 309.669C358.879 313.352 360.863 316.979 362.876 320.521C364.888 324.063 366.759 327.491 368.63 330.891C370.501 334.292 372.4 337.692 374.271 341.092C376.142 344.492 378.041 347.892 379.912 351.321C381.783 354.749 383.625 358.206 385.44 361.72C387.254 365.233 389.04 368.803 390.741 372.43C392.47 376.085 394.142 379.797 395.73 383.65C397.317 387.476 398.848 391.443 400.265 395.523C401.682 399.603 402.986 403.853 404.177 408.273C405.368 412.693 406.416 417.312 407.267 422.129C408.146 426.974 408.854 432.074 409.336 437.373C409.818 442.672 410.073 448.14 410.272 453.665C410.47 459.219 410.583 464.829 410.782 470.411C410.98 475.993 411.349 481.603 411.887 487.015M302.639 95.8843C304.68 100.248 306.636 104.781 308.506 109.457C310.349 114.132 312.106 118.949 313.722 123.851C315.338 128.752 316.784 133.711 318.173 138.868C319.562 144.025 320.724 149.097 321.971 154.112C323.218 159.127 324.466 164.171 325.77 169.186C327.074 174.201 328.406 179.16 329.767 184.062C331.127 188.935 332.545 193.78 333.99 198.512C335.436 203.272 336.882 207.948 338.384 212.566C339.886 217.185 341.389 221.747 342.948 226.223C344.507 230.7 346.066 235.121 347.653 239.484C349.241 243.848 350.857 248.126 352.501 252.348C354.145 256.57 355.817 260.735 357.49 264.844C359.191 268.952 360.891 272.976 362.621 276.971C364.35 280.938 366.107 284.876 367.893 288.73C369.679 292.583 371.465 296.38 373.307 300.12C375.121 303.86 376.992 307.544 378.863 311.171C380.734 314.797 382.463 318.283 384.192 321.768C385.922 325.253 387.651 328.738 389.38 332.223C391.109 335.708 392.838 339.194 394.539 342.707C396.24 346.22 397.912 349.762 399.556 353.361C401.201 356.959 402.788 360.615 404.347 364.326C405.878 368.067 407.38 371.863 408.798 375.773C410.215 379.684 411.547 383.707 412.766 387.844C413.985 391.981 415.119 396.288 416.139 400.736C417.131 405.185 418.01 409.832 418.719 414.677C419.428 419.522 419.995 424.622 420.306 429.893C420.647 435.163 420.76 440.603 420.788 446.1C420.817 451.597 420.788 457.179 420.817 462.761C420.845 468.314 421.015 473.896 421.327 479.308M312.673 81.7737C314.969 85.9389 317.152 90.274 319.25 94.7792C321.319 99.2561 323.303 103.903 325.118 108.607C326.932 113.338 328.548 118.07 330.135 123.057C331.722 128.044 333.026 132.974 334.387 137.848C335.748 142.721 337.108 147.567 338.469 152.44C339.83 157.314 341.247 162.131 342.636 166.891C344.053 171.651 345.471 176.355 346.945 181.001C348.39 185.648 349.864 190.239 351.338 194.772C352.813 199.306 354.315 203.782 355.846 208.174C357.348 212.595 358.879 216.93 360.438 221.237C361.969 225.543 363.528 229.765 365.087 233.959C366.646 238.152 368.233 242.289 369.821 246.369C371.408 250.45 373.024 254.473 374.64 258.44C376.255 262.407 377.899 266.345 379.515 270.199C381.159 274.081 382.803 277.906 384.476 281.674C386.148 285.443 387.821 289.155 389.522 292.838C391.222 296.522 393.037 300.148 394.624 303.69C396.212 307.204 397.799 310.717 399.358 314.231C400.945 317.744 402.504 321.229 404.064 324.743C405.623 328.256 407.153 331.798 408.656 335.34C410.158 338.882 411.632 342.509 413.078 346.136C414.524 349.791 415.913 353.474 417.245 357.271C418.577 361.039 419.853 364.893 421.043 368.86C422.234 372.827 423.368 376.879 424.388 381.044C425.409 385.209 426.344 389.516 427.138 393.993C427.932 398.441 428.64 403.06 429.151 407.877C429.689 412.694 430.058 417.737 430.256 422.894C430.454 428.079 430.454 433.378 430.398 438.733C430.341 444.088 430.199 449.528 430.143 454.94C430.086 460.352 430.114 465.764 430.256 471.063M318.74 65.0279C321.404 69.1648 323.955 73.5283 326.365 78.0052C328.774 82.5104 331.042 87.1289 333.14 91.8608C335.237 96.5927 337.108 101.353 338.923 106.368C340.737 111.383 342.267 116.37 343.827 121.272C345.386 126.174 346.945 131.048 348.475 135.978C350.006 140.88 351.565 145.753 353.124 150.542C354.683 155.33 356.242 160.091 357.83 164.766C359.389 169.469 360.976 174.088 362.564 178.678C364.151 183.268 365.71 187.773 367.298 192.25C368.885 196.727 370.473 201.147 372.06 205.511C373.647 209.874 375.235 214.21 376.851 218.46C378.438 222.738 380.054 226.932 381.641 231.097C383.257 235.262 384.844 239.399 386.46 243.451C388.076 247.531 389.692 251.555 391.308 255.521C392.923 259.517 394.567 263.427 396.212 267.337C397.856 271.219 399.5 275.072 401.144 278.898C402.788 282.694 404.545 286.491 406.076 290.175C407.607 293.858 409.138 297.513 410.64 301.169C412.142 304.824 413.673 308.479 415.147 312.162C416.621 315.846 418.095 319.529 419.513 323.269C420.93 327.01 422.347 330.75 423.68 334.575C425.04 338.4 426.344 342.254 427.591 346.192C428.839 350.131 430.029 354.126 431.135 358.234C432.24 362.343 433.289 366.536 434.225 370.843C435.16 375.15 436.01 379.599 436.747 384.189C437.484 388.779 438.08 393.511 438.562 398.413C439.015 403.315 439.355 408.443 439.497 413.685C439.639 418.927 439.61 424.282 439.497 429.723C439.384 435.163 439.214 440.66 439.1 446.128C438.958 451.625 438.902 457.094 438.959 462.477M324.551 47.9988C327.47 51.994 330.277 56.1875 332.941 60.5227C335.606 64.8579 338.1 69.3348 340.425 73.925C342.749 78.5152 344.904 83.2187 346.86 87.979C348.816 92.7392 350.63 97.7544 352.331 102.543C354.031 107.331 355.732 112.063 357.405 116.852C359.077 121.64 360.721 126.401 362.365 131.104C364.01 135.808 365.654 140.455 367.298 145.073C368.942 149.692 370.558 154.225 372.173 158.759C373.789 163.292 375.405 167.741 377.021 172.133C378.636 176.553 380.224 180.916 381.811 185.252C383.399 189.587 384.986 193.865 386.574 198.087C388.161 202.337 389.72 206.503 391.308 210.668C392.867 214.833 394.454 218.941 396.013 222.993C397.572 227.045 399.131 231.097 400.69 235.092C402.249 239.087 403.808 243.054 405.339 246.964C406.898 250.875 408.429 254.756 409.988 258.61C411.547 262.463 413.078 266.26 414.637 270.057C416.196 273.826 417.67 277.537 419.087 281.249C420.505 284.961 421.922 288.645 423.311 292.328C424.7 296.04 426.089 299.723 427.421 303.464C428.754 307.204 430.086 310.944 431.362 314.741C432.637 318.538 433.884 322.363 435.075 326.245C436.266 330.126 437.428 334.065 438.505 338.06C439.582 342.055 440.631 346.135 441.595 350.272C442.559 354.438 443.437 358.659 444.231 363.023C445.025 367.386 445.733 371.835 446.329 376.425C446.924 381.015 447.406 385.747 447.746 390.621C448.086 395.494 448.313 400.566 448.37 405.723C448.426 410.88 448.341 416.15 448.2 421.477C448.058 426.804 447.831 432.188 447.661 437.543C447.463 442.927 447.349 448.31 447.292 453.609M333.225 33.0382C336.371 36.8633 339.376 40.8869 342.239 45.0521C345.102 49.2172 347.795 53.5241 350.29 57.9443C352.813 62.3645 355.137 66.898 357.235 71.4882C359.332 76.0784 361.317 80.952 363.131 85.5989C364.945 90.2457 366.759 94.8076 368.488 99.4828C370.246 104.13 371.975 108.748 373.676 113.338C375.377 117.929 377.077 122.462 378.75 126.939C380.422 131.444 382.066 135.893 383.711 140.313C385.355 144.733 386.97 149.097 388.586 153.432C390.202 157.767 391.789 162.046 393.348 166.296C394.908 170.546 396.467 174.768 398.026 178.933C399.556 183.098 401.087 187.263 402.618 191.344C404.149 195.452 405.651 199.532 407.125 203.556C408.627 207.579 410.101 211.603 411.575 215.57C413.05 219.537 414.524 223.475 415.969 227.385C417.415 231.295 418.861 235.177 420.306 239.031C421.752 242.884 423.169 246.709 424.587 250.506C426.004 254.303 427.421 258.072 428.839 261.812C430.256 265.552 431.447 269.235 432.722 272.919C433.998 276.631 435.273 280.343 436.492 284.054C437.74 287.766 438.93 291.506 440.121 295.275C441.311 299.043 442.445 302.812 443.551 306.637C444.656 310.462 445.733 314.316 446.754 318.226C447.774 322.136 448.738 326.103 449.645 330.126C450.552 334.15 451.403 338.258 452.197 342.424C452.99 346.589 453.699 350.867 454.323 355.203C454.946 359.538 455.485 364.015 455.91 368.577C456.335 373.138 456.675 377.842 456.902 382.659C457.101 387.476 457.214 392.463 457.157 397.506C457.101 402.55 456.93 407.707 456.704 412.892C456.477 418.077 456.165 423.319 455.91 428.561C455.626 433.803 455.4 439.045 455.201 444.23M345.159 20.6276C348.56 24.3678 351.82 28.3346 354.882 32.4148C357.972 36.5233 360.863 40.7735 363.556 45.1371C366.249 49.5006 368.743 53.9774 371.04 58.5393C373.307 63.1012 375.405 67.9464 377.361 72.5649C379.288 77.1835 381.188 81.7453 383.059 86.3639C384.901 90.9824 386.715 95.5726 388.501 100.134C390.287 104.696 392.044 109.202 393.745 113.678C395.474 118.155 397.147 122.604 398.819 126.996C400.492 131.388 402.136 135.779 403.723 140.115C405.339 144.45 406.927 148.757 408.486 153.007C410.045 157.257 411.604 161.507 413.106 165.701C414.637 169.894 416.111 174.059 417.613 178.196C419.087 182.333 420.561 186.413 421.979 190.494C423.424 194.574 424.842 198.597 426.231 202.621C427.62 206.644 429.009 210.639 430.398 214.578C431.758 218.545 433.119 222.483 434.451 226.394C435.784 230.304 437.116 234.214 438.42 238.067C439.724 241.949 441.028 245.803 442.303 249.628C443.579 253.453 444.685 257.222 445.847 261.018C447.009 264.815 448.143 268.64 449.248 272.437C450.354 276.262 451.431 280.088 452.48 283.969C453.529 287.823 454.521 291.733 455.485 295.643C456.449 299.582 457.356 303.52 458.234 307.544C459.113 311.567 459.935 315.619 460.672 319.728C461.438 323.836 462.118 328.03 462.77 332.28C463.393 336.53 463.96 340.865 464.442 345.286C464.924 349.706 465.293 354.211 465.605 358.829C465.888 363.448 466.086 368.18 466.171 373.025C466.257 377.87 466.2 382.857 466.03 387.929C465.86 393.001 465.576 398.129 465.208 403.315C464.839 408.5 464.442 413.742 464.017 418.984C463.592 424.226 463.195 429.496 462.798 434.681M359.616 10.9655C363.244 14.5923 366.702 18.4458 369.962 22.441C373.222 26.4362 376.312 30.6014 379.175 34.8799C382.038 39.1584 384.674 43.5786 387.055 48.0555C389.437 52.5607 391.648 57.3209 393.66 61.8828C395.701 66.4446 397.657 70.9499 399.556 75.5118C401.456 80.0736 403.327 84.6071 405.141 89.1123C406.955 93.6175 408.741 98.0661 410.47 102.515C412.199 106.935 413.9 111.355 415.572 115.719C417.245 120.082 418.861 124.417 420.448 128.724C422.035 133.031 423.595 137.309 425.125 141.531C426.656 145.782 428.158 149.975 429.604 154.169C431.078 158.362 432.495 162.499 433.913 166.636C435.33 170.773 436.691 174.853 438.051 178.933C439.412 183.013 440.744 187.065 442.048 191.089C443.352 195.112 444.628 199.136 445.904 203.102C447.151 207.098 448.398 211.064 449.617 215.003C450.836 218.941 452.026 222.88 453.189 226.819C454.351 230.729 455.513 234.639 456.647 238.521C457.781 242.403 458.745 246.256 459.765 250.11C460.786 253.991 461.749 257.845 462.685 261.755C463.62 265.637 464.527 269.547 465.406 273.486C466.285 277.424 467.107 281.391 467.901 285.386C468.694 289.381 469.431 293.405 470.112 297.485C470.792 301.565 471.444 305.674 472.011 309.867C472.578 314.061 473.116 318.283 473.542 322.589C473.995 326.896 474.364 331.26 474.647 335.737C474.931 340.185 475.157 344.719 475.271 349.366C475.384 354.012 475.413 358.716 475.328 363.561C475.243 368.406 475.044 373.365 474.704 378.38C474.364 383.396 473.939 388.496 473.428 393.653C472.918 398.81 472.323 403.995 471.727 409.208C471.132 414.422 470.509 419.635 469.913 424.821M375.83 4.4202C379.657 7.87703 383.285 11.5889 386.715 15.4424C390.145 19.2959 393.377 23.3194 396.353 27.4846C399.33 31.6498 402.079 35.9283 404.574 40.3201C407.068 44.712 409.336 49.3873 411.434 53.8641C413.531 58.3127 415.544 62.7328 417.5 67.2097C419.456 71.6582 421.355 76.1068 423.198 80.4986C425.04 84.8905 426.826 89.2824 428.555 93.6176C430.284 97.9528 431.985 102.288 433.629 106.566C435.273 110.845 436.861 115.124 438.42 119.374C439.979 123.624 441.481 127.817 442.955 132.011C444.429 136.204 445.847 140.37 447.236 144.478C448.625 148.615 449.985 152.724 451.318 156.804C452.65 160.884 453.926 164.964 455.173 169.016C456.42 173.068 457.639 177.091 458.83 181.115C460.02 185.138 461.182 189.134 462.288 193.1C463.422 197.096 464.499 201.062 465.576 205.001C466.653 208.968 467.674 212.906 468.694 216.816C469.715 220.727 470.707 224.665 471.642 228.575C472.606 232.485 473.428 236.367 474.25 240.277C475.101 244.188 475.894 248.098 476.66 252.036C477.425 255.975 478.162 259.913 478.842 263.88C479.523 267.847 480.175 271.87 480.77 275.894C481.365 279.918 481.904 283.998 482.386 288.106C482.868 292.215 483.321 296.38 483.69 300.573C484.058 304.767 484.37 309.045 484.625 313.352C484.852 317.659 485.022 322.051 485.135 326.5C485.221 330.948 485.221 335.482 485.135 340.1C485.05 344.719 484.88 349.394 484.597 354.183C484.313 358.971 483.917 363.873 483.406 368.832C482.896 373.79 482.272 378.805 481.592 383.877C480.883 388.949 480.118 394.049 479.324 399.178C478.502 404.306 477.68 409.463 476.83 414.592M393.008 1.21842C397.147 4.59024 401.059 8.18873 404.744 12.0139C408.429 15.8107 411.859 19.8059 415.034 23.9427C418.209 28.0796 421.1 32.3581 423.68 36.75C426.259 41.1419 428.612 45.8454 430.795 50.2939C432.977 54.7425 435.075 59.191 437.088 63.6395C439.1 68.0881 441.056 72.5083 442.927 76.9285C444.798 81.3203 446.612 85.7122 448.37 90.0757C450.127 94.4393 451.8 98.7461 453.444 103.053C455.06 107.36 456.647 111.638 458.149 115.889C459.68 120.139 461.126 124.389 462.543 128.582C463.96 132.804 465.321 136.998 466.625 141.163C467.929 145.328 469.205 149.493 470.423 153.63C471.642 157.767 472.833 161.876 473.967 165.984C475.101 170.093 476.206 174.173 477.255 178.253C478.304 182.333 479.324 186.413 480.317 190.465C481.309 194.517 482.244 198.569 483.151 202.621C484.058 206.673 484.909 210.696 485.759 214.748C486.581 218.771 487.347 222.795 488.055 226.819C488.764 230.842 489.444 234.866 490.068 238.917C490.691 242.969 491.287 247.021 491.797 251.13C492.336 255.21 492.817 259.347 493.243 263.483C493.668 267.62 494.036 271.814 494.377 276.036C494.688 280.258 494.943 284.508 495.142 288.815C495.34 293.121 495.454 297.485 495.51 301.877C495.567 306.297 495.539 310.746 495.454 315.279C495.34 319.813 495.17 324.403 494.887 329.078C494.603 333.753 494.235 338.485 493.753 343.33C493.271 348.176 492.676 353.106 491.995 358.093C491.287 363.08 490.465 368.123 489.558 373.223C488.65 378.324 487.658 383.481 486.581 388.637C485.532 393.794 484.398 399.008 483.236 404.165M410.668 1.61511C414.977 4.73191 419.059 8.07538 422.886 11.6455C426.713 15.2157 430.284 18.9842 433.544 22.8944C436.804 26.8046 439.809 30.8847 442.445 35.0783C445.081 39.2718 447.519 43.777 449.73 48.0555C451.941 52.334 454.067 56.5842 456.108 60.8344C458.149 65.0846 460.077 69.3348 461.948 73.585C463.819 77.8068 465.605 82.0287 467.334 86.2222C469.063 90.4157 470.707 94.5809 472.266 98.7461C473.853 102.911 475.356 107.048 476.802 111.157C478.247 115.265 479.636 119.374 480.968 123.454C482.301 127.534 483.548 131.614 484.767 135.666C485.986 139.718 487.148 143.77 488.254 147.793C489.359 151.817 490.408 155.84 491.428 159.836C492.421 163.831 493.384 167.854 494.291 171.849C495.199 175.845 496.049 179.84 496.871 183.807C497.693 187.802 498.459 191.769 499.196 195.764C499.933 199.731 500.613 203.726 501.237 207.693C501.86 211.688 502.455 215.655 502.966 219.622C503.476 223.617 503.958 227.612 504.383 231.607C504.808 235.602 505.177 239.654 505.489 243.706C505.8 247.758 506.084 251.838 506.282 255.946C506.481 260.055 506.651 264.192 506.736 268.385C506.821 272.551 506.849 276.772 506.821 281.023C506.792 285.273 506.679 289.58 506.509 293.915C506.339 298.25 506.084 302.67 505.744 307.119C505.403 311.567 504.978 316.072 504.468 320.663C503.958 325.225 503.363 329.871 502.654 334.575C501.945 339.279 501.151 344.067 500.216 348.884C499.309 353.701 498.26 358.603 497.155 363.533C496.021 368.463 494.802 373.422 493.498 378.409C492.194 383.395 490.833 388.411 489.388 393.454M428.413 5.46861C433.034 8.35874 437.399 11.5322 441.481 14.9324C445.563 18.3325 449.333 21.9593 452.763 25.7845C456.193 29.5814 459.226 33.4632 462.089 37.7134C464.924 41.9636 467.277 46.2137 469.573 50.3789C471.869 54.5441 474.052 58.7093 476.121 62.9028C478.191 67.068 480.175 71.2332 482.046 75.3701C483.917 79.5069 485.702 83.6438 487.403 87.7523C489.104 91.8608 490.72 95.9693 492.251 100.049C493.781 104.13 495.227 108.21 496.588 112.29C497.948 116.342 499.252 120.394 500.499 124.446C501.718 128.497 502.881 132.521 503.986 136.544C505.092 140.568 506.112 144.591 507.076 148.587C508.04 152.61 508.947 156.605 509.797 160.601C510.648 164.596 511.413 168.591 512.15 172.614C512.887 176.61 513.539 180.605 514.163 184.628C514.786 188.623 515.325 192.647 515.835 196.67C516.345 200.694 516.799 204.718 517.167 208.741C517.536 212.765 517.876 216.816 518.131 220.868C518.386 224.92 518.613 229 518.755 233.109C518.897 237.217 518.982 241.326 519.01 245.491C519.038 249.656 518.982 253.821 518.897 258.043C518.783 262.265 518.613 266.515 518.358 270.794C518.103 275.072 517.791 279.408 517.394 283.771C516.997 288.135 516.515 292.555 515.948 297.003C515.382 301.452 514.73 305.957 513.993 310.519C513.256 315.081 512.405 319.699 511.47 324.346C510.534 329.021 509.485 333.725 508.352 338.513C507.189 343.274 505.942 348.119 504.553 352.964C503.164 357.838 501.69 362.74 500.103 367.67C498.515 372.6 496.814 377.559 495.029 382.545M505.545 359.056C503.051 363.59 500.471 367.982 497.835 372.288C495.199 376.595 492.534 380.789 489.813 384.897C487.091 389.006 484.342 393.001 481.535 396.939C478.757 400.85 475.923 404.675 473.088 408.415C470.253 412.155 467.39 415.782 464.499 419.352C461.608 422.894 458.716 426.379 455.825 429.751C452.934 433.123 450.014 436.41 447.094 439.64C444.174 442.87 441.255 445.987 438.278 449.018C435.302 452.05 432.325 454.997 429.264 457.859C426.202 460.692 423.084 463.441 419.881 466.076C416.678 468.711 413.418 471.204 410.13 473.613C406.813 476.021 403.412 478.345 400.067 480.498C396.722 482.652 393.348 484.72 389.89 486.703C386.432 488.687 382.917 490.585 379.345 492.399C375.773 494.212 372.145 495.969 368.46 497.612C364.775 499.256 361.005 500.842 357.178 502.316C353.351 503.789 349.468 505.178 345.499 506.481C341.53 507.784 337.505 508.974 333.423 510.051C329.341 511.128 325.174 512.091 320.951 512.885C316.727 513.706 312.447 514.358 308.11 514.84C303.772 515.321 299.35 515.633 294.872 515.746C290.393 515.86 285.999 515.746 281.52 515.378C277.041 515.01 272.506 514.415 267.914 513.565C263.35 512.686 258.758 511.581 254.194 510.136C249.63 508.719 245.123 506.991 240.701 504.951C236.279 502.911 231.97 500.559 227.86 497.839C223.749 495.119 219.809 492.059 216.209 488.602M510.308 346.532C507.53 350.726 504.695 354.834 501.775 358.858C498.884 362.91 495.936 366.876 492.959 370.787C489.983 374.697 486.978 378.55 483.973 382.347C480.94 386.144 477.907 389.856 474.874 393.511C471.841 397.166 468.779 400.765 465.746 404.306C462.713 407.848 459.68 411.305 456.647 414.705C453.642 418.105 450.637 421.421 447.661 424.707C444.685 427.966 441.708 431.168 438.703 434.284C435.699 437.401 432.666 440.405 429.519 443.295C426.401 446.185 423.169 448.99 419.853 451.597C416.536 454.232 413.135 456.697 409.676 459.021C406.218 461.344 402.646 463.582 399.131 465.623C395.616 467.663 392.073 469.589 388.444 471.403C384.816 473.216 381.159 474.973 377.446 476.616C373.732 478.288 369.934 479.846 366.107 481.348C362.28 482.85 358.368 484.267 354.4 485.627C350.431 486.987 346.378 488.262 342.267 489.452C338.157 490.67 333.962 491.804 329.738 492.824C325.486 493.844 321.206 494.779 316.84 495.601C312.475 496.394 308.053 497.074 303.574 497.612C299.095 498.151 294.56 498.519 289.968 498.689C285.375 498.859 280.868 498.859 276.276 498.604C271.684 498.349 267.035 497.896 262.358 497.159C257.681 496.451 252.975 495.487 248.326 494.24C243.649 493.022 239.028 491.52 234.493 489.707C229.957 487.894 225.535 485.797 221.312 483.36C217.088 480.923 213.034 478.146 209.293 475.03M514.588 333.81C511.555 337.663 508.437 341.46 505.29 345.229C502.144 348.997 498.94 352.737 495.709 356.449C492.477 360.161 489.274 363.845 486.014 367.5C482.783 371.155 479.523 374.782 476.291 378.38C473.06 381.979 469.828 385.521 466.625 389.034C463.422 392.548 460.275 396.004 457.129 399.405C454.011 402.805 450.921 406.176 447.888 409.492C444.855 412.807 441.85 416.094 438.817 419.239C435.784 422.412 432.694 425.472 429.519 428.419C426.344 431.366 423.028 434.199 419.598 436.806C416.168 439.441 412.624 441.878 408.996 444.145C405.396 446.412 401.654 448.537 397.997 450.464C394.341 452.39 390.627 454.175 386.857 455.847C383.087 457.519 379.26 459.106 375.405 460.607C371.55 462.109 367.638 463.526 363.641 464.857C359.644 466.189 355.619 467.493 351.509 468.711C347.398 469.929 343.203 471.091 338.951 472.224C334.671 473.358 330.362 474.435 325.968 475.398C321.574 476.39 317.152 477.296 312.645 478.09C308.138 478.883 303.602 479.591 298.982 480.158C294.361 480.725 289.712 481.15 285.007 481.405C280.301 481.66 275.681 481.745 271.004 481.603C266.326 481.462 261.564 481.122 256.773 480.555C251.983 479.988 247.192 479.195 242.43 478.175C237.668 477.126 232.934 475.851 228.313 474.293C223.693 472.735 219.157 470.893 214.82 468.739C210.483 466.586 206.344 464.121 202.489 461.316M518.415 320.918C515.098 324.46 511.725 327.973 508.295 331.487C504.865 335 501.407 338.542 497.92 342.055C494.433 345.597 490.975 349.139 487.488 352.681C484.002 356.223 480.543 359.764 477.085 363.306C473.655 366.848 470.225 370.362 466.88 373.847C463.507 377.332 460.219 380.817 456.959 384.246C453.727 387.674 450.552 391.074 447.434 394.474C444.316 397.874 441.283 401.218 438.193 404.448C435.103 407.707 431.985 410.852 428.725 413.855C425.465 416.859 422.064 419.72 418.52 422.384C414.977 425.047 411.264 427.427 407.494 429.638C403.723 431.848 399.84 433.888 395.985 435.701C392.158 437.515 388.303 439.186 384.362 440.716C380.422 442.246 376.454 443.663 372.457 445.023C368.432 446.355 364.378 447.63 360.268 448.848C356.157 450.038 351.962 451.2 347.71 452.305C343.458 453.41 339.121 454.459 334.699 455.507C330.277 456.555 325.798 457.576 321.262 458.539C316.727 459.502 312.135 460.381 307.486 461.202C302.837 462.024 298.131 462.732 293.398 463.356C288.664 463.979 283.845 464.461 279.026 464.829C274.178 465.169 269.444 465.368 264.654 465.339C259.863 465.311 254.988 465.113 250.084 464.716C245.208 464.319 240.276 463.696 235.4 462.874C230.524 462.052 225.677 460.976 220.943 459.672C216.209 458.369 211.56 456.782 207.11 454.912C202.659 453.042 198.407 450.917 194.439 448.423M521.788 307.884C518.33 311.001 514.786 314.174 511.186 317.348C507.615 320.521 503.986 323.751 500.358 327.01C496.729 330.268 493.129 333.555 489.529 336.898C485.929 340.242 482.329 343.585 478.786 346.957C475.242 350.329 471.727 353.729 468.298 357.101C464.868 360.501 461.494 363.873 458.178 367.245C454.889 370.617 451.658 373.988 448.568 377.332C445.45 380.675 442.445 384.047 439.412 387.334C436.379 390.621 433.374 393.823 430.228 396.883C427.081 399.943 423.85 402.89 420.42 405.667C416.961 408.415 413.333 410.965 409.62 413.232C405.906 415.527 402.051 417.567 398.167 419.437C394.284 421.307 390.4 422.951 386.489 424.452C382.577 425.954 378.608 427.314 374.611 428.561C370.614 429.836 366.589 430.998 362.507 432.103C358.425 433.208 354.315 434.256 350.148 435.276C345.953 436.296 341.729 437.26 337.392 438.223C333.055 439.186 328.604 440.15 324.154 441.113C319.703 442.076 315.168 443.012 310.604 443.89C306.04 444.768 301.42 445.618 296.771 446.412C292.122 447.205 287.388 447.913 282.654 448.537C277.92 449.16 273.13 449.67 268.311 450.067C263.492 450.463 258.871 450.69 254.08 450.775C249.29 450.86 244.471 450.775 239.624 450.52C234.776 450.265 229.929 449.84 225.11 449.217C220.291 448.593 215.5 447.8 210.823 446.752C206.146 445.732 201.554 444.485 197.16 442.983C192.766 441.481 188.514 439.753 184.574 437.713M524.651 294.737C520.881 297.627 517.026 300.545 513.17 303.549C509.287 306.552 505.375 309.612 501.463 312.757C497.551 315.902 493.696 319.104 489.841 322.391C485.986 325.65 482.159 328.993 478.361 332.365C474.562 335.737 470.849 339.137 467.22 342.565C463.592 345.994 460.02 349.422 456.59 352.879C453.132 356.336 449.787 359.793 446.584 363.25C443.352 366.706 440.262 370.192 437.173 373.592C434.083 376.992 430.993 380.335 427.761 383.509C424.558 386.711 421.213 389.742 417.642 392.604C414.07 395.438 410.272 398.045 406.388 400.34C402.505 402.635 398.479 404.703 394.397 406.517C390.315 408.358 386.233 409.945 382.151 411.362C378.041 412.778 373.903 414.054 369.736 415.215C365.569 416.377 361.373 417.454 357.121 418.474C352.869 419.494 348.589 420.429 344.252 421.364C339.915 422.299 335.493 423.206 330.985 424.112C326.478 425.019 321.858 425.954 317.209 426.917C312.56 427.881 307.883 428.816 303.149 429.751C298.415 430.686 293.624 431.564 288.805 432.443C283.986 433.293 279.111 434.086 274.207 434.823C269.303 435.559 264.37 436.211 259.41 436.75C254.449 437.288 249.687 437.685 244.783 437.94C239.879 438.195 234.89 438.308 229.929 438.28C224.94 438.251 219.951 438.053 214.99 437.713C210.03 437.345 205.126 436.835 200.278 436.098C195.459 435.361 190.725 434.454 186.19 433.293C181.626 432.131 177.261 430.771 173.15 429.128M527.089 281.476C523.149 284.054 519.152 286.69 515.098 289.438C511.045 292.186 506.991 294.992 502.937 297.91C498.884 300.828 494.887 303.86 490.89 306.949C486.893 310.066 482.924 313.239 479.041 316.497C475.129 319.756 471.302 323.043 467.56 326.415C463.819 329.758 460.162 333.158 456.619 336.558C453.075 339.959 449.674 343.415 446.385 346.872C443.097 350.329 439.979 353.814 436.889 357.271C433.799 360.728 430.766 364.156 427.648 367.443C424.53 370.73 421.327 373.903 417.897 376.907C414.467 379.882 410.81 382.715 406.983 385.181C403.156 387.646 399.188 389.856 395.106 391.811C391.052 393.766 386.885 395.494 382.747 396.996C378.636 398.498 374.498 399.801 370.302 400.963C366.107 402.125 361.912 403.173 357.688 404.136C353.465 405.1 349.212 406.007 344.904 406.885C340.595 407.763 336.23 408.585 331.808 409.407C327.385 410.228 322.878 411.078 318.286 411.957C313.694 412.835 309.017 413.77 304.311 414.705C299.634 415.64 294.9 416.604 290.109 417.539C285.319 418.474 280.5 419.409 275.652 420.287C270.805 421.194 265.901 422.044 260.997 422.837C256.093 423.631 251.076 424.396 246.228 425.047C241.381 425.699 236.562 426.181 231.658 426.577C226.754 426.974 221.793 427.286 216.861 427.427C211.9 427.597 206.94 427.626 202.036 427.541C197.103 427.428 192.228 427.201 187.437 426.776C182.646 426.379 177.941 425.784 173.434 425.019C168.898 424.254 164.533 423.319 160.394 422.129M529.016 268.13C524.934 270.425 520.739 272.834 516.544 275.356C512.348 277.877 508.125 280.484 503.929 283.204C499.734 285.924 495.567 288.786 491.457 291.761C487.318 294.737 483.236 297.797 479.211 300.942C475.186 304.087 471.246 307.317 467.362 310.604C463.507 313.891 459.737 317.234 456.108 320.606C452.48 323.978 448.965 327.406 445.592 330.863C442.218 334.32 439.015 337.805 435.925 341.29C432.836 344.804 429.803 348.289 426.769 351.689C423.708 355.089 420.618 358.404 417.33 361.521C414.042 364.666 410.555 367.641 406.842 370.362C403.1 373.082 399.188 375.462 395.163 377.587C391.137 379.712 386.999 381.554 382.803 383.197C378.608 384.841 374.441 386.229 370.246 387.447C366.05 388.666 361.827 389.714 357.575 390.678C353.323 391.641 349.071 392.519 344.79 393.341C340.51 394.163 336.173 394.956 331.808 395.721C327.442 396.486 322.992 397.251 318.484 398.045C313.977 398.838 309.385 399.66 304.68 400.566C299.974 401.473 295.297 402.408 290.563 403.4C285.829 404.363 281.038 405.355 276.248 406.347C271.429 407.338 266.581 408.33 261.706 409.293C256.83 410.257 251.926 411.22 247.022 412.098C242.118 412.977 237.157 413.884 232.338 414.62C227.548 415.357 222.672 416.009 217.797 416.575C212.893 417.142 207.96 417.624 203.028 418.02C198.096 418.417 193.163 418.7 188.259 418.842C183.355 419.012 178.508 419.069 173.746 418.984C168.983 418.899 164.306 418.672 159.799 418.304C155.263 417.935 150.898 417.397 146.759 416.66M530.462 254.728C526.21 256.797 521.901 258.978 517.564 261.273C513.227 263.568 508.862 266.005 504.525 268.584C500.188 271.134 495.907 273.854 491.627 276.687C487.375 279.521 483.151 282.468 479.013 285.528C474.874 288.588 470.792 291.733 466.823 294.935C462.855 298.165 459 301.452 455.258 304.795C451.516 308.139 447.916 311.539 444.458 314.996C440.999 318.453 437.711 321.909 434.536 325.451C431.39 328.993 428.357 332.563 425.352 336.048C422.319 339.534 419.314 342.962 416.139 346.249C412.965 349.536 409.676 352.681 406.105 355.599C402.533 358.518 398.706 361.181 394.737 363.505C390.769 365.828 386.659 367.868 382.492 369.653C378.296 371.438 374.073 372.997 369.821 374.328C365.597 375.66 361.402 376.794 357.121 377.785C352.841 378.777 348.56 379.655 344.28 380.477C340 381.299 335.691 382.035 331.326 382.772C326.989 383.509 322.595 384.189 318.144 384.926C313.694 385.634 309.187 386.371 304.595 387.164C300.002 387.957 295.268 388.836 290.563 389.771C285.857 390.706 281.123 391.698 276.333 392.718C271.542 393.738 266.752 394.786 261.904 395.834C257.057 396.883 252.181 397.96 247.306 399.008C242.43 400.056 237.498 401.133 232.594 402.153C227.69 403.173 222.814 404.165 218.023 405.043C213.233 405.922 208.357 406.743 203.481 407.48C198.606 408.245 193.673 408.925 188.769 409.52C183.865 410.115 178.933 410.653 174.086 411.107C169.21 411.532 164.391 411.872 159.657 412.127C154.923 412.353 150.246 412.495 145.739 412.467C141.232 412.467 136.866 412.325 132.699 412.042M531.426 241.269C527.032 243.111 522.582 245.094 518.103 247.219C513.624 249.345 509.117 251.611 504.638 254.02C500.159 256.428 495.737 258.978 491.372 261.698C487.006 264.39 482.669 267.252 478.389 270.199C474.137 273.146 469.942 276.234 465.86 279.379C461.778 282.524 457.809 285.783 453.954 289.098C450.099 292.413 446.414 295.813 442.842 299.242C439.299 302.67 435.897 306.184 432.666 309.697C429.434 313.239 426.373 316.866 423.368 320.436C420.363 324.006 417.387 327.548 414.325 330.948C411.264 334.348 408.089 337.663 404.687 340.752C401.286 343.84 397.6 346.787 393.745 349.366C389.862 351.944 385.837 354.183 381.67 356.166C377.531 358.149 373.279 359.849 368.999 361.351C364.718 362.853 360.466 364.071 356.186 365.148C351.934 366.225 347.597 367.131 343.288 367.953C338.979 368.775 334.671 369.512 330.333 370.22C325.996 370.928 321.631 371.58 317.237 372.232C312.843 372.883 308.393 373.563 303.858 374.272C299.322 374.98 294.73 375.745 290.053 376.567C285.375 377.417 280.613 378.38 275.879 379.372C271.145 380.364 266.355 381.412 261.536 382.517C256.717 383.594 251.898 384.727 247.022 385.889C242.175 387.022 237.271 388.212 232.395 389.374C227.491 390.536 222.587 391.726 217.683 392.859C212.779 394.021 208.017 395.098 203.226 396.118C198.436 397.138 193.56 398.13 188.684 399.093C183.809 400.028 178.905 400.935 174.029 401.756C169.125 402.578 164.249 403.371 159.402 404.08C154.555 404.788 149.764 405.411 145.03 405.95C140.296 406.488 135.676 406.97 131.169 407.31C126.661 407.678 122.296 407.905 118.101 408.047M531.908 227.81C527.401 229.454 522.808 231.239 518.216 233.194C513.624 235.149 509.004 237.246 504.411 239.484C499.819 241.751 495.284 244.159 490.805 246.738C486.326 249.316 481.876 252.065 477.51 254.926C473.145 257.788 468.836 260.792 464.669 263.88C460.474 266.969 456.42 270.17 452.48 273.457C448.54 276.744 444.741 280.088 441.085 283.516C437.428 286.945 433.941 290.43 430.625 293.971C427.308 297.513 424.19 301.14 421.185 304.767C418.152 308.394 415.232 312.021 412.227 315.562C409.223 319.104 406.161 322.533 402.93 325.791C399.67 329.05 396.24 332.138 392.498 335C388.756 337.862 384.816 340.327 380.734 342.537C376.652 344.747 372.428 346.646 368.148 348.289C363.868 349.961 359.531 351.349 355.25 352.567C350.97 353.786 346.661 354.778 342.324 355.628C337.987 356.478 333.65 357.243 329.313 357.951C324.976 358.659 320.639 359.283 316.245 359.906C311.88 360.529 307.458 361.125 303.007 361.748C298.557 362.371 294.021 363.023 289.429 363.76C284.837 364.496 280.16 365.29 275.397 366.225C270.607 367.16 265.929 368.18 261.139 369.228C256.377 370.305 251.558 371.41 246.739 372.6C241.92 373.762 237.044 374.98 232.197 376.227C227.321 377.474 222.445 378.749 217.541 380.024C212.637 381.299 207.762 382.602 202.858 383.905C197.982 385.209 193.305 386.399 188.514 387.561C183.724 388.751 178.876 389.912 174.029 391.046C169.182 392.179 164.306 393.284 159.43 394.333C154.555 395.381 149.707 396.401 144.889 397.364C140.07 398.328 135.307 399.235 130.602 400.085C125.896 400.935 121.304 401.728 116.797 402.408C112.318 403.116 107.953 403.74 103.757 404.25M531.908 214.351C527.287 215.796 522.61 217.411 517.876 219.196C513.171 220.982 508.437 222.908 503.759 225.033C499.054 227.159 494.405 229.425 489.841 231.89C485.249 234.355 480.713 236.991 476.263 239.739C471.812 242.516 467.419 245.434 463.138 248.438C458.858 251.47 454.691 254.615 450.666 257.845C446.641 261.075 442.729 264.419 439.015 267.819C435.273 271.219 431.702 274.704 428.3 278.246C424.899 281.788 421.695 285.386 418.662 289.07C415.601 292.753 412.681 296.437 409.733 300.063C406.785 303.69 403.837 307.232 400.719 310.661C397.601 314.089 394.341 317.348 390.797 320.379C387.254 323.411 383.427 326.245 379.43 328.681C375.433 331.118 371.295 333.243 367.071 335.085C362.847 336.927 358.482 338.542 354.145 339.902C349.836 341.234 345.471 342.367 341.162 343.33C336.853 344.294 332.488 345.059 328.122 345.767C323.785 346.476 319.42 347.099 315.083 347.694C310.717 348.289 306.352 348.856 301.93 349.422C297.508 349.989 293.057 350.556 288.55 351.207C284.043 351.831 279.451 352.511 274.802 353.304C270.125 354.098 265.363 355.004 260.6 355.996C255.866 356.988 251.104 358.064 246.313 359.226C241.523 360.359 236.704 361.578 231.857 362.825C227.009 364.071 222.162 365.403 217.315 366.735C212.439 368.095 207.592 369.455 202.716 370.872C197.84 372.288 192.936 373.705 188.146 375.122C183.355 376.539 178.706 377.842 173.916 379.174C169.125 380.505 164.306 381.865 159.487 383.169C154.668 384.501 149.821 385.804 144.974 387.079C140.155 388.354 135.336 389.601 130.545 390.819C125.754 392.038 121.02 393.228 116.372 394.361C111.723 395.494 107.131 396.571 102.652 397.62C98.1729 398.668 93.8359 399.603 89.6405 400.51M531.398 200.921C526.805 202.167 522.185 203.556 517.508 205.114C512.859 206.673 508.181 208.401 503.533 210.299C498.884 212.198 494.263 214.266 489.728 216.505C485.192 218.743 480.685 221.152 476.263 223.73C471.841 226.28 467.475 229 463.195 231.834C458.943 234.667 454.776 237.614 450.722 240.674C446.669 243.734 442.757 246.879 438.987 250.138C435.217 253.396 431.588 256.712 428.158 260.083C424.7 263.483 421.412 266.94 418.322 270.454C415.232 273.967 412.284 277.594 409.449 281.193C406.586 284.791 403.808 288.39 400.945 291.875C398.082 295.36 395.163 298.788 392.045 302.019C388.926 305.277 385.638 308.337 382.038 311.199C378.438 314.061 374.64 316.583 370.671 318.821C366.731 321.059 362.649 322.986 358.482 324.686C354.315 326.386 350.063 327.831 345.839 329.05C341.616 330.268 337.363 331.288 333.168 332.167C328.973 333.017 324.692 333.725 320.469 334.348C316.245 334.972 312.021 335.538 307.769 336.077C303.546 336.615 299.294 337.097 295.013 337.607C290.733 338.117 286.424 338.627 282.059 339.194C277.693 339.76 273.271 340.355 268.793 341.064C264.285 341.772 259.636 342.565 255.073 343.5C250.48 344.435 245.888 345.455 241.239 346.532C236.59 347.637 231.942 348.799 227.264 350.017C222.587 351.236 217.91 352.539 213.204 353.871C208.499 355.203 203.793 356.591 199.088 358.036C194.382 359.453 189.677 360.926 184.971 362.428C180.265 363.93 175.645 365.431 171.081 366.876C166.517 368.322 161.925 369.767 157.276 371.24C152.656 372.685 147.978 374.158 143.329 375.603C138.681 377.049 134.003 378.522 129.354 379.939C124.706 381.384 120.057 382.8 115.464 384.217C110.872 385.634 106.308 387.022 101.83 388.382C97.3509 389.742 92.9288 391.074 88.6201 392.349C84.3113 393.653 80.116 394.899 76.0624 396.089M530.405 187.518C525.728 188.567 521.023 189.785 516.26 191.174C511.526 192.562 506.764 194.12 502.03 195.849C497.296 197.577 492.591 199.504 487.97 201.601C483.35 203.697 478.786 205.993 474.279 208.429C469.771 210.866 465.321 213.473 460.984 216.221C456.647 218.941 452.395 221.832 448.285 224.807C444.174 227.782 440.177 230.87 436.322 234.072C432.467 237.246 428.782 240.532 425.267 243.876C421.752 247.219 418.379 250.648 415.204 254.161C412.029 257.647 409.053 261.245 406.19 264.872C403.327 268.499 400.549 272.126 397.771 275.696C394.964 279.266 392.158 282.751 389.181 286.123C386.205 289.495 383.087 292.696 379.714 295.728C376.34 298.76 372.655 301.565 368.8 304.002C364.973 306.439 360.976 308.592 356.866 310.462C352.756 312.332 348.56 313.947 344.308 315.307C340.056 316.696 335.804 317.829 331.581 318.793C327.357 319.756 323.133 320.521 318.881 321.173C314.629 321.824 310.377 322.391 306.154 322.901C301.93 323.411 297.678 323.865 293.426 324.318C289.174 324.771 284.894 325.196 280.585 325.65C276.276 326.103 271.939 326.613 267.517 327.18C263.095 327.746 258.644 328.398 254.08 329.135C249.517 329.9 244.868 330.778 240.276 331.77C235.683 332.762 231.063 333.838 226.414 335C221.765 336.162 217.116 337.38 212.439 338.683C207.762 339.987 203.085 341.347 198.379 342.764C193.702 344.18 188.996 345.654 184.319 347.184C179.642 348.714 174.936 350.272 170.287 351.859C165.61 353.446 161.131 355.004 156.567 356.591C152.004 358.178 147.44 359.736 142.848 361.323C138.255 362.91 133.635 364.525 129.014 366.14C124.394 367.755 119.773 369.37 115.153 370.985C110.532 372.6 105.94 374.243 101.404 375.858C96.8406 377.474 92.3335 379.089 87.883 380.675C83.4326 382.262 79.0672 383.849 74.7868 385.407C70.5064 386.966 66.3394 388.496 62.2858 389.969M528.903 174.201C524.169 175.051 519.378 176.1 514.588 177.29C509.797 178.48 504.978 179.896 500.188 181.455C495.397 183.042 490.606 184.798 485.958 186.753C481.309 188.708 476.66 190.862 472.096 193.157C467.532 195.48 463.025 197.946 458.631 200.581C454.237 203.216 449.929 205.964 445.762 208.854C441.595 211.745 437.541 214.748 433.629 217.865C429.717 220.982 425.976 224.183 422.376 227.47C418.776 230.757 415.374 234.157 412.114 237.614C408.883 241.071 405.849 244.584 402.958 248.211C400.067 251.838 397.317 255.465 394.596 259.092C391.874 262.718 389.125 266.26 386.29 269.717C383.455 273.174 380.507 276.517 377.304 279.663C374.129 282.808 370.671 285.811 366.986 288.503C363.301 291.195 359.417 293.518 355.42 295.587C351.424 297.655 347.285 299.412 343.09 300.942C338.894 302.472 334.614 303.747 330.39 304.824C326.138 305.9 321.886 306.779 317.691 307.487C313.495 308.195 309.215 308.734 304.963 309.244C300.739 309.726 296.516 310.151 292.292 310.547C288.068 310.944 283.845 311.312 279.593 311.681C275.341 312.049 271.06 312.446 266.723 312.871C262.386 313.296 258.021 313.806 253.57 314.372C249.12 314.967 244.613 315.647 240.02 316.469C235.428 317.291 230.836 318.254 226.244 319.303C221.652 320.351 217.031 321.456 212.411 322.674C207.79 323.893 203.141 325.168 198.492 326.528C193.843 327.888 189.195 329.333 184.517 330.806C179.869 332.308 175.191 333.867 170.542 335.453C165.894 337.068 161.245 338.712 156.624 340.412C152.004 342.112 147.638 343.699 143.131 345.371C138.624 347.042 134.088 348.742 129.525 350.442C124.961 352.171 120.397 353.899 115.833 355.656C111.269 357.413 106.677 359.198 102.141 360.983C97.5776 362.768 93.0422 364.581 88.535 366.366C84.0279 368.18 79.5774 369.993 75.1837 371.778C70.7899 373.592 66.4528 375.377 62.2292 377.19C58.0055 378.975 53.8385 380.76 49.8416 382.517M526.89 160.969C522.015 161.649 517.054 162.527 512.065 163.576C507.104 164.652 502.115 165.899 497.155 167.373C492.194 168.846 487.233 170.489 482.443 172.388C477.624 174.258 472.861 176.355 468.156 178.621C463.45 180.888 458.83 183.353 454.294 185.96C449.759 188.567 445.337 191.344 441.056 194.234C436.776 197.124 432.609 200.156 428.612 203.301C424.615 206.446 420.76 209.704 417.103 213.048C413.446 216.391 409.96 219.848 406.671 223.362C403.383 226.875 400.322 230.502 397.402 234.186C394.482 237.897 391.733 241.637 388.983 245.321C386.233 249.033 383.512 252.688 380.649 256.23C377.786 259.772 374.81 263.2 371.606 266.43C368.403 269.66 364.888 272.749 361.146 275.469C357.405 278.189 353.436 280.569 349.354 282.638C345.272 284.706 341.049 286.463 336.74 287.993C332.459 289.495 328.094 290.77 323.757 291.79C319.42 292.81 315.083 293.631 310.774 294.311C306.494 294.963 302.1 295.445 297.791 295.87C293.483 296.295 289.174 296.663 284.865 296.975C280.556 297.287 276.248 297.598 271.911 297.91C267.574 298.222 263.208 298.533 258.786 298.93C254.364 299.327 249.913 299.752 245.378 300.29C240.842 300.828 236.25 301.48 231.545 302.302C226.839 303.124 222.19 304.059 217.513 305.107C212.836 306.155 208.13 307.289 203.425 308.535C198.719 309.782 193.985 311.114 189.251 312.531C184.517 313.947 179.783 315.449 175.05 317.008C170.316 318.566 165.582 320.209 160.876 321.909C156.171 323.609 151.437 325.366 146.759 327.151C142.082 328.965 137.66 330.693 133.096 332.478C128.532 334.263 123.94 336.105 119.32 337.975C114.699 339.845 110.079 341.744 105.458 343.67C100.838 345.597 96.1887 347.552 91.5965 349.536C86.9759 351.519 82.3837 353.531 77.8483 355.543C73.2844 357.554 68.7773 359.594 64.3268 361.663C59.8764 363.703 55.4826 365.771 51.2022 367.811C46.9219 369.88 42.7265 371.92 38.6446 373.96M524.368 147.85C519.464 148.332 514.503 148.983 509.514 149.862C504.525 150.74 499.536 151.817 494.547 153.092C489.586 154.367 484.625 155.869 479.778 157.569C474.902 159.269 470.168 161.196 465.434 163.321C460.701 165.446 456.052 167.741 451.516 170.206C446.981 172.671 442.53 175.306 438.193 178.083C433.884 180.86 429.689 183.778 425.664 186.81C421.639 189.842 417.755 193.015 414.07 196.274C410.385 199.532 406.842 202.904 403.525 206.361C400.208 209.818 397.09 213.303 394.171 216.958C391.251 220.613 388.501 224.325 385.808 228.037C383.115 231.749 380.479 235.432 377.758 239.002C375.036 242.601 372.23 246.086 369.225 249.43C366.221 252.773 363.017 255.918 359.502 258.865C355.987 261.812 352.189 264.418 348.249 266.685C344.308 268.952 340.226 270.907 336.031 272.551C331.836 274.222 327.555 275.611 323.247 276.772C318.938 277.934 314.601 278.841 310.321 279.578C306.012 280.314 301.76 280.853 297.451 281.278C293.142 281.703 288.862 282.014 284.582 282.298C280.301 282.581 276.049 282.808 271.769 283.034C267.489 283.261 263.208 283.459 258.899 283.714C254.591 283.969 250.225 284.253 245.832 284.621C241.409 284.989 236.959 285.443 232.424 286.038C227.888 286.633 223.182 287.341 218.562 288.22C213.97 289.098 209.321 290.09 204.7 291.166C200.051 292.243 195.403 293.461 190.725 294.737C186.048 296.012 181.399 297.4 176.722 298.873C172.045 300.347 167.368 301.877 162.69 303.52C158.013 305.135 153.364 306.835 148.715 308.62C144.066 310.377 139.304 312.304 134.882 314.089C130.46 315.874 125.981 317.716 121.474 319.614C116.967 321.484 112.46 323.439 107.924 325.395C103.389 327.35 98.8533 329.361 94.2894 331.43C89.7539 333.47 85.1901 335.567 80.6829 337.663C76.1474 339.789 71.6686 341.914 67.1898 344.095C62.7394 346.277 58.2889 348.459 53.9519 350.697C49.5865 352.907 45.2777 355.146 41.0824 357.413C36.8587 359.651 32.7485 361.918 28.7515 364.185M521.334 134.873C516.43 135.128 511.47 135.609 506.481 136.289C501.492 136.969 496.503 137.848 491.542 138.953C486.581 140.058 481.649 141.361 476.773 142.891C471.898 144.421 467.164 146.178 462.43 148.133C457.696 150.088 453.047 152.242 448.511 154.565C443.948 156.889 439.497 159.382 435.188 162.046C430.851 164.681 426.656 167.486 422.631 170.404C418.577 173.323 414.694 176.383 410.98 179.528C407.267 182.702 403.723 185.96 400.378 189.332C397.034 192.704 393.887 196.16 390.939 199.702C387.991 203.244 385.241 206.928 382.605 210.611C379.969 214.295 377.418 217.978 374.81 221.605C372.202 225.232 369.565 228.774 366.787 232.174C364.009 235.574 361.033 238.861 357.773 241.892C354.513 244.924 350.97 247.814 347.2 250.28C343.458 252.745 339.518 254.87 335.464 256.712C331.411 258.553 327.215 260.083 322.992 261.387C318.768 262.69 314.459 263.738 310.207 264.56C305.927 265.382 301.675 266.005 297.479 266.487C293.284 266.94 288.975 267.252 284.723 267.479C280.5 267.734 276.276 267.904 272.052 268.045C267.829 268.187 263.633 268.329 259.41 268.442C255.186 268.584 250.934 268.725 246.625 268.952C242.345 269.15 238.008 269.434 233.614 269.802C229.22 270.17 224.77 270.652 220.206 271.275C215.671 271.899 211.05 272.721 206.486 273.627C201.922 274.534 197.358 275.554 192.766 276.687C188.174 277.821 183.582 279.039 178.99 280.371C174.398 281.703 169.777 283.119 165.185 284.649C160.593 286.151 155.972 287.766 151.408 289.438C146.816 291.11 142.252 292.866 137.688 294.68C133.125 296.493 128.589 298.42 124.224 300.29C119.858 302.132 115.465 304.059 111.071 306.014C106.649 307.969 102.227 309.981 97.7761 312.049C93.3256 314.117 88.8752 316.214 84.4247 318.368C79.9743 320.521 75.5238 322.703 71.1017 324.941C66.6796 327.18 62.2858 329.446 57.9204 331.77C53.555 334.093 49.2463 336.417 44.9659 338.797C40.7139 341.177 36.4902 343.585 32.3799 345.994C28.2696 348.431 24.2444 350.867 20.3042 353.333M517.791 122.037C512.802 122.094 507.728 122.377 502.654 122.887C497.58 123.397 492.477 124.106 487.403 125.069C482.329 126.032 477.312 127.194 472.323 128.639C467.362 130.056 462.515 131.728 457.724 133.598C452.905 135.468 448.171 137.565 443.551 139.831C438.93 142.098 434.395 144.563 430.001 147.17C425.607 149.777 421.355 152.553 417.273 155.472C413.191 158.39 409.251 161.451 405.509 164.624C401.767 167.798 398.196 171.084 394.851 174.484C391.506 177.885 388.331 181.37 385.411 184.968C382.492 188.538 379.77 192.279 377.162 196.019C374.555 199.759 372.032 203.499 369.48 207.183C366.929 210.866 364.321 214.465 361.543 217.921C358.765 221.378 355.817 224.693 352.586 227.782C349.354 230.87 345.754 233.76 341.984 236.254C338.214 238.747 334.245 240.872 330.135 242.686C326.025 244.499 321.801 246.001 317.521 247.248C313.24 248.494 308.903 249.486 304.595 250.251C300.286 251.016 295.977 251.555 291.725 251.951C287.473 252.32 283.108 252.518 278.856 252.688C274.575 252.83 270.323 252.915 266.071 252.971C261.819 253.028 257.567 253.056 253.315 253.113C249.035 253.17 244.754 253.226 240.446 253.34C236.109 253.481 231.743 253.651 227.321 253.963C222.899 254.275 218.392 254.7 213.8 255.266C209.207 255.861 204.559 256.627 199.966 257.505C195.374 258.383 190.754 259.403 186.133 260.508C181.513 261.642 176.892 262.86 172.243 264.22C167.623 265.552 162.974 266.997 158.353 268.555C153.733 270.085 149.112 271.729 144.492 273.457C139.871 275.186 135.279 276.999 130.715 278.898C126.151 280.796 121.587 282.779 117.222 284.706C112.857 286.633 108.463 288.645 104.041 290.713C99.6186 292.781 95.1965 294.878 90.7461 297.06C86.2956 299.242 81.8452 301.48 77.3947 303.775C72.9442 306.07 68.4938 308.394 64.1 310.802C59.6779 313.182 55.2842 315.647 50.9188 318.141C46.5534 320.634 42.2446 323.156 37.9926 325.735C33.7406 328.313 29.5453 330.92 25.435 333.555C21.3247 336.19 17.2994 338.882 13.3876 341.574M513.709 109.372C508.635 109.23 503.476 109.287 498.317 109.598C493.158 109.91 487.97 110.477 482.811 111.27C477.652 112.063 472.549 113.112 467.504 114.415C462.458 115.719 457.554 117.277 452.678 119.062C447.803 120.847 443.012 122.859 438.307 125.069C433.629 127.279 429.037 129.687 424.615 132.266C420.193 134.844 415.884 137.593 411.774 140.511C407.664 143.401 403.695 146.462 399.953 149.635C396.183 152.808 392.64 156.124 389.295 159.524C385.95 162.952 382.803 166.466 379.912 170.093C377.021 173.719 374.356 177.488 371.776 181.285C369.225 185.082 366.759 188.878 364.265 192.59C361.77 196.33 359.219 199.986 356.469 203.471C353.748 206.984 350.828 210.328 347.597 213.445C344.365 216.561 340.793 219.48 336.995 221.973C333.225 224.467 329.228 226.563 325.089 228.349C320.979 230.134 316.699 231.607 312.39 232.797C308.081 233.987 303.716 234.922 299.35 235.602C294.985 236.282 290.648 236.764 286.396 237.047C282.144 237.331 277.722 237.444 273.441 237.472C269.133 237.529 264.852 237.501 260.6 237.444C256.32 237.387 252.068 237.331 247.759 237.274C243.479 237.217 239.17 237.189 234.833 237.246C230.496 237.274 226.102 237.387 221.652 237.614C217.201 237.841 212.666 238.209 208.074 238.719C203.453 239.257 198.776 239.966 194.155 240.816C189.535 241.666 184.914 242.658 180.265 243.763C175.616 244.868 170.968 246.086 166.319 247.446C161.67 248.778 157.021 250.251 152.372 251.81C147.723 253.368 143.103 255.04 138.482 256.825C133.862 258.582 129.269 260.452 124.706 262.407C120.142 264.362 115.578 266.43 111.241 268.442C106.875 270.454 102.51 272.522 98.1162 274.676C93.7225 276.829 89.3004 279.039 84.8783 281.334C80.4562 283.629 76.0057 285.981 71.5836 288.39C67.1615 290.798 62.7394 293.291 58.3456 295.842C53.9519 298.392 49.5581 300.97 45.2211 303.634C40.884 306.297 36.5753 308.989 32.3516 311.766C28.1279 314.514 23.9326 317.348 19.8506 320.181C15.7687 323.043 11.7718 325.933 7.85993 328.851M509.117 96.9044C503.986 96.536 498.77 96.3943 493.555 96.5077C488.339 96.621 483.095 97.0177 477.879 97.6411C472.663 98.2928 467.504 99.1711 462.401 100.333C457.299 101.495 452.338 102.94 447.434 104.611C442.502 106.283 437.683 108.238 432.949 110.363C428.215 112.488 423.623 114.84 419.144 117.39C414.694 119.912 410.385 122.632 406.246 125.522C402.108 128.412 398.167 131.444 394.397 134.618C390.656 137.791 387.112 141.106 383.767 144.535C380.451 147.963 377.361 151.505 374.498 155.16C371.663 158.815 369.055 162.641 366.561 166.466C364.066 170.291 361.685 174.144 359.247 177.913C356.809 181.681 354.315 185.393 351.65 188.935C348.986 192.477 346.123 195.849 342.919 199.022C339.745 202.167 336.173 205.114 332.403 207.579C328.633 210.044 324.636 212.141 320.497 213.898C316.358 215.655 312.106 217.071 307.769 218.205C303.432 219.338 299.039 220.188 294.673 220.783C290.308 221.378 285.942 221.775 281.662 221.945C277.382 222.143 272.959 222.115 268.651 222.058C264.342 222.002 260.062 221.86 255.781 221.718C251.501 221.548 247.221 221.378 242.94 221.237C238.66 221.095 234.351 220.953 229.986 220.897C225.649 220.84 221.255 220.868 216.776 221.01C212.326 221.152 207.79 221.435 203.17 221.888C198.549 222.342 193.843 223.022 189.223 223.843C184.602 224.665 179.954 225.6 175.305 226.677C170.656 227.754 166.007 228.972 161.358 230.332C156.709 231.664 152.06 233.137 147.411 234.724C142.762 236.311 138.142 238.011 133.55 239.796C128.958 241.581 124.365 243.508 119.83 245.491C115.294 247.503 110.759 249.628 106.422 251.696C102.085 253.765 97.7477 255.918 93.3823 258.157C89.0169 260.395 84.6231 262.69 80.2294 265.07C75.8356 267.45 71.4419 269.915 67.0481 272.466C62.6544 275.016 58.2606 277.622 53.9235 280.286C49.5581 282.978 45.2211 285.726 40.9407 288.531C36.6603 291.336 32.3799 294.227 28.1846 297.173C23.9893 300.12 19.8506 303.124 15.8254 306.155C11.7718 309.216 7.83159 312.304 3.97642 315.449M503.986 84.6638C498.827 84.0404 493.554 83.7004 488.31 83.6154C483.038 83.5304 477.765 83.7288 472.493 84.1821C467.249 84.6355 462.033 85.4005 456.902 86.4205C451.771 87.4406 446.782 88.7723 441.822 90.3307C436.861 91.9175 432.014 93.7308 427.251 95.7993C422.517 97.8677 417.868 100.134 413.418 102.628C408.939 105.121 404.63 107.785 400.52 110.618C396.382 113.452 392.47 116.484 388.728 119.629C385.014 122.802 381.499 126.089 378.211 129.517C374.923 132.946 371.89 136.516 369.112 140.171C366.334 143.826 363.811 147.708 361.402 151.562C358.992 155.415 356.696 159.297 354.343 163.122C351.99 166.919 349.581 170.659 347.001 174.229C344.394 177.8 341.615 181.2 338.469 184.373C335.322 187.547 331.808 190.465 328.037 192.93C324.296 195.395 320.299 197.464 316.188 199.164C312.078 200.864 307.798 202.224 303.461 203.301C299.124 204.349 294.73 205.143 290.364 205.653C285.999 206.163 281.634 206.446 277.353 206.531C273.073 206.616 268.651 206.503 264.342 206.333C260.033 206.163 255.753 205.908 251.473 205.653C247.192 205.369 242.94 205.086 238.66 204.802C234.379 204.519 230.071 204.292 225.734 204.122C221.397 203.952 217.003 203.896 212.552 203.952C208.102 204.009 203.595 204.207 198.974 204.604C194.354 205.001 189.676 205.624 185.056 206.389C180.435 207.154 175.815 208.061 171.194 209.109C166.574 210.158 161.925 211.348 157.304 212.679C152.684 214.011 148.035 215.485 143.443 217.071C138.822 218.658 134.23 220.358 129.666 222.2C125.102 224.013 120.539 225.968 116.031 228.009C111.524 230.049 107.017 232.23 102.737 234.355C98.4564 236.481 94.1477 238.691 89.839 241.014C85.5303 243.309 81.1932 245.718 76.8561 248.183C72.5191 250.648 68.182 253.226 63.8449 255.861C59.5079 258.497 55.1991 261.245 50.8904 264.05C46.5817 266.855 42.3013 269.745 38.0777 272.721C33.854 275.696 29.6586 278.727 25.52 281.844C21.3814 284.961 17.3278 288.135 13.3592 291.365C9.39066 294.595 5.4788 297.91 1.70867 301.282M498.345 72.6783C493.158 71.8282 487.885 71.2332 482.613 70.9499C477.312 70.6665 472.011 70.6382 466.738 70.9499C461.466 71.2332 456.222 71.8282 451.091 72.7066C445.932 73.585 440.943 74.775 435.982 76.2484C431.021 77.7218 426.146 79.4502 421.412 81.4337C416.678 83.4171 412.057 85.6272 407.579 88.0356C403.128 90.4441 398.819 93.0792 394.737 95.8843C390.627 98.6894 386.744 101.665 383.059 104.81C379.373 107.955 375.915 111.242 372.712 114.67C369.509 118.099 366.532 121.669 363.839 125.352C361.146 129.036 358.709 132.918 356.384 136.799C354.088 140.681 351.877 144.62 349.638 148.445C347.398 152.298 345.102 156.039 342.579 159.637C340.085 163.236 337.364 166.664 334.302 169.838C331.241 173.011 327.754 175.958 324.04 178.395C320.327 180.831 316.387 182.872 312.277 184.515C308.166 186.158 303.943 187.462 299.606 188.453C295.297 189.445 290.903 190.125 286.538 190.55C282.172 190.975 277.835 191.145 273.583 191.117C269.331 191.089 264.937 190.834 260.629 190.55C256.348 190.267 252.096 189.899 247.844 189.502C243.592 189.105 239.368 188.68 235.116 188.312C230.864 187.915 226.612 187.575 222.275 187.292C217.967 187.008 213.601 186.838 209.179 186.81C204.757 186.782 200.25 186.895 195.658 187.207C191.066 187.518 186.388 188.085 181.796 188.793C177.204 189.502 172.612 190.38 168.02 191.4C163.427 192.42 158.807 193.582 154.215 194.914C149.622 196.217 145.03 197.691 140.438 199.277C135.874 200.864 131.31 202.592 126.775 204.434C122.239 206.276 117.732 208.231 113.282 210.328C108.831 212.396 104.381 214.635 100.186 216.816C95.9619 218.998 91.7382 221.265 87.4862 223.645C83.2342 226.025 78.9821 228.49 74.7018 231.04C70.4497 233.59 66.1694 236.254 61.9173 239.002C57.6653 241.751 53.4133 244.584 49.1896 247.531C44.9659 250.45 40.7706 253.481 36.6036 256.598C32.4366 259.715 28.3547 262.888 24.3011 266.175C20.2475 269.434 16.2789 272.806 12.3954 276.234C8.51191 279.663 4.68509 283.148 1 286.718M492.137 60.9478C486.95 59.8427 481.706 59.021 476.405 58.511C471.132 58.001 465.803 57.8026 460.53 57.8876C455.258 58.001 450.042 58.3976 444.883 59.1343C439.724 59.871 434.763 60.9194 429.802 62.2511C424.842 63.5829 419.994 65.2263 415.261 67.0964C410.527 68.9665 405.934 71.1199 401.512 73.4717C397.09 75.8234 392.838 78.4019 388.785 81.1503C384.731 83.8988 380.876 86.8739 377.247 89.9907C373.619 93.1075 370.246 96.3943 367.099 99.8228C363.981 103.251 361.09 106.821 358.51 110.505C355.931 114.188 353.606 118.099 351.395 122.009C349.212 125.919 347.143 129.857 345.017 133.739C342.891 137.593 340.708 141.39 338.327 145.017C335.918 148.643 333.31 152.072 330.333 155.245C327.357 158.419 323.927 161.366 320.27 163.774C316.614 166.211 312.73 168.166 308.648 169.781C304.595 171.396 300.371 172.614 296.09 173.521C291.81 174.428 287.445 175.023 283.136 175.335C278.827 175.646 274.49 175.731 270.267 175.561C266.043 175.42 261.677 175.051 257.425 174.626C253.173 174.201 248.95 173.719 244.754 173.181C240.559 172.671 236.364 172.104 232.168 171.594C227.973 171.084 223.749 170.603 219.469 170.206C215.217 169.809 210.908 169.526 206.515 169.384C202.149 169.243 197.699 169.271 193.135 169.498C188.571 169.724 183.95 170.206 179.415 170.858C174.879 171.509 170.316 172.331 165.78 173.294C161.216 174.258 156.681 175.42 152.117 176.695C147.581 177.97 143.046 179.415 138.51 181.001C134.003 182.588 129.496 184.317 125.017 186.158C120.539 188 116.116 190.012 111.723 192.109C107.329 194.205 102.964 196.472 98.8532 198.711C94.7146 200.921 90.576 203.244 86.409 205.681C82.242 208.118 78.075 210.639 73.908 213.303C69.7411 215.938 65.5457 218.686 61.4071 221.548C57.2401 224.41 53.1015 227.357 48.9628 230.389C44.8525 233.449 40.7423 236.594 36.6887 239.824C32.6351 243.054 28.6382 246.398 24.698 249.826C20.7577 253.255 16.8742 256.768 13.1041 260.367C9.30562 263.965 5.62053 267.649 2.04883 271.417M485.419 49.5006C480.26 48.1405 475.044 47.0921 469.772 46.3837C464.499 45.647 459.226 45.2504 453.982 45.1654C448.738 45.0804 443.522 45.3354 438.392 45.9021C433.261 46.4687 428.3 47.4038 423.396 48.6222C418.492 49.8406 413.645 51.3707 408.968 53.1558C404.29 54.9408 399.727 57.0092 395.333 59.276C390.967 61.5711 386.744 64.0929 382.747 66.7847C378.75 69.5048 374.98 72.4233 371.436 75.5117C367.893 78.6002 364.605 81.8587 361.543 85.2872C358.51 88.7157 355.732 92.2858 353.266 95.9693C350.8 99.6811 348.589 103.591 346.548 107.53C344.479 111.468 342.551 115.435 340.567 119.317C338.582 123.199 336.541 127.024 334.274 130.651C332.006 134.278 329.511 137.735 326.62 140.936C323.729 144.11 320.412 147.057 316.812 149.465C313.24 151.873 309.385 153.8 305.388 155.359C301.391 156.917 297.224 158.079 293.001 158.9C288.777 159.722 284.468 160.232 280.188 160.459C275.908 160.686 271.627 160.629 267.46 160.374C263.293 160.119 258.984 159.609 254.789 159.07C250.594 158.532 246.427 157.909 242.288 157.257C238.15 156.605 234.011 155.954 229.872 155.302C225.734 154.679 221.567 154.084 217.371 153.574C213.176 153.064 208.924 152.667 204.615 152.44C200.307 152.213 195.913 152.129 191.406 152.27C186.899 152.412 182.335 152.837 177.856 153.432C173.377 154.027 168.87 154.792 164.391 155.727C159.912 156.662 155.405 157.767 150.926 159.042C146.448 160.317 141.969 161.734 137.547 163.321C133.125 164.907 128.674 166.636 124.309 168.506C119.943 170.376 115.578 172.388 111.269 174.513C106.96 176.666 102.708 178.961 98.6832 181.228C94.6579 183.495 90.6043 185.875 86.5507 188.368C82.4971 190.862 78.4435 193.469 74.3616 196.189C70.308 198.909 66.2261 201.742 62.1725 204.689C58.1189 207.636 54.0936 210.696 50.0684 213.87C46.0715 217.043 42.0746 220.302 38.1627 223.702C34.2225 227.073 30.339 230.559 26.5405 234.157C22.7137 237.727 18.9719 241.411 15.3152 245.208C11.6584 248.976 8.08671 252.858 4.65674 256.797M477.595 38.2801C472.379 36.6367 467.05 35.3333 461.693 34.3699C456.335 33.4065 450.949 32.8115 445.62 32.5848C440.291 32.3581 434.99 32.4715 429.803 32.9531C424.615 33.4348 419.598 34.3132 414.637 35.5032C409.676 36.6933 404.801 38.2234 400.095 40.0368C395.389 41.8502 390.826 43.947 386.46 46.2987C382.095 48.6505 377.928 51.2573 374.016 54.0624C370.104 56.8675 366.391 59.9277 362.961 63.1295C359.531 66.3596 356.384 69.7598 353.521 73.33C350.658 76.9001 348.135 80.5836 345.867 84.5221C343.6 88.4606 341.644 92.5408 339.745 96.621C337.845 100.701 336.031 104.781 334.104 108.72C332.176 112.687 330.107 116.512 327.754 120.11C325.401 123.709 322.737 127.109 319.59 130.141C316.444 133.201 312.872 135.779 309.102 137.848C305.332 139.916 301.306 141.531 297.168 142.721C293.029 143.911 288.72 144.733 284.412 145.187C280.075 145.668 275.737 145.81 271.457 145.668C267.177 145.555 262.953 145.13 258.673 144.535C254.392 143.968 250.169 143.26 245.973 142.495C241.778 141.73 237.611 140.936 233.444 140.115C229.277 139.321 225.11 138.528 220.915 137.819C216.719 137.111 212.496 136.488 208.187 136.006C203.907 135.524 199.541 135.184 195.091 135.099C190.64 134.986 185.935 135.128 181.428 135.524C176.92 135.921 172.385 136.544 167.878 137.338C163.342 138.131 158.835 139.123 154.328 140.285C149.821 141.446 145.314 142.806 140.835 144.336C136.356 145.867 131.906 147.538 127.484 149.408C123.061 151.25 118.696 153.262 114.359 155.444C110.05 157.597 105.6 160.034 101.603 162.357C97.606 164.681 93.5807 167.117 89.5555 169.696C85.5302 172.274 81.505 174.966 77.4514 177.828C73.4261 180.661 69.3726 183.637 65.3757 186.725C61.3504 189.814 57.3535 193.044 53.3849 196.387C49.4164 199.731 45.4762 203.187 41.5927 206.786C37.7091 210.384 33.854 214.096 30.0838 217.893C26.3137 221.718 22.6286 225.657 19.0286 229.709C15.4285 233.76 11.9135 237.926 8.54026 242.176M468.241 28.363C463.11 26.4362 457.838 24.8778 452.565 23.7161C447.292 22.526 441.992 21.7044 436.719 21.2793C431.447 20.8543 426.231 20.7693 421.128 21.1093C415.998 21.421 411.094 22.1577 406.19 23.2061C401.286 24.2828 396.523 25.6712 391.874 27.3996C387.254 29.0997 382.775 31.1114 378.523 33.4065C374.271 35.6733 370.189 38.2234 366.391 41.0002C362.564 43.777 358.992 46.7521 355.704 49.9539C352.416 53.1557 349.383 56.5276 346.69 60.0977C343.968 63.6679 341.616 67.3231 339.518 71.2899C337.42 75.2284 335.634 79.3086 333.934 83.4171C332.233 87.4973 330.589 91.6058 328.831 95.5726C327.074 99.5395 325.203 103.393 322.992 107.02C320.781 110.647 318.286 114.018 315.253 117.05C312.248 120.082 308.79 122.661 305.133 124.672C301.476 126.712 297.565 128.242 293.483 129.376C289.429 130.509 285.234 131.218 280.982 131.586C276.758 131.954 272.478 131.983 268.282 131.728C264.087 131.473 259.948 130.934 255.781 130.226C251.586 129.518 247.447 128.667 243.365 127.789C239.283 126.882 235.201 125.947 231.148 125.012C227.094 124.077 223.012 123.142 218.93 122.32C214.848 121.47 210.71 120.734 206.514 120.11C202.319 119.515 198.067 119.062 193.702 118.864C189.336 118.665 184.744 118.722 180.35 119.034C175.928 119.345 171.535 119.884 167.112 120.62C162.69 121.357 158.268 122.292 153.874 123.426C149.481 124.559 145.087 125.862 140.722 127.364C136.356 128.866 132.019 130.538 127.739 132.408C123.458 134.249 119.206 136.289 115.011 138.443C110.816 140.596 106.507 143.09 102.652 145.442C98.7966 147.793 94.9414 150.258 91.0579 152.894C87.1744 155.529 83.2908 158.277 79.4357 161.196C75.5522 164.086 71.697 167.146 67.8418 170.319C63.9867 173.493 60.1598 176.808 56.333 180.265C52.5345 183.722 48.7644 187.292 45.051 191.004C41.3375 194.715 37.6808 198.569 34.0808 202.536C30.4807 206.503 26.9657 210.611 23.5641 214.833C20.1341 219.055 16.8175 223.39 13.6427 227.839M457.412 19.6926C452.253 17.4258 446.952 15.5841 441.651 14.139C436.322 12.6939 430.993 11.6455 425.692 11.0222C420.391 10.3988 415.09 10.2005 410.016 10.3988C404.942 10.6255 399.953 11.2772 395.049 12.2972C390.174 13.3173 385.383 14.734 380.791 16.4341C376.199 18.1625 371.777 20.2026 367.61 22.5544C363.414 24.8778 359.474 27.5129 355.789 30.3747C352.104 33.2365 348.702 36.3533 345.584 39.6685C342.494 42.9836 339.688 46.5254 337.25 50.2373C334.812 53.9491 332.715 57.8593 330.929 61.9678C329.143 66.0763 327.612 70.3265 326.081 74.52C324.551 78.7136 323.077 82.8787 321.376 86.8739C319.675 90.8691 317.776 94.6943 315.451 98.2078C313.127 101.721 310.321 105.008 307.061 107.728C303.829 110.448 300.229 112.573 296.402 114.188C292.575 115.804 288.522 116.937 284.383 117.645C280.216 118.354 275.964 118.665 271.712 118.609C267.46 118.58 263.237 118.184 259.126 117.532C255.016 116.88 250.764 115.945 246.625 114.954C242.487 113.962 238.433 112.857 234.379 111.752C230.326 110.647 226.301 109.513 222.247 108.437C218.193 107.36 214.111 106.34 210.001 105.461C205.863 104.583 201.696 103.846 197.415 103.336C193.135 102.826 188.769 102.543 184.291 102.571C179.783 102.6 175.39 102.94 170.968 103.478C166.574 104.016 162.152 104.781 157.758 105.773C153.364 106.765 148.999 107.955 144.633 109.343C140.296 110.732 135.959 112.347 131.679 114.132C127.399 115.917 123.175 117.9 119.008 120.082C114.841 122.236 110.731 124.587 106.705 127.081C102.68 129.574 99.0233 132.039 95.2249 134.731C91.4264 137.423 87.6279 140.256 83.8294 143.231C80.031 146.235 76.2325 149.38 72.4624 152.667C68.6922 155.982 64.9505 159.439 61.237 163.037C57.5236 166.636 53.8385 170.404 50.2101 174.315C46.5817 178.225 43.0383 182.276 39.5517 186.47C36.065 190.664 32.6634 195.027 29.3752 199.504C26.0869 203.981 22.8838 208.599 19.8223 213.36M445.478 12.4106C450.439 15.0174 455.116 17.9642 459.453 21.1376C463.79 24.3394 467.787 27.7679 471.416 31.4231C475.044 35.0499 478.219 38.8184 481.167 42.9553C484.087 47.0921 486.468 51.144 488.849 55.1675C491.23 59.191 493.469 63.2428 495.567 67.2664C497.693 71.2899 499.677 75.3134 501.548 79.3369C503.419 83.3604 505.205 87.3556 506.877 91.3791C508.55 95.3743 510.109 99.3694 511.583 103.365C513.057 107.36 514.418 111.327 515.722 115.322C516.997 119.289 518.216 123.284 519.322 127.251C520.427 131.218 521.476 135.184 522.412 139.151C523.375 143.118 524.254 147.085 525.048 151.052C525.842 155.019 526.579 158.985 527.231 162.952C527.883 166.919 528.478 170.914 528.988 174.881C529.498 178.876 529.952 182.871 530.349 186.867C530.746 190.862 531.057 194.885 531.312 198.937C531.568 202.961 531.738 207.041 531.851 211.093C531.964 215.145 532.021 219.253 531.993 223.39C531.964 227.498 531.879 231.635 531.709 235.829C531.539 239.994 531.312 244.188 531.001 248.409C530.689 252.631 530.32 256.882 529.838 261.188C529.385 265.467 528.846 269.802 528.223 274.166C527.599 278.529 526.89 282.921 526.097 287.37C525.303 291.818 524.424 296.295 523.432 300.8C522.44 305.305 521.363 309.867 520.172 314.457C518.982 319.048 517.706 323.694 516.289 328.37C514.9 333.045 513.369 337.748 511.725 342.509C510.081 347.269 508.323 352.057 506.452 356.874C504.553 361.691 502.54 366.536 500.358 371.41C498.062 376.425 495.709 381.299 493.299 386.031C490.89 390.762 488.395 395.324 485.872 399.773C483.35 404.193 480.742 408.5 478.134 412.665C475.526 416.83 472.833 420.854 470.112 424.764C467.39 428.674 464.612 432.443 461.834 436.098C459.028 439.753 456.193 443.295 453.302 446.723C450.411 450.152 447.519 453.467 444.571 456.697C441.623 459.927 438.618 463.044 435.614 466.048C432.58 469.079 429.519 471.998 426.429 474.831C423.311 477.665 420.165 480.413 416.99 483.048C413.787 485.712 410.555 488.262 407.295 490.755C404.007 493.249 400.747 495.601 397.402 497.896C394.085 500.191 390.684 502.401 387.226 504.526C383.767 506.651 380.224 508.719 376.624 510.675C373.024 512.63 369.367 514.5 365.625 516.256C361.883 518.013 358.085 519.657 354.23 521.187C350.346 522.717 346.406 524.105 342.409 525.352C338.384 526.599 334.302 527.704 330.163 528.639C325.996 529.574 321.773 530.339 317.464 530.905C313.155 531.472 308.79 531.84 304.339 531.954C299.889 532.067 295.41 531.982 290.96 531.586C286.481 531.189 281.917 530.537 277.325 529.545C272.733 528.554 268.112 527.279 263.52 525.663C258.928 524.048 254.364 522.093 249.914 519.798C245.463 517.475 241.126 514.811 236.987 511.695C232.849 508.606 228.909 505.093 225.308 501.154C221.227 496.536 217.853 491.492 214.99 486.335C212.127 481.178 209.689 475.88 207.223 470.723C204.757 465.538 202.291 460.494 199.428 455.762C196.593 451.03 193.333 446.667 189.818 442.898C186.303 439.13 182.561 435.815 178.593 432.896C174.624 429.978 170.486 427.399 166.234 425.132C161.982 422.866 157.56 420.854 153.109 419.069C148.659 417.284 144.123 415.697 139.559 414.224C135.024 412.778 130.432 411.447 125.896 410.2C121.332 408.953 116.825 407.792 112.346 406.63C107.868 405.468 103.445 404.335 99.1084 403.173C94.7713 402.011 90.5476 400.821 86.409 399.546C82.2987 398.271 78.3018 396.968 74.0214 395.296C69.7411 393.624 65.6591 391.754 61.7189 389.714C57.7787 387.674 54.0369 385.464 50.4652 383.055C46.8935 380.675 43.4919 378.097 40.2604 375.377C37.0288 372.657 33.9674 369.767 31.1043 366.706C28.2413 363.646 25.5484 360.444 23.0255 357.073C20.531 353.701 18.2065 350.187 16.0805 346.504C13.9545 342.82 12.0553 338.995 10.3545 335C8.65365 331.005 7.15126 326.868 5.904 322.561C4.65674 318.254 3.60791 313.806 2.84255 309.216C2.07718 304.597 1.53859 299.865 1.28347 294.935C1.02835 290.033 1.0567 284.961 1.39686 279.776C1.73702 274.591 2.389 269.349 3.26775 264.22C4.1465 259.063 5.33707 253.85 6.75441 248.551C8.2001 243.253 9.90091 237.897 11.8852 232.485C13.8695 227.073 16.1372 221.605 18.6884 216.136C21.2396 210.639 24.046 205.114 27.1358 199.589C30.0272 194.545 33.0603 189.643 36.2068 184.883C39.3533 180.123 42.6131 175.533 45.9864 171.113C49.3313 166.692 52.7897 162.414 56.2763 158.305C59.763 154.197 63.3347 150.287 66.9347 146.518C70.5348 142.75 74.1632 139.18 77.8483 135.751C81.505 132.323 85.1901 129.092 88.8752 126.032C92.5603 122.972 96.2737 120.082 99.9588 117.362C103.644 114.642 107.329 112.092 111.326 109.57C115.294 107.048 119.376 104.725 123.515 102.628C127.654 100.503 131.849 98.6044 136.101 96.876C140.353 95.1759 144.662 93.6742 148.97 92.4275C153.308 91.1807 157.645 90.1324 162.01 89.339C166.375 88.5456 170.741 88.0073 175.135 87.6956C179.5 87.4122 184.035 87.3556 188.429 87.6673C192.795 87.9789 197.075 88.6023 201.242 89.4524C205.409 90.3024 209.491 91.3224 213.545 92.4841C217.598 93.6459 221.595 94.9209 225.62 96.2243C229.617 97.5277 233.642 98.8594 237.696 100.134C241.75 101.41 245.832 102.6 249.999 103.648C254.166 104.696 258.247 105.546 262.443 106.028C266.638 106.51 270.89 106.68 275.114 106.425C279.309 106.17 283.476 105.49 287.416 104.328C291.357 103.138 295.127 101.466 298.557 99.1711C301.987 96.876 305.105 93.9009 307.628 90.529C310.151 87.1572 312.135 83.4454 313.807 79.4786C315.48 75.5117 316.869 71.3182 318.201 67.0397C319.533 62.7611 320.809 58.3976 322.283 54.1474C323.757 49.8972 325.486 45.7321 327.612 41.8219C329.738 37.9401 332.261 34.2565 335.124 30.7714C337.987 27.3146 341.19 24.0844 344.705 21.1093C348.22 18.1341 352.019 15.4424 356.101 13.0339C360.183 10.6255 364.491 8.52874 369.027 6.80033C373.562 5.07192 378.268 3.65515 383.144 2.69178C388.019 1.70007 393.008 1.13339 398.054 1.02005C403.128 0.906708 408.401 1.27507 413.73 2.09678C419.031 2.91848 424.417 4.19351 429.746 5.92192C435.018 7.622 440.319 9.80378 445.478 12.4106Z" stroke="#ECECEC" stroke-width="0.5" stroke-miterlimit="10"/>
</svg>
