<svg width="1208" height="560" viewBox="0 0 1208 560" fill="none" xmlns="http://www.w3.org/2000/svg">
<path d="M352.366 559.111L0 147.241L1.17677 146.991L699.867 0L700.119 0.141159L1208 288.434L1206.46 288.919L352.366 559.111ZM2.66524 148.121L352.871 557.464L1204.45 288.072L699.605 1.50133L2.66524 148.121Z" fill="#ECECEC" fill-opacity="0.2"/>
<path d="M1165.06 264.215L321.668 521.684L322.121 523.028L1165.51 265.559L1165.06 264.215Z" fill="#ECECEC" fill-opacity="0.2"/>
<path d="M1125.54 241.921L293.932 489.212L294.374 490.56L1125.99 243.269L1125.54 241.921Z" fill="#ECECEC" fill-opacity="0.2"/>
<path d="M267.392 459.377L266.68 457.122C267.62 456.854 361.726 429.9 443.808 406.25C505.928 388.352 571.855 373.663 630.024 360.701C648.482 356.588 665.917 352.705 681.641 349.058C722.622 339.56 762.654 325.154 813.332 306.912C841.185 296.887 872.757 285.521 909.036 273.378C1009.17 239.864 1086.77 220.13 1087.54 219.932L1088.18 222.205C1087.4 222.403 1009.89 242.113 909.852 275.595C873.598 287.728 842.041 299.089 814.202 309.109C763.44 327.38 723.349 341.81 682.22 351.345C666.486 354.993 649.046 358.875 630.582 362.993C572.448 375.946 506.56 390.625 444.52 408.505C362.438 432.155 268.332 459.108 267.392 459.377Z" fill="#ECECEC" fill-opacity="0.2"/>
<path d="M241.616 429.406L240.78 426.695C242.007 426.352 364.085 392.371 416.073 379.41C469.332 366.133 498.936 362.339 537.915 363.789C613.341 366.599 655.118 351.378 685.621 340.266C691.659 338.068 697.36 335.988 702.824 334.228C731.587 324.942 757.492 311.053 784.915 296.346C810.474 282.64 839.445 267.104 874.804 253.192C931.391 230.931 1050.07 199.473 1051.26 199.158L1052.06 201.878C1050.87 202.193 932.36 233.604 875.941 255.8C840.745 269.646 813.105 284.467 786.374 298.802C758.822 313.576 732.803 327.53 703.778 336.901C698.369 338.647 692.692 340.713 686.684 342.906C658.46 353.185 620.659 366.956 555.844 366.956C550.049 366.956 544.041 366.848 537.801 366.613C499.158 365.173 469.762 368.947 416.83 382.144C364.881 395.096 242.847 429.067 241.616 429.406Z" fill="#ECECEC" fill-opacity="0.2"/>
<path d="M1016.29 181.188C1007.7 183.292 999.123 185.504 990.573 187.773C982.019 190.032 973.495 192.385 964.985 194.79C947.98 199.633 931.055 204.744 914.366 210.448C912.27 211.14 910.198 211.889 908.126 212.632L901.906 214.863C899.844 215.635 897.802 216.44 895.75 217.23C893.698 218.026 891.636 218.793 889.628 219.668L883.566 222.219C881.559 223.099 879.576 224.041 877.578 224.949C873.568 226.737 869.652 228.709 865.716 230.63C863.733 231.571 861.815 232.62 859.866 233.623C857.928 234.644 855.97 235.623 854.056 236.682C850.229 238.805 846.372 240.871 842.614 243.106C835.034 247.46 827.642 252.114 820.339 256.887C805.742 266.455 791.684 276.757 777.686 287.163C770.679 292.364 763.708 297.588 756.607 302.723C749.452 307.829 742.025 312.55 734.44 317.021L730.168 319.52L722.944 323.525L717.084 326.599C716.105 327.102 715.136 327.634 714.142 328.119L711.166 329.578C703.269 333.536 695.14 337.061 686.947 340.421C670.476 346.959 653.422 352.267 635.908 355.75C633.717 356.174 631.507 356.508 629.307 356.889L624.352 357.722C623.803 357.816 623.25 357.868 622.696 357.939L609.429 359.581C604.994 360 600.549 360.358 596.108 360.753L594.442 360.899L592.771 360.989L582.753 361.501C564.927 362.222 547.067 361.77 529.306 360.386L522.65 359.807C520.435 359.614 518.215 359.435 516.005 359.191C511.579 358.734 507.149 358.296 502.738 357.765C493.902 356.772 485.096 355.637 476.294 354.64L469.693 353.91L463.092 353.303C461.989 353.19 460.892 353.124 459.794 353.058L456.496 352.856C454.296 352.677 452.105 352.686 449.91 352.639C448.812 352.63 447.719 352.578 446.611 352.602L443.289 352.658C441.073 352.682 438.863 352.748 436.653 352.818C434.438 352.87 432.232 352.973 430.022 353.077C427.812 353.162 425.607 353.303 423.396 353.444C414.57 354.004 405.774 354.903 397.022 356.117C388.27 357.327 379.562 358.866 370.899 360.626C362.236 362.372 353.622 364.382 345.043 366.509C342.902 367.05 340.751 367.563 338.61 368.124L319.336 373.131L216.447 399.704L215.948 397.939L318.624 370.707L337.893 365.62C340.034 365.05 342.19 364.523 344.341 363.972C352.945 361.803 361.583 359.751 370.296 357.962C379.003 356.16 387.765 354.578 396.586 353.322C405.408 352.056 414.288 351.147 423.189 350.568C425.414 350.427 427.639 350.277 429.864 350.192C432.089 350.084 434.319 349.98 436.544 349.924C438.769 349.848 440.999 349.783 443.224 349.754L446.567 349.693C447.68 349.67 448.812 349.717 449.934 349.726C452.179 349.768 454.434 349.764 456.659 349.938L460.011 350.14C461.129 350.206 462.247 350.272 463.354 350.385L470.02 350.987L476.655 351.712C485.496 352.7 494.298 353.825 503.109 354.804C507.51 355.327 511.921 355.755 516.326 356.207C518.527 356.447 520.737 356.616 522.942 356.809L529.558 357.374C547.215 358.711 564.937 359.167 582.614 358.48L592.553 357.981L594.209 357.896L595.861 357.755C600.267 357.369 604.672 357.021 609.078 356.607L622.241 354.988C622.79 354.913 623.339 354.865 623.882 354.771L628.768 353.952C630.938 353.576 633.119 353.256 635.28 352.837C652.561 349.415 669.433 344.182 685.755 337.725C693.874 334.402 701.934 330.924 709.761 327.003L712.708 325.558C713.692 325.083 714.652 324.556 715.626 324.057L721.44 321.017L727.176 317.845L728.61 317.049L730.025 316.226L732.853 314.574C740.374 310.15 747.741 305.476 754.807 300.445C761.863 295.357 768.87 290.142 775.886 284.965C789.924 274.592 804.061 264.29 818.761 254.708C826.119 249.931 833.566 245.271 841.21 240.908C844.998 238.673 848.884 236.597 852.741 234.475C854.669 233.416 856.647 232.437 858.6 231.411C860.563 230.408 862.502 229.359 864.494 228.413C868.465 226.488 872.411 224.516 876.451 222.727C878.463 221.819 880.461 220.878 882.488 219.998L888.619 217.437C890.652 216.557 892.729 215.79 894.8 215.004C896.872 214.223 898.934 213.418 901.011 212.651L907.271 210.439C909.357 209.695 911.444 208.956 913.546 208.274C930.328 202.626 947.313 197.586 964.372 192.813C972.906 190.446 981.456 188.13 990.034 185.909C998.609 183.678 1007.2 181.509 1015.83 179.438L1016.29 181.188Z" fill="#ECECEC" fill-opacity="0.2"/>
<path d="M193.193 372.877L192.115 369.747C193 369.47 281.331 342.078 332.81 336.435C400.409 329.027 436.495 338.449 474.697 348.432C481.536 350.216 488.602 352.065 495.9 353.825L495.049 357.021C487.717 355.251 480.636 353.397 473.782 351.609C435.911 341.716 400.142 332.369 333.206 339.706C282.078 345.311 194.078 372.599 193.193 372.877Z" fill="#ECECEC" fill-opacity="0.2"/>
<path d="M665.437 347.335L664.814 346.055C665.274 345.853 711.507 325.257 756.765 279.826C801.331 235.091 825.882 210.453 876.367 192.682C925.477 175.4 982.143 160.951 982.707 160.805L983.087 162.17C982.524 162.316 925.922 176.746 876.881 194.009C826.717 211.663 802.256 236.221 757.843 280.8C712.382 326.434 665.902 347.133 665.437 347.335Z" fill="#ECECEC" fill-opacity="0.2"/>
<path d="M949.76 143.203C940.36 145.518 931.02 148.112 921.719 150.785C912.418 153.477 903.177 156.334 893.994 159.36C884.817 162.4 875.714 165.629 866.715 169.084C857.711 172.533 848.81 176.218 840.132 180.322C837.966 181.353 835.796 182.374 833.67 183.471C832.602 184.012 831.529 184.544 830.465 185.095L825.728 187.636L821.075 190.305C820.052 190.912 819.053 191.552 818.04 192.173C817.031 192.799 816.012 193.416 815.038 194.089L812.091 196.07C811.127 196.753 810.192 197.468 809.238 198.16L807.819 199.214L803.631 202.537C801.767 204.01 799.957 205.544 798.117 207.046C796.293 208.561 794.503 210.119 792.693 211.653L787.358 216.355L782.102 221.141C778.626 224.361 775.179 227.608 771.797 230.921C765.018 237.529 758.412 244.302 751.885 251.159C738.831 264.864 726.128 278.918 712.713 292.406C706.008 299.151 699.125 305.758 691.916 312.056C684.721 318.362 677.206 324.363 669.289 329.865C661.348 335.329 653.14 340.468 644.447 344.831C635.779 349.218 626.681 352.87 617.281 355.604C607.886 358.353 598.185 360.132 588.414 360.894C578.644 361.671 568.838 361.6 559.112 360.923L559.187 359.642C568.888 359.93 578.594 359.807 588.197 358.767L589.997 358.584C590.595 358.518 591.193 358.419 591.787 358.339L595.367 357.84C596.563 357.699 597.745 357.454 598.932 357.247L602.487 356.607C603.664 356.371 604.836 356.084 606.008 355.821C607.179 355.548 608.356 355.303 609.518 355.007L615.59 353.326C615.877 353.242 616.159 353.143 616.446 353.049C625.613 350.22 634.444 346.469 642.929 342.12C651.419 337.762 659.459 332.632 667.277 327.243C675.065 321.807 682.452 315.844 689.597 309.637C696.747 303.424 703.59 296.882 710.271 290.19C723.646 276.804 736.373 262.789 749.492 249.079C762.615 235.374 776.094 221.904 790.661 209.502C792.495 207.968 794.31 206.415 796.159 204.9C798.024 203.398 799.858 201.864 801.752 200.395L805.999 197.077L807.468 196.004C808.452 195.294 809.421 194.569 810.415 193.877L813.441 191.872C814.44 191.19 815.478 190.568 816.511 189.938C817.55 189.312 818.574 188.667 819.617 188.06L822.776 186.271L824.359 185.382L829.175 182.84C830.253 182.29 831.341 181.758 832.423 181.217C834.584 180.12 836.78 179.108 838.975 178.078C856.563 169.945 874.849 163.384 893.317 157.468C911.815 151.613 930.506 146.375 949.444 141.956L949.76 143.203Z" fill="#ECECEC" fill-opacity="0.2"/>
<path d="M461.52 348.422C460.966 348.201 405.516 326.288 370.617 319.252C339.935 313.068 296.61 309.524 170.156 345.999L169.152 342.845C224.883 326.768 268.327 317.233 301.97 313.689C335.411 310.168 355.798 312.893 371.334 316.023C406.545 323.121 462.291 345.156 462.85 345.377L461.52 348.422Z" fill="#ECECEC" fill-opacity="0.2"/>
<path d="M147.405 318.165C164.405 312.738 181.632 308.018 199.013 303.819C216.393 299.64 233.937 296.021 251.659 293.301C260.519 291.94 269.434 290.877 278.389 290.133C287.344 289.404 296.343 289.013 305.362 289.22L308.744 289.3C309.872 289.357 310.999 289.437 312.122 289.502L315.504 289.714L318.876 290.067C319.999 290.194 321.126 290.288 322.248 290.439L325.606 290.961C327.856 291.272 330.051 291.752 332.261 292.199C341.078 294.049 349.721 296.539 358.216 299.339C375.211 304.968 391.666 311.787 408.196 318.292C424.716 324.801 441.36 331.013 458.454 335.762C466.998 338.134 475.642 340.148 484.379 341.654C486.569 341.998 488.755 342.379 490.945 342.69L497.541 343.523L504.162 344.116C506.373 344.281 508.588 344.361 510.798 344.483C519.654 344.822 528.53 344.53 537.331 343.589L540.629 343.208L542.276 343.015C542.825 342.953 543.368 342.845 543.917 342.765L550.469 341.706L556.966 340.384C558.054 340.186 559.117 339.88 560.195 339.626L563.414 338.835C580.528 334.425 596.998 327.77 612.426 319.374C627.878 311.001 642.38 301.061 656.072 290.213C669.779 279.365 682.66 267.575 695.1 255.367C701.326 249.267 707.442 243.055 713.564 236.837L732.027 218.261C738.193 212.077 744.364 205.883 750.757 199.878L753.146 197.619C753.942 196.866 754.768 196.136 755.578 195.397C757.21 193.924 758.817 192.432 760.469 190.983L765.473 186.676C765.893 186.319 766.304 185.956 766.729 185.603L768.014 184.563L773.167 180.412C774.042 179.734 774.932 179.085 775.817 178.421L778.472 176.435C779.367 175.781 780.223 175.089 781.152 174.477L786.636 170.721C787.536 170.081 788.485 169.498 789.43 168.914L795.086 165.394C796.041 164.824 797.025 164.302 797.994 163.751C799.942 162.673 801.87 161.563 803.834 160.513L809.826 157.539C811.804 156.508 813.866 155.642 815.913 154.752C824.047 151.063 832.562 148.22 841.087 145.514C849.636 142.972 858.19 140.44 866.774 138.007C875.358 135.564 883.957 133.178 892.595 130.905C896.912 129.766 901.243 128.679 905.585 127.61C909.926 126.551 914.267 125.521 918.668 124.622L918.866 125.521C914.529 126.476 910.193 127.573 905.881 128.688C901.57 129.818 897.263 130.971 892.971 132.171C884.377 134.543 875.813 137.014 867.269 139.551C858.724 142.073 850.209 144.699 841.695 147.335C833.274 150.112 824.888 153.016 816.892 156.753C812.818 158.466 808.951 160.574 805.01 162.527C803.082 163.577 801.183 164.688 799.27 165.765C798.32 166.316 797.351 166.834 796.417 167.403L790.859 170.914C789.929 171.498 789 172.077 788.114 172.717L782.725 176.463C781.815 177.07 780.969 177.762 780.089 178.412L777.478 180.393C776.613 181.057 775.733 181.706 774.872 182.379L768.543 187.556C768.123 187.905 767.718 188.272 767.307 188.625L762.382 192.926C760.756 194.376 759.168 195.873 757.561 197.341C756.765 198.08 755.954 198.809 755.163 199.562L752.809 201.826C746.5 207.836 740.398 214.054 734.282 220.271L715.967 238.965C709.875 245.21 703.763 251.451 697.538 257.602C685.092 269.905 672.167 281.822 658.371 292.821C644.581 303.81 629.91 313.877 614.24 322.391C606.413 326.66 598.319 330.496 589.992 333.823C581.67 337.155 573.116 339.993 564.388 342.238L561.105 343.043C560.007 343.302 558.924 343.608 557.812 343.81L551.176 345.151L544.486 346.224C543.927 346.304 543.374 346.417 542.81 346.474L537.756 347.053C528.762 348.008 519.694 348.295 510.66 347.938C508.405 347.806 506.145 347.726 503.89 347.552L497.141 346.94L490.426 346.083C488.191 345.763 485.971 345.377 483.746 345.024C474.865 343.485 466.098 341.429 457.46 338.991C440.179 334.129 423.446 327.803 406.916 321.229L382.158 311.331C373.9 308.069 365.613 304.907 357.212 302.073C348.816 299.24 340.301 296.727 331.643 294.854L328.395 294.171C327.312 293.917 326.219 293.79 325.131 293.597L321.863 293.065C320.77 292.915 319.667 292.811 318.564 292.679L315.266 292.312L311.949 292.086C310.841 292.016 309.738 291.926 308.631 291.865L305.298 291.762C296.413 291.498 287.497 291.823 278.607 292.491C269.716 293.164 260.851 294.181 252.019 295.447C234.352 297.965 216.818 301.381 199.428 305.363C190.735 307.359 182.077 309.505 173.454 311.778C164.83 314.042 156.236 316.428 147.727 319.026L147.405 318.165Z" fill="#ECECEC" fill-opacity="0.2"/>
<path d="M126.964 294.129C143.38 288.98 160.004 284.547 176.766 280.598C185.148 278.631 193.569 276.804 202.029 275.134C210.489 273.463 218.984 271.952 227.524 270.667C244.602 268.13 261.845 266.314 279.205 266.177C287.878 266.111 296.581 266.46 305.229 267.537C309.565 268.079 313.833 268.813 318.085 269.632C322.337 270.456 326.565 271.373 330.768 272.38C339.174 274.39 347.481 276.729 355.724 279.219C363.962 281.713 372.13 284.363 380.304 286.966C396.636 292.166 413.013 297.188 429.79 300.44C438.171 302.069 446.631 303.292 455.136 303.946C463.641 304.61 472.19 304.718 480.705 304.257C489.225 303.815 497.7 302.732 506.076 301.16C507.124 300.958 508.177 300.807 509.221 300.567L518.625 298.506C520.712 298.031 522.818 297.64 524.87 297.061L531.071 295.442C547.586 291.084 563.736 285.488 579.193 278.475C594.65 271.467 609.424 263.109 623.363 253.602C637.327 244.118 650.569 233.67 663.623 222.977C676.701 212.293 689.557 201.398 702.527 190.554C709.01 185.132 715.556 179.772 722.187 174.496L727.206 170.59L729.718 168.641L732.274 166.735C733.985 165.469 735.666 164.179 737.397 162.937L742.604 159.238C743.464 158.612 744.349 158.019 745.239 157.43L750.56 153.872C751.46 153.293 752.374 152.738 753.279 152.173L756.004 150.479C756.914 149.919 757.808 149.335 758.753 148.822L764.345 145.641C766.229 144.615 768.163 143.664 770.071 142.676C771.96 141.654 773.953 140.812 775.916 139.918L778.863 138.586C779.852 138.158 780.875 137.795 781.879 137.395L784.905 136.223L786.418 135.64L787.941 135.117C796.056 132.274 804.259 129.7 812.467 127.159C820.68 124.626 828.932 122.231 837.195 119.868C853.725 115.157 870.329 110.705 887.008 106.488L887.398 107.862C879.106 110.074 870.824 112.366 862.566 114.696C854.304 117.026 846.046 119.379 837.823 121.821C829.6 124.269 821.387 126.74 813.223 129.347C805.065 131.964 796.916 134.614 788.881 137.522L787.373 138.059L782.937 139.809C781.958 140.205 780.959 140.567 779.99 140.991L777.107 142.318C775.189 143.212 773.241 144.045 771.387 145.062C769.518 146.05 767.624 146.992 765.774 148.013L760.286 151.185C759.361 151.698 758.481 152.277 757.586 152.837L754.906 154.526C754.016 155.091 753.116 155.647 752.231 156.221L746.99 159.769C746.115 160.358 745.244 160.951 744.394 161.577L739.261 165.271C737.555 166.509 735.894 167.803 734.208 169.069L731.686 170.976L729.199 172.929L724.234 176.844C717.673 182.134 711.185 187.519 704.747 192.969L685.448 209.361C679.015 214.83 672.493 220.224 665.986 225.608C652.947 236.367 639.646 246.937 625.564 256.567L624.253 257.48L620.228 260.106C618.438 261.269 616.658 262.45 614.853 263.589L609.355 266.902C607.521 268.003 605.706 269.133 603.812 270.145L598.185 273.256C597.241 273.764 596.321 274.315 595.357 274.79L586.718 279.125C585.769 279.624 584.785 280.061 583.801 280.499L580.859 281.826C565.189 288.952 548.827 294.647 532.119 299.071C527.936 300.153 523.768 301.311 519.526 302.163L510.017 304.234C508.964 304.474 507.881 304.629 506.818 304.836C498.278 306.427 489.62 307.523 480.918 307.971C472.22 308.436 463.483 308.314 454.805 307.627C446.127 306.94 437.503 305.707 428.999 304.012C411.969 300.652 395.459 295.527 379.122 290.265C362.78 285.008 346.531 279.595 329.917 275.515C325.769 274.489 321.596 273.557 317.403 272.719C313.21 271.882 308.997 271.133 304.784 270.583C296.338 269.477 287.774 269.077 279.21 269.091C262.067 269.114 244.924 270.818 227.924 273.223C219.419 274.414 210.939 275.83 202.499 277.407C194.053 278.984 185.642 280.72 177.261 282.593C168.88 284.471 160.533 286.49 152.221 288.632C143.909 290.768 135.622 293.023 127.424 295.484L126.964 294.129Z" fill="#ECECEC" fill-opacity="0.2"/>
<path d="M858.798 91.4555C850.704 93.2251 842.639 95.136 834.599 97.1362C830.574 98.1104 826.569 99.16 822.554 100.177L813.55 102.553L810.558 103.377C794.597 107.749 778.739 112.498 763.164 117.929C761.206 118.583 759.287 119.327 757.344 120.019L751.539 122.137L745.798 124.405C743.889 125.172 741.956 125.883 740.087 126.73C736.334 128.382 732.527 129.945 728.872 131.761C725.194 133.545 721.574 135.451 717.994 137.419C710.834 141.372 703.838 145.613 696.915 149.961C689.993 154.315 683.144 158.786 676.311 163.29C649.036 181.353 621.811 199.713 592.766 215.409C585.507 219.325 578.144 223.08 570.624 226.554C563.108 230.027 555.498 233.34 547.7 236.23C545.772 236.997 543.794 237.666 541.836 238.358C539.873 239.045 537.915 239.755 535.922 240.363C533.934 240.988 531.956 241.643 529.959 242.24L523.931 243.944C522.927 244.241 521.919 244.49 520.915 244.744L511.851 247.046C509.844 247.578 507.812 248.029 505.784 248.5L499.702 249.902C498.689 250.128 497.68 250.383 496.656 250.59L487.474 252.477C485.442 252.919 483.385 253.272 481.333 253.635L473.639 255.004L462.805 256.619C460.733 256.887 458.657 257.117 456.585 257.367L453.475 257.734C452.436 257.861 451.403 257.983 450.359 258.059C433.721 259.654 416.914 260.003 400.226 258.788C383.542 257.532 367.012 254.915 350.73 251.474C334.491 248.039 318.327 244.499 301.896 242.72C285.475 240.904 268.876 240.951 252.361 242.132C248.237 242.495 244.118 242.899 239.994 243.281L236.904 243.572L221.501 245.582C220.987 245.653 220.473 245.709 219.963 245.789L218.43 246.039L215.365 246.542L201.564 248.792L200.036 249.084L181.716 252.566C180.698 252.759 179.689 252.995 178.675 253.211L166.521 255.828C162.472 256.703 158.412 257.541 154.387 258.534L136.245 262.836C135.236 263.076 134.228 263.306 133.224 263.561L106.117 270.441L105.836 269.505L129.842 263.019L132.843 262.215C133.847 261.946 134.856 261.711 135.859 261.457L153.972 256.943C157.987 255.903 162.041 255.023 166.091 254.096L178.235 251.333C179.249 251.107 180.257 250.863 181.276 250.655L199.601 246.956L201.129 246.646L202.667 246.377L219.577 243.478C220.092 243.393 220.606 243.332 221.125 243.257L233.497 241.544L236.592 241.12L239.702 240.805C243.851 240.391 247.999 239.953 252.148 239.558C268.777 238.254 285.584 238.085 302.232 239.807C310.539 240.72 318.827 241.869 327.01 243.431C329.057 243.817 331.114 244.156 333.151 244.58L339.263 245.817C343.342 246.636 347.392 247.502 351.456 248.34C367.65 251.7 384.012 254.228 400.498 255.409C416.978 256.539 433.548 256.214 449.994 254.604C451.022 254.529 452.051 254.402 453.074 254.279L456.15 253.912C458.202 253.663 460.254 253.432 462.301 253.169L473.026 251.554L480.651 250.185C482.683 249.822 484.72 249.469 486.737 249.027L495.845 247.145C496.859 246.937 497.858 246.683 498.867 246.457L504.904 245.064C506.917 244.598 508.934 244.151 510.932 243.629L519.946 241.351C520.949 241.097 521.953 240.852 522.937 240.56L528.871 238.889C530.839 238.301 532.787 237.656 534.75 237.045C536.718 236.451 538.646 235.75 540.585 235.072C542.523 234.39 544.466 233.736 546.375 232.978C554.079 230.135 561.609 226.864 569.051 223.438C576.503 220.017 583.796 216.28 591.025 212.43C598.259 208.585 605.37 204.523 612.411 200.358C619.462 196.202 626.424 191.905 633.342 187.537C640.264 183.175 647.132 178.732 653.985 174.256L674.57 160.843C681.443 156.381 688.346 151.947 695.333 147.627C702.32 143.306 709.39 139.094 716.649 135.155C720.284 133.192 723.952 131.291 727.701 129.507C731.434 127.686 735.276 126.137 739.083 124.499C740.977 123.657 742.93 122.956 744.859 122.198L750.659 119.958L759.44 116.833C760.414 116.48 761.393 116.136 762.382 115.825C778.102 110.55 794.058 105.975 810.108 101.781C826.159 97.588 842.323 93.8135 858.6 90.4954L858.798 91.4555Z" fill="#ECECEC" fill-opacity="0.2"/>
<path d="M87.5601 248.114C103.111 244.029 118.711 240.137 134.361 236.4C150.006 232.658 165.691 229.067 181.434 225.693C197.183 222.342 212.986 219.202 228.908 216.572L240.879 214.741L249.908 213.606C250.912 213.479 251.91 213.343 252.924 213.263C261.009 212.449 269.103 212.124 277.188 211.973C293.362 211.696 309.496 212.072 325.616 212.416C341.735 212.764 357.84 213.075 373.94 212.995C381.99 212.971 390.035 212.802 398.07 212.552C406.11 212.284 414.135 211.846 422.15 211.281C430.156 210.656 438.156 209.907 446.112 208.895C448.105 208.66 450.083 208.349 452.07 208.081L455.047 207.662C456.036 207.516 457.025 207.342 458.014 207.182C459.987 206.853 461.97 206.542 463.937 206.199L469.837 205.078C471.809 204.73 473.753 204.264 475.706 203.85C477.659 203.422 479.617 203.017 481.55 202.518L487.365 201.087L493.126 199.478C495.054 198.974 496.948 198.329 498.862 197.736L504.583 195.929C508.39 194.71 512.232 193.576 515.98 192.192L527.284 188.211L528.693 187.707L544.046 181.753L555.073 177.108C556.907 176.327 558.761 175.583 560.566 174.741L571.464 169.818C573.289 169.018 575.069 168.123 576.874 167.272L582.263 164.692C584.058 163.826 585.868 162.993 587.643 162.094L592.988 159.421C596.553 157.637 600.118 155.868 603.649 154.023C617.83 146.761 631.843 139.174 646.059 131.889C660.27 124.603 674.669 117.548 689.617 111.604C693.31 110.022 697.143 108.756 700.925 107.377C704.703 105.965 708.545 104.798 712.367 103.551C720.022 101.099 727.725 98.7929 735.449 96.562C750.911 92.138 766.482 88.0951 782.121 84.3112C789.934 82.4051 797.776 80.5978 805.623 78.8187C813.48 77.0679 821.342 75.3784 829.244 73.7923L829.481 74.8559C821.629 76.5502 813.792 78.3528 805.974 80.2118C798.157 82.0709 790.344 83.9582 782.562 85.9443C766.991 89.8883 751.489 94.0911 736.116 98.6611C728.427 100.939 720.763 103.288 713.153 105.777C709.356 107.043 705.524 108.234 701.805 109.655C698.067 111.044 694.285 112.319 690.635 113.915C675.861 119.901 661.59 127.003 647.473 134.364L636.902 139.937L626.35 145.551L615.773 151.143C612.248 153.011 608.693 154.828 605.152 156.673C601.622 158.532 598.042 160.315 594.472 162.109L589.117 164.801C587.336 165.704 585.517 166.547 583.717 167.422L578.308 170.025C576.498 170.881 574.713 171.78 572.883 172.595L561.941 177.565C560.126 178.416 558.262 179.165 556.422 179.955L545.342 184.652L531.314 190.135L529.909 190.681L528.49 191.19L517.122 195.223C513.354 196.621 509.493 197.774 505.661 199.007L499.905 200.838C497.982 201.44 496.083 202.09 494.125 202.607L488.285 204.25L482.396 205.714C480.438 206.227 478.455 206.627 476.477 207.055C474.499 207.469 472.527 207.94 470.534 208.288L464.565 209.408C462.573 209.752 460.57 210.062 458.578 210.387C457.579 210.547 456.58 210.717 455.581 210.863L452.575 211.281C450.567 211.55 448.57 211.86 446.562 212.091C438.532 213.098 430.477 213.832 422.412 214.449C414.343 215 406.268 215.423 398.193 215.677C390.114 215.913 382.039 216.068 373.96 216.077C357.805 216.124 341.671 215.781 325.546 215.4C309.427 215.051 293.317 214.538 277.237 214.722C269.202 214.825 261.172 215.098 253.211 215.851C252.217 215.927 251.218 216.054 250.224 216.171L241.26 217.244L229.338 218.991C213.466 221.509 197.673 224.572 181.919 227.782C150.407 234.211 119.077 241.497 87.8616 249.164L87.5601 248.114Z" fill="#ECECEC" fill-opacity="0.2"/>
<path d="M802.019 59.2447C771.243 65.8054 740.552 72.7804 710.097 80.5366C694.868 84.4006 679.673 88.4152 664.646 92.9004C662.757 93.4369 660.893 94.03 659.019 94.6088L650.603 97.2209L647.824 98.1575L642.262 100.026L639.483 100.963L631.23 103.989C629.391 104.643 627.581 105.382 625.761 106.093L620.312 108.239C605.834 114.098 591.643 120.631 577.319 126.947C563.004 133.282 548.506 139.344 533.712 144.676C518.922 150.027 503.861 154.687 488.661 158.838L477.229 161.84C476.28 162.099 475.32 162.33 474.361 162.551L459.982 165.963C458.063 166.41 456.125 166.782 454.197 167.196L442.611 169.625C427.1 172.58 411.495 175.075 395.8 176.953C380.101 178.765 364.337 180.017 348.574 180.93C332.81 181.861 317.047 182.469 301.333 183.48L295.443 183.862L283.685 184.808L277.826 185.41L271.966 186.022L266.131 186.794C264.188 187.062 262.235 187.288 260.297 187.585L254.497 188.554C252.563 188.883 250.625 189.18 248.697 189.538L237.106 191.75L231.321 192.903C223.602 194.423 215.899 196.023 208.195 197.619C192.787 200.828 177.414 204.175 162.037 207.521C131.286 214.209 100.589 221.16 69.9126 228.149L69.6555 227.161C84.9444 223.448 100.248 219.81 115.572 216.223C130.89 212.637 146.219 209.079 161.567 205.596C176.915 202.118 192.283 198.715 207.681 195.407C215.379 193.769 223.078 192.122 230.802 190.554L236.587 189.368L248.187 187.086C250.126 186.714 252.079 186.403 254.027 186.06C269.612 183.33 285.386 181.753 301.144 180.727C316.908 179.682 332.672 179.047 348.396 178.087C364.12 177.146 379.809 175.87 395.429 174.039C411.04 172.143 426.556 169.629 441.978 166.664L453.499 164.226C455.418 163.812 457.341 163.431 459.255 162.993L473.58 159.619C474.534 159.398 475.488 159.172 476.438 158.913L487.82 155.948C502.951 151.849 517.933 147.25 532.648 141.96C547.374 136.689 561.797 130.693 576.102 124.401C590.417 118.127 604.643 111.585 619.254 105.805L624.753 103.678C626.587 102.972 628.407 102.243 630.266 101.598L638.593 98.6046L641.396 97.6775L649.807 94.9101L658.278 92.3403C660.161 91.7708 662.04 91.1873 663.934 90.6601C679.045 86.2549 694.289 82.3251 709.568 78.5552C724.857 74.8136 740.201 71.2884 755.574 67.9045C770.952 64.5206 786.354 61.2826 801.816 58.2469L802.019 59.2447Z" fill="#ECECEC" fill-opacity="0.2"/>
<path d="M51.8001 206.401C111.873 191.689 172.143 177.692 232.735 164.984C240.32 163.436 247.896 161.859 255.491 160.344L272.589 156.993L289.737 153.863C293.555 153.19 297.382 152.578 301.204 151.933L306.94 150.978L324.147 148.267C339.441 145.848 354.725 143.377 369.984 140.803C385.243 138.223 400.483 135.545 415.663 132.618L427.036 130.378L438.384 128.034L449.707 125.587L460.996 123.003L472.235 120.25L477.827 118.786C479.691 118.292 481.56 117.83 483.41 117.294C490.846 115.251 498.194 113.049 505.572 110.738C520.317 106.154 535.096 101.664 549.915 97.2915C564.74 92.9333 579.583 88.6458 594.506 84.5982C609.424 80.5413 624.387 76.6255 639.438 73.0063C654.485 69.3541 669.64 66.2243 684.751 62.9063L730.128 53.1451L775.515 43.431L775.698 44.2076L730.45 54.477L685.191 64.6947C670.105 68.1069 654.97 71.3308 639.992 75.0724C625 78.7764 610.087 82.7862 595.213 86.9326C565.471 95.2301 535.887 104.055 506.447 113.284C499.099 115.604 491.662 117.854 484.206 119.915C482.347 120.457 480.468 120.927 478.599 121.426L472.981 122.909L461.702 125.7L450.379 128.316C446.597 129.14 442.814 129.992 439.026 130.787L427.644 133.117L416.236 135.343C401.017 138.247 385.753 140.901 370.474 143.457C355.195 146.008 339.896 148.45 324.592 150.841L307.375 153.519L301.654 154.461C297.842 155.096 294.024 155.698 290.217 156.362L273.099 159.459L256.005 162.706C248.415 164.179 240.83 165.714 233.244 167.215C202.924 173.366 172.692 179.932 142.495 186.624C112.288 193.289 82.1358 200.184 52.008 207.173L51.8001 206.401Z" fill="#ECECEC" fill-opacity="0.2"/>
<path d="M34.2664 187.015L33.7422 184.714C36.4371 184.154 304.724 128.528 429.107 100.732C570.871 69.0529 746.109 27.5091 747.865 27.095L748.463 29.3776C746.708 29.7918 571.454 71.3402 429.676 103.024C305.263 130.825 36.9612 186.46 34.2664 187.015Z" fill="#ECECEC" fill-opacity="0.2"/>
<path d="M722.77 12.9568L17.5436 165.933L18.0381 167.998L723.265 15.0217L722.77 12.9568Z" fill="#ECECEC" fill-opacity="0.2"/>
<path d="M52.4279 136.575L51.3049 137.498L415.182 538.759L416.305 537.836L52.4279 136.575Z" fill="#ECECEC" fill-opacity="0.2"/>
<path d="M101.828 126.293L100.735 127.247L478.042 519.064L479.136 518.109L101.828 126.293Z" fill="#ECECEC" fill-opacity="0.2"/>
<path d="M539.551 499.475L443.852 406.321C419.97 383.076 397.956 365.29 376.664 348.098C355.224 330.783 334.976 314.423 313.427 293.244C290.039 270.248 278.503 255.352 267.348 240.941C257.785 228.587 248.746 216.915 232.918 201.007C197.86 165.78 147.539 117.892 147.034 117.412L148.083 116.414C148.587 116.894 198.924 164.796 233.991 200.038C249.883 216.011 258.947 227.716 268.539 240.108C279.665 254.477 291.166 269.34 314.49 292.265C335.985 313.397 356.208 329.733 377.619 347.025C398.935 364.241 420.978 382.045 444.91 405.337L540.609 498.492L539.551 499.475Z" fill="#ECECEC" fill-opacity="0.2"/>
<path d="M197.401 106.13C206.133 113.764 214.672 121.581 223.123 129.493C225.244 131.465 227.336 133.46 229.432 135.456L232.577 138.449L235.692 141.466C237.769 143.48 239.846 145.495 241.883 147.542C243.925 149.589 245.992 151.609 248.009 153.679L254.066 159.878L260.025 166.17C261.024 167.21 261.998 168.279 262.967 169.352L265.879 172.557C267.847 174.675 269.711 176.877 271.6 179.061C272.54 180.158 273.499 181.24 274.424 182.346L277.143 185.716L279.858 189.091L282.419 192.587L283.695 194.338C284.12 194.922 284.555 195.501 284.946 196.103C285.747 197.294 286.563 198.48 287.344 199.68C288.926 202.071 290.484 204.481 292.022 206.895C298.173 216.548 304.146 226.271 310.401 235.821C313.521 240.598 316.705 245.337 319.969 250.02C323.242 254.694 326.605 259.311 330.071 263.857C336.998 272.945 344.301 281.765 352.178 290.114C356.099 294.303 360.243 298.299 364.505 302.177C368.758 306.069 373.252 309.712 377.9 313.176L381.416 315.736L385.036 318.165C386.227 318.993 387.478 319.741 388.714 320.508C389.956 321.266 391.172 322.066 392.448 322.782L400.028 327.173C402.559 328.632 405.131 330.02 407.682 331.446C410.224 332.886 412.825 334.228 415.401 335.611C417.972 337.004 420.588 338.322 423.189 339.664C428.395 342.337 433.656 344.93 438.903 347.537C441.518 348.86 444.154 350.145 446.75 351.51C448.05 352.187 449.361 352.851 450.651 353.538L454.513 355.642C455.809 356.329 457.064 357.082 458.33 357.816C459.591 358.565 460.872 359.275 462.113 360.047L465.821 362.386C466.44 362.782 467.063 363.158 467.671 363.563L469.48 364.796C479.167 371.329 488.201 378.671 496.983 386.239L503.52 391.971L509.987 397.769L522.883 409.404C531.467 417.174 540.006 424.982 548.536 432.809C565.615 448.434 582.619 464.13 599.52 479.93L598.764 480.659C565.11 448.933 531.205 417.423 496.523 386.728C487.771 379.151 478.707 371.879 469.041 365.398L467.236 364.175C466.628 363.775 466.005 363.398 465.391 363.008L461.688 360.687C460.447 359.925 459.171 359.214 457.915 358.475C456.654 357.746 455.398 357.002 454.103 356.32L450.251 354.235C448.96 353.548 447.65 352.893 446.349 352.22C443.758 350.87 441.118 349.59 438.497 348.281C433.241 345.688 427.97 343.113 422.744 340.45C420.133 339.113 417.512 337.8 414.931 336.416C412.345 335.037 409.734 333.701 407.183 332.27C404.621 330.848 402.04 329.465 399.499 328.01L391.889 323.638C386.84 320.673 381.861 317.567 377.124 314.15C367.596 307.387 358.686 299.824 350.473 291.625C342.215 283.464 334.684 274.654 327.683 265.509C324.207 260.92 320.834 256.261 317.556 251.545C314.292 246.824 311.108 242.052 307.993 237.247C301.748 227.641 295.794 217.885 289.698 208.241C288.175 205.831 286.632 203.431 285.069 201.05C284.298 199.854 283.492 198.678 282.701 197.492C282.31 196.894 281.89 196.324 281.475 195.75L280.224 194.028L277.727 190.573L272.421 183.852C271.516 182.746 270.577 181.664 269.652 180.567C267.798 178.383 265.968 176.181 264.035 174.053L261.167 170.839C260.213 169.766 259.258 168.693 258.274 167.648L252.405 161.327L246.427 155.091C242.407 150.964 238.367 146.85 234.268 142.789L231.207 139.729L228.117 136.698C226.055 134.679 224.003 132.651 221.916 130.651C217.768 126.636 213.589 122.645 209.377 118.687C205.164 114.729 200.946 110.775 196.674 106.878L197.401 106.13Z" fill="#ECECEC" fill-opacity="0.2"/>
<path d="M657.61 462.087L601.923 416.52L574.035 393.792L560.062 382.464L553.055 376.826C552.472 376.364 551.888 375.87 551.3 375.433L548.644 373.442C548.348 373.221 548.031 373.028 547.725 372.821L545.875 371.592C540.886 368.387 535.477 365.761 529.899 363.521C524.317 361.276 518.566 359.388 512.746 357.685C501.102 354.287 489.19 351.623 477.343 348.648C465.49 345.702 453.628 342.553 442.097 338.393C430.581 334.247 419.322 329.135 409.195 322.278C404.117 318.88 399.365 315.04 394.974 310.884C390.579 306.723 386.529 302.243 382.781 297.569C379.008 292.9 375.616 287.987 372.382 282.993C371.591 281.737 370.756 280.499 370.004 279.224L367.705 275.407C366.948 274.131 366.231 272.832 365.494 271.547L364.397 269.618L363.343 267.665L361.242 263.754L359.229 259.805L358.226 257.828L357.262 255.837L355.328 251.856C352.816 246.528 350.349 241.191 347.926 235.84C343.056 225.147 338.284 214.425 333.146 203.888C331.856 201.257 330.575 198.616 329.225 196.018C328.553 194.715 327.905 193.402 327.213 192.107L325.136 188.234L324.093 186.3L323.005 184.389L320.844 180.558L318.579 176.788C317.823 175.531 317.076 174.27 316.26 173.051L313.862 169.361C313.056 168.137 312.176 166.956 311.34 165.756C309.694 163.323 307.815 161.059 306.025 158.729C302.262 154.235 298.202 149.895 293.995 145.688C277.153 128.867 259.174 113.02 240.839 97.621L241.566 96.8067C250.971 104.285 260.163 111.99 269.227 119.835C278.271 127.704 287.196 135.705 295.695 144.139C299.973 148.328 304.111 152.653 308.028 157.228C309.877 159.581 311.82 161.878 313.516 164.325C314.381 165.54 315.286 166.73 316.122 167.963L318.594 171.681C319.435 172.91 320.206 174.181 320.983 175.442L323.316 179.235L325.542 183.08L326.644 185.01L327.702 186.959L329.814 190.86C330.511 192.164 331.174 193.482 331.856 194.79C333.226 197.407 334.526 200.052 335.831 202.697C341.038 213.277 345.859 223.998 350.759 234.668C353.202 240.005 355.679 245.323 358.201 250.618L360.134 254.562L361.098 256.534L364.11 262.393L367.225 268.196L368.308 270.107C369.035 271.378 369.742 272.663 370.483 273.924L372.743 277.694C373.485 278.96 374.306 280.174 375.082 281.417C378.257 286.344 381.584 291.183 385.268 295.762C392.586 304.94 401.086 313.284 410.956 319.901C420.79 326.589 431.802 331.625 443.145 335.734C454.508 339.852 466.262 343 478.074 345.966L495.836 350.39C501.759 351.896 507.678 353.449 513.547 355.204C519.417 356.96 525.236 358.904 530.918 361.229C536.594 363.549 542.128 366.274 547.27 369.615L549.179 370.896C549.495 371.112 549.821 371.314 550.128 371.545L551.043 372.237L552.867 373.625C553.485 374.087 554.039 374.567 554.628 375.037L561.604 380.723L575.509 392.14C584.77 399.76 593.987 407.427 603.199 415.098C621.618 430.451 640.022 445.813 658.347 461.269L657.61 462.087Z" fill="#ECECEC" fill-opacity="0.2"/>
<path d="M444.426 333.804C442.057 331.705 439.808 329.521 437.622 327.267C436.51 326.156 435.461 324.994 434.383 323.85C433.34 322.683 432.272 321.53 431.253 320.344C427.154 315.604 423.287 310.672 419.787 305.495C416.266 300.327 413.097 294.924 410.427 289.272L408.518 285.036C407.875 283.624 407.316 282.193 406.708 280.772C405.502 277.929 404.379 275.068 403.222 272.211C398.708 260.765 394.45 249.253 390.099 237.779C385.748 226.304 381.396 214.835 376.823 203.459C374.523 197.779 372.19 192.107 369.702 186.507L367.838 182.304L365.895 178.143C364.634 175.348 363.2 172.656 361.825 169.921C361.113 168.571 360.337 167.248 359.595 165.911L358.473 163.911C358.097 163.243 357.677 162.603 357.281 161.944L354.868 158.023C354.033 156.734 353.167 155.463 352.317 154.183L351.036 152.263C350.606 151.623 350.141 151.006 349.696 150.38L346.996 146.624C346.077 145.387 345.117 144.172 344.183 142.944C343.243 141.72 342.309 140.487 341.31 139.301C325.714 120.075 307.315 102.897 287.176 87.8833L287.843 87.0456C290.395 88.8999 292.991 90.7025 295.488 92.6274C296.744 93.5828 298.02 94.51 299.256 95.4889L302.959 98.4258C307.85 102.393 312.661 106.455 317.284 110.71C319.628 112.804 321.883 114.988 324.152 117.157C325.299 118.23 326.377 119.365 327.495 120.471C328.592 121.591 329.725 122.678 330.798 123.822C332.939 126.109 335.114 128.368 337.166 130.731C338.2 131.907 339.258 133.06 340.272 134.251L343.288 137.847C344.306 139.033 345.266 140.266 346.235 141.494C347.199 142.723 348.178 143.942 349.123 145.184L351.902 148.954C352.361 149.585 352.836 150.206 353.281 150.846L354.601 152.776C355.477 154.065 356.371 155.341 357.232 156.64L359.729 160.588C360.139 161.252 360.574 161.897 360.965 162.57L362.132 164.594C362.903 165.944 363.704 167.281 364.446 168.646C370.32 179.612 375.146 190.964 379.844 202.339C389.199 225.109 397.496 248.222 406.451 271.048C408.681 276.753 410.99 282.429 413.448 288.006C415.94 293.531 418.961 298.849 422.244 304.022C425.557 309.18 429.157 314.188 432.999 319.026C433.948 320.245 434.942 321.431 435.916 322.636C436.925 323.812 437.904 325.013 438.932 326.175C440.965 328.514 443.046 330.83 445.207 333.051L444.426 333.804Z" fill="#ECECEC" fill-opacity="0.2"/>
<path d="M333.502 77.5668C339.273 82.0708 344.935 86.6926 350.492 91.432C356.045 96.1761 361.543 100.981 366.889 105.947C368.243 107.17 369.549 108.441 370.879 109.688C372.204 110.94 373.534 112.192 374.82 113.482C376.115 114.762 377.426 116.033 378.711 117.327L382.504 121.261C387.488 126.575 392.309 132.058 396.576 137.993L398.129 140.252C398.643 141.005 399.103 141.786 399.598 142.553C400.072 143.325 400.577 144.088 401.027 144.869L402.386 147.217C404.191 150.352 405.877 153.543 407.509 156.753C410.763 163.177 413.764 169.695 416.657 176.251C422.417 189.378 427.698 202.664 432.935 215.955C438.146 229.255 443.214 242.593 448.476 255.851C451.101 262.483 453.786 269.086 456.54 275.651C459.304 282.212 462.192 288.726 465.342 295.089C466.954 298.242 468.566 301.41 470.43 304.389L471.117 305.518L471.844 306.653L473.303 308.916L476.235 313.435C480.146 319.449 484.127 325.413 488.513 331.074C489.63 332.472 490.698 333.912 491.875 335.263L493.605 337.315L495.415 339.301C496.602 340.647 497.907 341.885 499.158 343.17L499.633 343.65L500.132 344.107L501.131 345.015C501.804 345.613 502.442 346.248 503.144 346.817L505.235 348.535C505.586 348.818 505.923 349.119 506.289 349.387L507.381 350.192L509.567 351.811L511.846 353.308C513.34 354.348 514.962 355.2 516.529 356.141C517.305 356.626 518.141 357.007 518.952 357.435L521.399 358.692L521.073 359.351C514.205 356.522 507.708 352.766 501.893 348.196C496.068 343.626 491.005 338.247 486.357 332.632C485.19 331.23 484.092 329.78 482.965 328.354C481.887 326.895 480.784 325.45 479.721 323.982C477.6 321.045 475.528 318.08 473.496 315.096L470.479 310.606L468.239 307.232L467.508 306.069C465.515 302.977 463.824 299.777 462.133 296.576C458.859 290.138 455.947 283.572 453.124 276.983C450.295 270.399 447.65 263.754 445.029 257.103C439.798 243.803 434.729 230.46 429.602 217.146C424.474 203.836 419.292 190.55 413.67 177.447C410.867 170.895 407.964 164.382 404.819 157.99C401.67 151.608 398.292 145.316 394.327 139.433C390.272 133.592 385.599 128.1 380.749 122.763C375.873 117.435 370.765 112.296 365.559 107.241C360.352 102.186 354.982 97.2774 349.553 92.4298C344.104 87.6057 338.62 82.8003 332.998 78.1598L333.502 77.5668Z" fill="#ECECEC" fill-opacity="0.2"/>
<path d="M713.564 444.41L707.225 439.341L700.851 434.315C696.594 430.969 692.356 427.608 688.069 424.295L662.382 404.401C653.798 397.798 645.214 391.19 636.575 384.657C632.249 381.396 627.922 378.139 623.566 374.924C619.205 371.714 614.854 368.495 610.354 365.54C605.849 362.589 601.162 359.887 596.365 357.355C591.574 354.809 586.669 352.446 581.759 349.999C579.306 348.771 576.854 347.523 574.441 346.163C572.023 344.827 569.64 343.368 567.375 341.716C566.208 340.906 565.189 340.017 564.116 339.155L560.932 336.553L556.388 332.416L555.631 331.724L554.914 330.999C551.033 327.177 547.314 323.215 543.853 319.064L541.252 315.953C540.377 314.922 539.581 313.835 538.745 312.78L536.258 309.589C535.442 308.516 534.666 307.42 533.87 306.337C527.516 297.654 521.75 288.618 516.297 279.431C505.433 261.028 495.915 241.991 486.93 222.779C482.431 213.173 477.995 203.549 473.58 193.919C469.149 184.295 464.709 174.684 460.061 165.163C458.899 162.782 457.702 160.424 456.52 158.052L452.876 150.987C450.374 146.314 447.833 141.659 445.089 137.117C444.396 135.983 443.743 134.83 443.026 133.715L440.881 130.359C440.188 129.225 439.392 128.161 438.636 127.064L437.489 125.431L436.915 124.617L436.312 123.822L433.276 119.849L432.638 119.078L431.367 117.529C429.701 115.444 427.916 113.449 426.15 111.434C419.015 103.448 411.242 95.9784 403.108 88.8999C399.059 85.3419 394.876 81.9155 390.628 78.574C386.381 75.2324 382.049 71.9803 377.609 68.8787L378.311 67.9845C387.117 74.357 395.568 81.1578 403.731 88.2504C407.796 91.8132 411.796 95.4465 415.648 99.2211C417.601 101.085 419.49 103.005 421.384 104.925C422.343 105.871 423.238 106.879 424.173 107.848C425.087 108.836 426.037 109.792 426.917 110.808C428.702 112.818 430.512 114.814 432.203 116.899L434.136 119.219L437.222 123.196C440.416 127.502 443.442 131.931 446.211 136.487C451.808 145.575 456.867 154.945 461.737 164.386C471.483 183.273 480.561 202.443 489.956 221.443L493.497 228.559L497.072 235.656L500.676 242.735L504.34 249.78C509.245 259.165 514.343 268.451 519.718 277.581C525.093 286.707 530.814 295.644 537.015 304.248C543.21 312.851 549.965 321.087 557.471 328.632L558.163 329.347L558.89 330.03L563.266 334.119L566.327 336.689C567.35 337.536 568.354 338.435 569.417 339.184C571.514 340.751 573.763 342.172 576.097 343.499C578.416 344.841 580.815 346.102 583.232 347.349C588.068 349.844 592.983 352.277 597.794 354.922C602.605 357.562 607.328 360.381 611.867 363.459C616.401 366.547 620.718 369.846 625.035 373.131C629.346 376.421 633.623 379.748 637.896 383.076C646.435 389.745 654.945 396.442 663.435 403.163L707.927 438.518L714.31 443.535L713.564 444.41Z" fill="#ECECEC" fill-opacity="0.2"/>
<path d="M768.677 427.057C763.337 422.817 757.967 418.435 752.28 413.795C719.621 387.128 682.605 356.899 646.341 352.63L646.524 351.227C683.233 355.553 720.427 385.928 753.245 412.726C758.926 417.362 764.291 421.744 769.626 425.98L768.677 427.057Z" fill="#ECECEC" fill-opacity="0.2"/>
<path d="M823.558 409.719L818.623 406.034C790.859 385.297 766.877 367.389 745.19 355.449C721.579 342.45 703.234 338.134 687.461 341.862L687.105 340.492C703.274 336.67 721.965 341.033 745.932 354.23C767.708 366.217 791.729 384.154 819.538 404.923L824.472 408.608L823.558 409.719Z" fill="#ECECEC" fill-opacity="0.2"/>
<path d="M872.431 394.089C862.448 386.657 852.42 379.282 842.382 371.931C832.325 364.594 822.242 357.294 812.027 350.173C809.47 348.399 806.909 346.624 804.328 344.897L802.395 343.593L798.498 341.043C797.85 340.61 797.183 340.228 796.525 339.824C791.274 336.581 785.691 333.832 779.857 331.719C774.022 329.601 767.945 328.119 761.769 327.215C755.583 326.349 749.314 326.062 743.049 326.161L738.346 326.302L733.654 326.641C732.086 326.73 730.529 326.923 728.966 327.097C727.409 327.286 725.841 327.422 724.289 327.653C721.184 328.138 718.068 328.523 714.983 329.145L710.35 329.997C708.772 330.274 707.205 330.604 705.618 330.844C699.284 331.851 692.836 332.425 686.373 332.19C684.756 332.171 683.144 332.016 681.532 331.917C679.925 331.738 678.313 331.597 676.716 331.329C675.109 331.117 673.527 330.783 671.94 330.481C670.367 330.114 668.785 329.771 667.237 329.319C664.127 328.462 661.066 327.432 658.1 326.208C655.133 324.994 652.22 323.652 649.412 322.146C646.598 320.65 643.849 319.059 641.189 317.341C638.519 315.642 635.918 313.858 633.381 311.999C628.288 308.309 623.437 304.361 618.685 300.327C616.312 298.308 613.959 296.28 611.635 294.209L604.722 287.926C595.648 279.402 587.109 270.366 579.168 260.878C571.212 251.399 563.899 241.45 557.046 231.246C550.187 221.043 543.799 210.59 537.514 200.104C531.244 189.608 525.063 179.089 518.611 168.74C512.148 158.395 505.458 148.187 498.234 138.332C491.015 128.472 483.326 118.922 475.108 109.792C466.88 100.671 458.212 91.9026 449.094 83.5628C444.46 79.4682 439.872 75.3218 435.056 71.4155C430.349 67.3868 425.404 63.6263 420.543 59.7623L421.097 59.094L430.457 66.0831L431.392 66.7844L432.307 67.5091L435.956 70.4177C440.871 74.2441 445.563 78.3151 450.3 82.3438C459.626 90.5566 468.571 99.1694 476.967 108.262C485.378 117.341 493.284 126.848 500.652 136.717C508.024 146.582 514.917 156.767 521.459 167.126C528.01 177.484 534.275 187.985 540.605 198.423C546.924 208.867 553.292 219.268 560.121 229.378C566.945 239.487 574.213 249.309 582.046 258.703C589.878 268.098 598.304 277.04 607.264 285.478L614.087 291.7C616.386 293.757 618.725 295.781 621.074 297.786C625.781 301.781 630.558 305.693 635.527 309.335C638.004 311.166 640.541 312.922 643.132 314.588C645.713 316.268 648.373 317.821 651.083 319.28C653.788 320.748 656.586 322.052 659.43 323.229C662.273 324.419 665.195 325.413 668.167 326.246C669.645 326.683 671.154 327.017 672.657 327.375C674.175 327.667 675.683 327.996 677.221 328.203C678.744 328.467 680.291 328.603 681.829 328.787C683.377 328.891 684.919 329.046 686.472 329.069C692.678 329.309 698.918 328.829 705.089 327.893C706.631 327.672 708.164 327.366 709.707 327.102L714.414 326.274C717.539 325.676 720.714 325.304 723.868 324.838C725.446 324.617 727.043 324.49 728.63 324.316C730.217 324.151 731.805 323.968 733.402 323.892L738.188 323.586L742.989 323.478C749.393 323.431 755.816 323.775 762.165 324.716C768.504 325.695 774.754 327.276 780.742 329.507C786.73 331.729 792.441 334.604 797.786 337.969C798.454 338.393 799.141 338.793 799.789 339.231L801.737 340.539L803.685 341.852L805.609 343.189C808.18 344.963 810.716 346.775 813.258 348.587C823.389 355.859 833.368 363.299 843.322 370.773C853.275 378.247 863.15 385.815 872.98 393.425L872.431 394.089Z" fill="#ECECEC" fill-opacity="0.2"/>
<path d="M462.37 50.453C472.784 56.8585 482.782 63.8334 492.532 71.119C502.264 78.4234 511.738 86.0619 520.727 94.2135C525.222 98.2892 529.603 102.478 533.85 106.803C538.102 111.114 542.177 115.6 546.049 120.24C549.925 124.871 553.574 129.709 556.966 134.679L562.089 142.003C563.829 144.426 565.625 146.813 567.39 149.218C569.135 151.637 571.009 153.971 572.829 156.343L575.578 159.887C576.493 161.068 577.452 162.217 578.392 163.384C580.28 165.704 582.145 168.043 584.053 170.354L591.292 178.948L592.766 180.647L595.718 184.041C597.686 186.304 599.639 188.578 601.661 190.799L607.684 197.496L613.815 204.104C622.038 212.872 630.419 221.508 639.063 229.9C647.696 238.296 656.492 246.551 665.655 254.402C667.905 256.411 670.263 258.294 672.577 260.233C673.744 261.193 674.887 262.172 676.068 263.113L683.189 268.705L686.828 271.387C688.024 272.3 689.29 273.124 690.522 273.995L692.381 275.28L694.28 276.513C704.372 283.106 715.28 288.608 726.904 292.138C728.348 292.609 729.822 292.971 731.285 293.381C732.017 293.592 732.764 293.738 733.501 293.922C734.242 294.091 734.979 294.284 735.721 294.43C737.214 294.722 738.697 295.051 740.206 295.287C740.957 295.409 741.704 295.55 742.46 295.658L744.725 295.974C750.777 296.764 756.899 297.099 763.05 297.207C769.206 297.329 775.407 297.249 781.647 297.532C784.767 297.668 787.897 297.932 791.017 298.369L792.184 298.534L795.67 299.212C796.451 299.344 797.203 299.565 797.964 299.762L800.239 300.36C806.256 302.083 812.027 304.384 817.664 306.897C819.063 307.547 820.487 308.149 821.867 308.832L826.02 310.856C828.75 312.263 831.499 313.646 834.184 315.134C844.983 320.974 855.391 327.413 865.587 334.115C875.778 340.831 885.757 347.82 895.577 355.002C905.402 362.179 915.049 369.568 924.493 377.197L924.053 377.696C919.271 373.969 914.416 370.321 909.536 366.707C904.645 363.102 899.74 359.525 894.781 356.009C884.871 348.973 874.804 342.13 864.544 335.578C859.406 332.312 854.234 329.098 848.993 325.996L847.03 324.824L845.052 323.681L841.091 321.403C838.426 319.925 835.776 318.423 833.071 317.012C830.391 315.557 827.657 314.211 824.937 312.837L820.808 310.87C819.439 310.201 818.03 309.622 816.64 308.992C811.058 306.559 805.361 304.342 799.507 302.723L797.307 302.163C796.57 301.979 795.843 301.767 795.096 301.654L791.758 301.033L790.631 300.887C787.625 300.492 784.579 300.257 781.518 300.153C775.397 299.922 769.216 300.054 763 299.984C756.785 299.922 750.525 299.654 744.31 298.859L741.981 298.543C741.204 298.435 740.433 298.294 739.662 298.172C738.114 297.936 736.581 297.607 735.043 297.31C734.277 297.16 733.516 296.967 732.754 296.797C731.993 296.614 731.221 296.463 730.47 296.251C728.961 295.842 727.438 295.47 725.95 294.995C719.962 293.197 714.147 290.905 708.555 288.222C702.957 285.54 697.588 282.462 692.415 279.125L690.472 277.878L688.573 276.574C687.318 275.694 686.022 274.856 684.801 273.934L681.097 271.213L673.888 265.575C672.696 264.624 671.539 263.641 670.362 262.676C668.028 260.723 665.645 258.821 663.38 256.807C654.139 248.909 645.283 240.631 636.595 232.202C634.439 230.079 632.244 227.994 630.123 225.843L623.744 219.395C621.618 217.249 619.561 215.037 617.464 212.863L614.334 209.587C613.296 208.495 612.282 207.375 611.254 206.274L605.113 199.628L599.08 192.889C597.053 190.658 595.095 188.366 593.122 186.088L590.165 182.671L588.691 180.958L581.477 172.279C579.573 169.949 577.714 167.587 575.83 165.238C574.896 164.057 573.936 162.899 573.027 161.704L570.287 158.122C568.473 155.727 566.604 153.369 564.863 150.921C563.103 148.488 561.308 146.078 559.577 143.622L554.494 136.185C551.196 131.248 547.675 126.471 543.893 121.854C542.933 120.711 542.014 119.539 541.025 118.414L538.083 115.03L535.062 111.707C534.058 110.597 533.009 109.524 531.986 108.427C527.847 104.083 523.56 99.8659 519.16 95.7525C510.333 87.5539 501.102 79.727 491.549 72.272C486.772 68.5445 481.921 64.9018 476.992 61.3531C472.062 57.8139 467.087 54.3076 461.984 50.999L462.37 50.453Z" fill="#ECECEC" fill-opacity="0.2"/>
<path d="M974.33 361.883C954.418 348.446 934.461 335.065 914.361 321.887L899.246 312.06L891.67 307.175C889.144 305.547 886.612 303.932 884.071 302.332C881.529 300.727 878.992 299.113 876.436 297.541C873.884 295.96 871.333 294.369 868.752 292.835L864.89 290.514L860.979 288.326C860.321 287.968 859.683 287.577 859.016 287.248L857.008 286.241L855.001 285.229L853.997 284.725L852.974 284.259C842.105 279.172 830.554 275.543 818.821 272.479C812.956 270.921 807.052 269.472 801.153 267.933C795.259 266.375 789.365 264.789 783.541 262.958L781.35 262.285L779.174 261.565L774.828 260.12L770.521 258.567L768.37 257.786L761.987 255.268L757.789 253.465C754.97 252.303 752.246 250.952 749.482 249.672C738.505 244.419 728.002 238.301 717.94 231.623C707.882 224.93 698.28 217.659 688.984 210.062L685.513 207.196C684.361 206.236 683.184 205.3 682.066 204.302L675.292 198.4L673.601 196.922L671.949 195.407L665.353 189.335L663.707 187.815L662.095 186.262C657.808 182.106 653.466 178.002 649.313 173.724L643.023 167.366L636.838 160.927C628.625 152.314 620.55 143.598 612.421 134.938C596.172 117.628 579.573 100.619 561.372 85.196C543.275 69.6741 523.872 55.5548 503.861 42.2779L504.385 41.5437L511.98 46.4243C514.502 48.0622 517.068 49.6435 519.53 51.3661C524.495 54.7547 529.509 58.0868 534.35 61.6355L538.013 64.2617C539.235 65.1371 540.461 66.0078 541.648 66.9208L548.833 72.3474L550.627 73.7075L552.388 75.11L559.409 80.7389C560.581 81.6755 561.703 82.6639 562.856 83.6193C572.087 91.2626 580.918 99.3435 589.512 107.627C598.106 115.915 606.438 124.438 614.611 133.075C630.988 150.324 647.112 167.752 664.359 184.111C673.032 192.239 681.819 200.268 691.061 207.794C700.268 215.357 709.771 222.586 719.71 229.232C729.654 235.863 740.018 241.93 750.841 247.14C753.566 248.406 756.251 249.747 759.03 250.9L763.169 252.693L769.463 255.192L771.584 255.969L775.832 257.513L780.124 258.953L782.27 259.668L784.436 260.337C795.972 263.965 807.789 266.775 819.557 269.98C831.326 273.138 843.045 276.903 854.066 282.156L855.105 282.636L860.188 285.238C860.87 285.582 861.513 285.982 862.181 286.349L866.141 288.603L870.003 290.961C872.589 292.519 875.13 294.134 877.682 295.734C880.238 297.329 882.765 298.958 885.297 300.586C895.423 307.09 905.451 313.722 915.43 320.424C935.371 333.842 955.204 347.396 974.874 361.163L974.33 361.883Z" fill="#ECECEC" fill-opacity="0.2"/>
<path d="M546.172 32.8133L560.991 42.8474L575.741 52.9709C585.556 59.7435 595.367 66.5255 605.088 73.4204C614.809 80.3201 624.5 87.2526 634.044 94.4017C636.412 96.2137 638.815 97.9739 641.149 99.833C642.321 100.76 643.508 101.664 644.66 102.605L648.101 105.471C649.258 106.417 650.361 107.406 651.489 108.38L654.846 111.312L661.477 117.247C670.253 125.215 678.951 133.239 687.792 141.118C696.628 148.992 705.553 156.776 714.701 164.311C723.868 171.818 733.214 179.122 742.871 186.027C752.557 192.889 762.536 199.351 772.959 205.121C783.422 210.881 794.127 216.233 804.985 221.301C815.844 226.37 826.876 231.114 837.902 235.92C848.924 240.73 859.921 245.667 870.67 251.065L874.69 253.112C876.03 253.79 877.37 254.472 878.691 255.192C881.331 256.619 884.001 258.002 886.622 259.466L894.464 263.885L902.198 268.474C922.659 280.885 942.833 293.686 962.888 306.662C982.914 319.671 1002.88 332.769 1022.66 346.107L1022.23 346.686C1002.2 333.701 982.118 320.777 961.924 308.022C941.725 295.282 921.492 282.57 900.961 270.347L893.228 265.838L885.391 261.499C882.775 260.064 880.11 258.703 877.469 257.306C876.154 256.6 874.814 255.931 873.474 255.268L869.459 253.263C858.739 247.949 847.796 243.04 836.77 238.268C825.743 233.496 814.672 228.766 803.749 223.697C792.831 218.633 782.047 213.272 771.51 207.507C760.958 201.694 750.846 195.199 741.081 188.29C731.374 181.306 722.004 173.931 712.822 166.368C703.66 158.776 694.734 150.94 685.908 143.024C677.077 135.103 668.394 127.046 659.662 119.059L653.11 113.082L649.797 110.135C648.69 109.161 647.597 108.159 646.465 107.217L643.093 104.356C641.96 103.41 640.788 102.501 639.636 101.574C637.347 99.7106 634.964 97.9268 632.625 96.1055C623.185 88.8952 613.568 81.8779 603.926 74.8983C594.274 67.928 584.617 60.9625 574.906 54.0581L545.732 33.4063L546.172 32.8133Z" fill="#ECECEC" fill-opacity="0.2"/>
<path d="M585.458 24.497L645.436 63.8664L705.316 103.372C710.315 106.643 715.265 110.046 720.135 113.505C724.996 116.983 729.822 120.504 734.608 124.066C744.191 131.178 753.704 138.346 763.376 145.311C773.043 152.282 782.858 159.054 792.906 165.507C802.953 171.959 813.203 178.106 823.691 183.876C844.676 195.421 866.379 205.827 887.665 217C908.977 228.116 929.942 239.925 949.988 253.056L953.751 255.508L955.63 256.736L964.896 263.062L979.636 273.232C989.486 279.981 999.429 286.599 1009.42 293.159C1019.42 299.706 1029.5 306.14 1039.67 312.446C1044.75 315.6 1049.86 318.715 1054.99 321.803C1060.12 324.89 1065.28 327.94 1070.48 330.9L1070.03 331.63C1059.53 325.803 1049.21 319.699 1038.97 313.477C1028.74 307.25 1018.58 300.901 1008.51 294.435C998.445 287.954 988.462 281.36 978.558 274.663L963.749 264.563L954.473 258.308L952.593 257.094L943.174 251.037L933.626 245.172C932.36 244.382 931.064 243.633 929.774 242.871L922.04 238.32C920.75 237.567 919.44 236.837 918.139 236.094C907.765 230.121 897.184 224.469 886.548 218.92C865.281 207.803 843.559 197.44 822.46 185.885C801.331 174.355 781.296 161.106 761.947 147.095C752.266 140.097 742.752 132.896 733.199 125.775C728.427 122.207 723.621 118.687 718.785 115.209C713.925 111.754 709.054 108.352 704.07 105.048L644.457 65.1842L584.943 25.1842L585.458 24.497Z" fill="#ECECEC" fill-opacity="0.2"/>
<path d="M1116.93 316.969L979.577 233.439C960.574 221.885 940.543 210.321 912.824 194.319C895.117 184.097 875.046 172.514 849.824 157.812C802.889 130.458 776.015 112.249 756.394 98.9529C748.315 93.4793 741.333 88.7493 734.44 84.3629C708.51 67.8763 624.837 17.7056 623.991 17.1974L624.782 16.0019C625.623 16.5055 709.316 66.6855 735.261 83.1863C742.174 87.5821 749.165 92.3168 757.255 97.7998C776.86 111.081 803.71 129.276 850.6 156.602C875.823 171.305 895.888 182.887 913.595 193.105C941.325 209.112 961.361 220.675 980.378 232.239L1117.74 315.769L1116.93 316.969Z" fill="#ECECEC" fill-opacity="0.2"/>
<path d="M665.393 7.3645L664.609 8.56294L1161.05 302.891L1161.84 301.692L665.393 7.3645Z" fill="#ECECEC" fill-opacity="0.2"/>
</svg>
