<svg width="479" height="419" viewBox="0 0 479 419" fill="none" xmlns="http://www.w3.org/2000/svg">
<path d="M75.077 0.60522C75.0773 0.645441 75.0773 0.645472 75.0776 0.685693L1.10688 418.35C1.06803 418.551 0.867071 418.714 0.664502 418.675C0.461934 418.637 0.298531 418.437 0.337055 418.195L74.3078 0.530912C74.3466 0.329454 74.5476 0.166895 74.7906 0.20521C74.9527 0.24414 75.0754 0.404085 75.077 0.60522Z" fill="#ECECEC" fill-opacity="0.5"/>
<path d="M68.9229 35.4139L40.8976 411.515C40.8995 411.756 40.6986 411.919 40.4555 411.881C40.2128 411.883 40.0491 411.642 40.088 411.441L68.1136 35.3801C68.1116 35.1387 68.3126 34.9762 68.5556 35.0145C68.7582 35.0531 68.9213 35.2127 68.9229 35.4139Z" fill="#ECECEC" fill-opacity="0.5"/>
<path d="M80.6478 404.68C80.6494 404.882 80.4893 405.084 80.2466 405.086C80.0039 405.088 79.8408 404.928 79.8392 404.727L61.9197 70.2695C61.9181 70.0683 62.0782 69.8659 62.3209 69.864C62.5636 69.862 62.7267 70.0217 62.7283 70.2228L80.6478 404.68Z" fill="#ECECEC" fill-opacity="0.5"/>
<path d="M120.439 397.886C120.44 398.087 120.32 398.249 120.118 398.291C119.917 398.332 119.673 398.214 119.631 397.973L55.806 105.078C55.7636 104.837 55.8834 104.635 56.1258 104.592C56.3277 104.551 56.5714 104.669 56.6137 104.91L120.438 397.805C120.439 397.845 120.439 397.886 120.439 397.886Z" fill="#ECECEC" fill-opacity="0.5"/>
<path d="M160.19 391.131C160.191 391.292 160.111 391.454 159.95 391.495C159.748 391.578 159.505 391.499 159.423 391.299L49.6529 140.007C49.5704 139.807 49.6494 139.565 49.851 139.483C50.0526 139.4 50.2959 139.479 50.3784 139.679L160.148 390.971C160.189 391.011 160.189 391.051 160.19 391.131Z" fill="#ECECEC" fill-opacity="0.5"/>
<path d="M199.981 384.337C199.982 384.457 199.942 384.578 199.822 384.66C199.661 384.782 199.377 384.744 199.255 384.584L43.5399 174.896C43.4173 174.736 43.4555 174.454 43.6163 174.332C43.7771 174.21 44.0606 174.248 44.1832 174.408L199.898 384.096C199.939 384.176 199.98 384.256 199.981 384.337Z" fill="#ECECEC" fill-opacity="0.5"/>
<path d="M239.731 377.542C239.732 377.623 239.693 377.744 239.652 377.784C239.492 377.947 239.25 377.989 239.086 377.829L37.467 209.744C37.304 209.584 37.2616 209.343 37.4221 209.181C37.5826 209.019 37.825 208.977 37.9881 209.136L239.607 377.222C239.689 377.301 239.73 377.422 239.731 377.542Z" fill="#ECECEC" fill-opacity="0.5"/>
<path d="M279.522 370.748C279.523 370.828 279.523 370.868 279.484 370.949C279.364 371.151 279.122 371.234 278.959 371.114L31.3942 244.592C31.191 244.473 31.1085 244.273 31.2279 244.03C31.3476 243.828 31.5897 243.746 31.7524 243.865L279.277 370.388C279.439 370.467 279.521 370.627 279.522 370.748Z" fill="#ECECEC" fill-opacity="0.5"/>
<path d="M319.273 363.953C319.273 363.993 319.274 364.034 319.274 364.074C319.195 364.276 318.993 364.398 318.791 364.359L25.2809 279.441C25.078 279.362 24.9547 279.122 24.9939 278.96C25.0731 278.759 25.2744 278.636 25.477 278.675L318.987 363.593C319.149 363.632 319.272 363.792 319.273 363.953Z" fill="#ECECEC" fill-opacity="0.5"/>
<path d="M359.024 357.199L359.024 357.239C358.985 357.441 358.784 357.603 358.582 357.565L19.1672 314.249C18.9646 314.211 18.8016 314.051 18.8 313.85L18.7996 313.81C18.8385 313.608 19.0394 313.446 19.242 313.484L358.697 356.799C358.899 356.798 359.022 356.998 359.024 357.199Z" fill="#ECECEC" fill-opacity="0.5"/>
<path d="M398.815 350.404C398.817 350.646 398.616 350.808 398.414 350.81L13.0536 349.057C12.8513 349.059 12.6478 348.9 12.6459 348.658C12.6439 348.417 12.8449 348.255 13.0472 348.253L398.407 350.005C398.609 350.004 398.813 350.163 398.815 350.404Z" fill="#ECECEC" fill-opacity="0.5"/>
<path d="M438.565 343.61C438.567 343.811 438.407 344.014 438.205 344.015L6.93994 383.866C6.73769 383.867 6.53416 383.708 6.4921 383.507C6.4096 383.307 6.65069 383.104 6.85262 383.062L438.117 343.211C438.36 343.209 438.564 343.369 438.565 343.61Z" fill="#ECECEC" fill-opacity="0.5"/>
<path d="M478.357 336.815C478.358 337.016 478.198 337.179 478.036 337.22L0.785851 418.674C0.583924 418.716 0.380393 418.557 0.338018 418.316C0.295642 418.075 0.456155 417.913 0.658082 417.871L477.868 336.417C478.07 336.375 478.314 336.534 478.315 336.735C478.356 336.775 478.357 336.815 478.357 336.815Z" fill="#ECECEC" fill-opacity="0.5"/>
</svg>
