<svg width="1177" height="476" viewBox="0 0 1177 476" fill="none" xmlns="http://www.w3.org/2000/svg">
<path d="M588.503 476C541.228 476 480.548 457.058 408.145 419.699C320.475 374.461 218.724 350.546 113.897 350.546H0.0669552V347.752H113.897C166.199 347.752 218.156 353.742 268.318 365.549C318.335 377.322 365.81 394.705 409.422 417.212C481.423 454.365 541.674 473.206 588.503 473.206C635.326 473.206 695.577 454.365 767.584 417.212C811.201 394.705 858.677 377.322 908.688 365.549C958.855 353.737 1010.81 347.752 1063.11 347.752H1176.94V350.546H1063.11C958.281 350.546 856.531 374.456 768.86 419.699C696.457 457.058 635.777 476 588.503 476Z" fill="#ECECEC" fill-opacity="0.1"/>
<path d="M588.503 431.092C542.761 431.092 484.049 413.055 413.982 377.49C329.109 334.404 230.603 311.628 129.12 311.628H18.941V309.114H129.12C179.733 309.114 230.012 314.813 278.557 326.061C326.958 337.27 372.905 353.821 415.113 375.249C484.823 410.636 543.157 428.583 588.497 428.583C633.837 428.583 692.177 410.641 761.881 375.249C804.089 353.821 850.031 337.276 898.437 326.061C946.982 314.819 997.261 309.114 1047.87 309.114H1158.05V311.628H1047.87C946.392 311.628 847.885 334.404 763.013 377.49C692.957 413.055 634.239 431.092 588.503 431.092Z" fill="#ECECEC" fill-opacity="0.1"/>
<path d="M588.503 386.184C544.3 386.184 487.544 369.058 419.818 335.281C337.744 294.346 242.487 272.71 144.348 272.71H37.8207V270.475H144.348C242.827 270.475 338.429 292.195 420.81 333.28C488.224 366.901 544.645 383.949 588.497 383.949C632.355 383.949 688.771 366.901 756.185 333.28C838.565 292.195 934.167 270.475 1032.65 270.475H1139.17V272.71H1032.65C934.507 272.71 839.251 294.346 757.177 335.281C689.462 369.058 632.706 386.184 588.503 386.184Z" fill="#ECECEC" fill-opacity="0.1"/>
<path d="M588.503 341.271C545.833 341.271 491.044 325.055 425.654 293.066C346.373 254.288 254.366 233.787 159.577 233.787H56.7004V231.831H159.577C254.661 231.831 346.969 252.399 426.512 291.306C491.63 323.161 546.134 339.31 588.503 339.31C630.872 339.31 685.376 323.156 750.494 291.306C830.037 252.394 922.339 231.831 1017.43 231.831H1120.3V233.787H1017.43C922.635 233.787 830.627 254.282 751.352 293.066C685.961 325.055 631.173 341.271 588.503 341.271Z" fill="#ECECEC" fill-opacity="0.1"/>
<path d="M588.503 296.363C547.365 296.363 494.539 281.053 431.49 250.857C355.013 214.23 266.25 194.869 174.806 194.869H75.5856V193.193H174.806C266.5 193.193 355.509 212.61 432.209 249.343C495.03 279.427 547.616 294.687 588.503 294.687C629.389 294.687 681.976 279.432 744.797 249.343C821.503 212.61 910.511 193.193 1002.2 193.193H1101.42V194.869H1002.2C910.756 194.869 821.993 214.23 745.516 250.857C682.466 281.053 629.64 296.363 588.503 296.363Z" fill="#ECECEC" fill-opacity="0.1"/>
<path d="M588.503 251.455C548.898 251.455 498.034 237.05 437.321 208.648C363.641 174.178 278.128 155.957 190.034 155.957H94.4596V154.56H190.029C278.329 154.56 364.043 172.826 437.906 207.385C498.436 235.703 549.099 250.064 588.503 250.064C627.901 250.064 678.57 235.703 739.094 207.385C812.957 172.826 898.671 154.56 986.971 154.56H1082.54V155.957H986.971C898.872 155.957 813.364 174.178 739.679 208.648C678.971 237.05 628.107 251.455 588.503 251.455Z" fill="#ECECEC" fill-opacity="0.1"/>
<path d="M588.503 206.547C550.431 206.547 501.524 193.053 443.151 166.433C372.27 134.115 290.007 117.033 205.257 117.033H113.339V115.916H205.257C290.163 115.916 372.582 133.031 443.608 165.417C501.841 191.963 550.587 205.43 588.497 205.43C626.407 205.43 675.159 191.969 733.386 165.417C804.412 133.036 886.832 115.916 971.737 115.916H1063.65V117.033H971.737C886.988 117.033 804.724 134.115 733.843 166.433C675.476 193.047 626.574 206.547 588.503 206.547Z" fill="#ECECEC" fill-opacity="0.1"/>
<path d="M588.503 161.634C551.959 161.634 505.019 149.045 448.976 124.219C380.893 94.0568 301.885 78.1152 220.486 78.1152H132.219V77.2771H220.486C302.002 77.2771 381.128 93.2466 449.316 123.453C505.247 148.235 552.081 160.796 588.503 160.796C624.924 160.796 671.758 148.229 727.69 123.453C795.878 93.2466 875.003 77.2771 956.52 77.2771H1044.79V78.1152H956.52C875.12 78.1152 796.107 94.0568 728.024 124.219C671.987 149.045 625.041 161.634 588.503 161.634Z" fill="#ECECEC" fill-opacity="0.1"/>
<path d="M588.503 116.726C553.491 116.726 508.508 105.042 454.801 82.0042C389.522 53.999 313.758 39.1973 235.709 39.1973H151.093V38.6385H235.709C313.831 38.6385 389.667 53.457 455.019 81.4902C508.653 104.5 553.564 116.167 588.497 116.167C623.431 116.167 668.342 104.5 721.976 81.4902C787.327 53.457 863.164 38.6385 941.286 38.6385H1025.9V39.1973H941.286C863.236 39.1973 787.478 53.999 722.194 82.0042C668.498 105.042 623.514 116.726 588.503 116.726Z" fill="#ECECEC" fill-opacity="0.1"/>
<path d="M588.503 71.818C555.019 71.818 511.998 61.045 460.626 39.7896C398.145 13.9412 325.637 0.279382 250.937 0.279382H169.978V0H250.937C325.67 0 398.218 13.6674 460.732 39.5326C512.07 60.7712 555.058 71.5386 588.503 71.5386C621.948 71.5386 664.936 60.7712 716.274 39.5326C778.788 13.673 851.33 0 926.068 0H1007.03V0.279382H926.068C851.369 0.279382 778.86 13.9412 716.38 39.7896C665.008 61.0394 621.987 71.818 588.503 71.818Z" fill="#ECECEC" fill-opacity="0.1"/>
<path d="M588.503 71.6783L589.896 474.603H587.109L588.503 71.6783Z" fill="#ECECEC" fill-opacity="0.1"/>
<path d="M567.065 70.3596L559.489 472.279L556.986 472.228L567.065 70.3596Z" fill="#ECECEC" fill-opacity="0.1"/>
<path d="M545.626 66.9064L529.099 466.155L526.875 466.054L545.626 66.9064Z" fill="#ECECEC" fill-opacity="0.1"/>
<path d="M524.188 61.8999L498.915 457.203L496.964 457.069L524.188 61.8999Z" fill="#ECECEC" fill-opacity="0.1"/>
<path d="M492.432 52.0209L454.004 439.753L452.337 439.585L492.432 52.0209Z" fill="#ECECEC" fill-opacity="0.1"/>
<path d="M460.676 39.6611L409.472 418.553L408.095 418.363L460.676 39.6611Z" fill="#ECECEC" fill-opacity="0.1"/>
<path d="M410.08 22.0265L338.786 387.861L337.694 387.643L410.08 22.0265Z" fill="#ECECEC" fill-opacity="0.1"/>
<path d="M358.413 9.87336L266.261 366.521L265.447 366.309L358.413 9.87336Z" fill="#ECECEC" fill-opacity="0.1"/>
<path d="M305.453 2.60943L191.511 353.647L190.982 353.474L305.453 2.60943Z" fill="#ECECEC" fill-opacity="0.1"/>
<path d="M250.937 0.139691L114.025 349.2L113.763 349.099L250.937 0.139691Z" fill="#ECECEC" fill-opacity="0.1"/>
<path d="M0 349.121L169.978 0.139691L0.128195 349.183L0 349.121Z" fill="#ECECEC" fill-opacity="0.1"/>
<path d="M588.503 71.6783L589.896 474.603H587.109L588.503 71.6783Z" fill="#ECECEC" fill-opacity="0.1"/>
<path d="M609.941 70.3596L620.019 472.228L617.511 472.279L609.941 70.3596Z" fill="#ECECEC" fill-opacity="0.1"/>
<path d="M631.379 66.9064L650.131 466.054L647.901 466.155L631.379 66.9064Z" fill="#ECECEC" fill-opacity="0.1"/>
<path d="M652.818 61.8999L680.036 457.069L678.091 457.203L652.818 61.8999Z" fill="#ECECEC" fill-opacity="0.1"/>
<path d="M684.573 52.0209L724.663 439.585L723.002 439.753L684.573 52.0209Z" fill="#ECECEC" fill-opacity="0.1"/>
<path d="M716.324 39.6611L768.91 418.363L767.528 418.553L716.324 39.6611Z" fill="#ECECEC" fill-opacity="0.1"/>
<path d="M766.92 22.0265L839.312 387.643L838.22 387.861L766.92 22.0265Z" fill="#ECECEC" fill-opacity="0.1"/>
<path d="M818.593 9.87336L911.553 366.309L910.745 366.521L818.593 9.87336Z" fill="#ECECEC" fill-opacity="0.1"/>
<path d="M871.547 2.60943L986.018 353.474L985.489 353.647L871.547 2.60943Z" fill="#ECECEC" fill-opacity="0.1"/>
<path d="M926.068 0.139691L1063.24 349.099L1062.98 349.2L926.068 0.139691Z" fill="#ECECEC" fill-opacity="0.1"/>
<path d="M1176.88 349.183L1007.03 0.139691L1177 349.121L1176.88 349.183Z" fill="#ECECEC" fill-opacity="0.1"/>
</svg>
