<svg width="30" height="30" viewBox="0 0 30 30" fill="none" xmlns="http://www.w3.org/2000/svg">
<path d="M28.3073 0.0293579L25.8118 27.0595L14.9998 29.9706L4.1877 27.0595L1.69272 0.0293579H28.3073ZM23.2787 5.52551H14.9901H6.55465L6.95807 8.78965H14.9901H15.4413L14.9901 8.97744L7.25163 12.2004L7.50827 15.3911L14.9901 15.4153L19.0001 15.428L18.7434 19.6823L14.99 20.739V20.7357L14.9593 20.7442L11.3344 19.8292L11.1145 17.1884H11.1025H7.74024H7.7284L8.1685 22.2864L14.9902 24.3038V24.3001L15.0025 24.3038L21.7876 22.3232L22.6677 12.2004H14.9902H14.9712L14.9902 12.1922L22.9489 8.78965L23.2787 5.52551Z" fill="white"/>
</svg>
