<svg width="30" height="30" viewBox="0 0 30 30" fill="none" xmlns="http://www.w3.org/2000/svg">
<g clip-path="url(#clip0_7_21)">
<path d="M2.00117 0L4.40833 27.0007L15.2107 30L26.0424 26.9972L28.4519 0.00117042H2L2.00117 0ZM11.9809 6.99212L11.5023 12.1891L22.8196 12.1903L22.7388 13.0797L21.9606 21.7979L21.9115 22.3572L15.1194 24.2401L8.33679 22.3572L7.87338 17.1579H11.1968L11.4332 19.7991L15.1241 20.7938L18.8174 19.7968L19.2012 15.502L7.88391 15.5009L7.96466 14.6115L8.74286 5.89328L8.98744 3.45218H22.1958L22.3491 5.3222L22.8207 10.5332H19.4961L19.1895 7.11383L15.8087 6.91021H15.206V6.90552L11.9821 6.99212H11.9809Z" fill="white"/>
</g>
<defs>
<clipPath id="clip0_7_21">
<rect width="30" height="30" fill="white"/>
</clipPath>
</defs>
</svg>
