<svg width="30" height="30" viewBox="0 0 30 30" fill="none" xmlns="http://www.w3.org/2000/svg">
<g clip-path="url(#clip0_7_40)">
<path d="M26.4375 7.37502L16.0625 1.50002C15.73 1.34392 15.3673 1.263 15 1.263C14.6327 1.263 14.27 1.34392 13.9375 1.50002L3.5625 7.37502C3.24351 7.55914 2.97785 7.82302 2.79158 8.14077C2.60532 8.45852 2.50484 8.81923 2.5 9.18752V20.8125C2.50484 21.1808 2.60532 21.5415 2.79158 21.8593C2.97785 22.177 3.24351 22.4409 3.5625 22.625L6.3125 24.1875C7.03091 24.612 7.8532 24.8284 8.6875 24.8125C10.625 24.8125 11.75 23.625 11.75 21.625V10.1875C11.75 10.1046 11.7171 10.0252 11.6585 9.96655C11.5999 9.90794 11.5204 9.87502 11.4375 9.87502H10.125C10.0421 9.87502 9.96263 9.90794 9.90403 9.96655C9.84542 10.0252 9.8125 10.1046 9.8125 10.1875V21.625C9.8125 22.5625 8.875 23.4375 7.375 22.6875L4.5 21.0625C4.46119 21.0334 4.42969 20.9957 4.40799 20.9523C4.3863 20.9089 4.375 20.861 4.375 20.8125V9.18752C4.3793 9.07203 4.42347 8.96161 4.5 8.87502L14.8125 3.06252H15.1875L25.5 8.87502C25.5765 8.96161 25.6207 9.07203 25.625 9.18752V20.8125C25.625 20.861 25.6137 20.9089 25.592 20.9523C25.5703 20.9957 25.5388 21.0334 25.5 21.0625L15.1875 26.875C15.1305 26.9079 15.0658 26.9253 15 26.9253C14.9342 26.9253 14.8695 26.9079 14.8125 26.875L12.1875 25.375C12.1531 25.3443 12.1086 25.3273 12.0625 25.3273C12.0164 25.3273 11.9719 25.3443 11.9375 25.375L10.375 26.0625C10.1875 26.125 9.9375 26.1875 10.4375 26.5L13.9375 28.4375C14.2532 28.6445 14.6225 28.7548 15 28.7548C15.3775 28.7548 15.7468 28.6445 16.0625 28.4375L26.4375 22.625C26.7565 22.4409 27.0222 22.177 27.2084 21.8593C27.3947 21.5415 27.4952 21.1808 27.5 20.8125V9.18752C27.4952 8.81923 27.3947 8.45852 27.2084 8.14077C27.0222 7.82302 26.7565 7.55914 26.4375 7.37502Z" fill="white"/>
<path d="M18.1875 18.9375C15.4375 18.9375 14.875 18.3125 14.625 17C14.625 16.9337 14.5987 16.8701 14.5518 16.8232C14.5049 16.7763 14.4413 16.75 14.375 16.75H13C12.9337 16.75 12.8701 16.7763 12.8232 16.8232C12.7763 16.8701 12.75 16.9337 12.75 17C12.75 18.6875 13.6875 20.75 18.1875 20.75C21.4375 20.75 23.3125 19.5 23.3125 17.3125C23.3125 15.125 21.8125 14.5 18.625 14.125C15.4375 13.75 15.125 13.5 15.125 12.75C15.125 12 15.375 11.375 17.75 11.375C20.125 11.375 20.6875 11.8125 21 13.1875C21.0146 13.2591 21.0539 13.3234 21.111 13.3691C21.1681 13.4148 21.2394 13.439 21.3125 13.4375H22.625L22.875 13.3125C22.8976 13.2871 22.9148 13.2574 22.9256 13.2252C22.9363 13.1929 22.9404 13.1589 22.9375 13.125C22.75 10.6875 21.0625 9.5625 17.75 9.5625C14.4375 9.5625 13.0625 10.8125 13.0625 12.8125C13.0625 14.8125 14.8125 15.625 17.625 15.9375C20.4375 16.25 21.3125 16.6875 21.3125 17.375C21.3125 18.0625 20.375 18.9375 18.1875 18.9375Z" fill="white"/>
</g>
<defs>
<clipPath id="clip0_7_40">
<rect width="30" height="30" fill="white"/>
</clipPath>
</defs>
</svg>
