<svg width="30" height="30" viewBox="0 0 30 30" fill="none" xmlns="http://www.w3.org/2000/svg">
<g clip-path="url(#clip0_7_35)">
<path d="M13.312 21.5729C13.8622 21.5979 14.4243 21.6159 14.9935 21.6159C15.5687 21.6159 16.1368 21.6039 16.694 21.5729C16.1368 22.2931 15.5867 22.9303 15.0045 23.5375L15.0125 23.5295C14.4333 22.9293 13.8772 22.2911 13.353 21.6269L13.312 21.5729ZM7.61228 20.7726C8.69561 21.0477 10.017 21.2818 11.3654 21.4258L11.4964 21.4368C12.3217 22.5702 13.1559 23.5675 14.0512 24.5058L14.0402 24.4937C12.7288 25.9572 10.9593 26.9855 8.95769 27.3546L8.90267 27.3626C8.89867 27.3626 8.89467 27.3626 8.89067 27.3626C8.64259 27.3626 8.40852 27.3016 8.20346 27.1936L8.21146 27.1976C7.37921 26.7224 7.01811 24.9049 7.29919 22.5692C7.36621 21.994 7.47624 21.3888 7.61128 20.7716L7.61228 20.7726ZM22.3997 20.7596C22.5178 21.2338 22.6288 21.8379 22.7078 22.4521L22.7168 22.5382C23.0039 24.8729 22.6498 26.6884 21.8245 27.1736C21.6405 27.2756 21.4204 27.3356 21.1864 27.3356C21.1633 27.3356 21.1403 27.3346 21.1173 27.3336H21.1203C19.0667 26.9585 17.2982 25.9372 15.9898 24.4917L15.9828 24.4837C16.8621 23.5605 17.6903 22.5652 18.4495 21.5179L18.5076 21.4338C19.984 21.2798 21.3074 21.0417 22.5968 20.7166L22.3997 20.7586V20.7596ZM8.78163 17.0265C9.03171 17.5167 9.29379 18.0048 9.58187 18.4949C9.86929 18.9824 10.163 19.4586 10.4631 19.9234C9.59488 19.7963 8.75663 19.6363 7.95539 19.4412C8.18045 18.654 8.46254 17.8388 8.78063 17.0245L8.78163 17.0265ZM21.2134 17.0015C21.5445 17.8227 21.8255 18.642 22.0586 19.4362C21.2584 19.6323 20.4131 19.7983 19.5389 19.9234C19.839 19.4542 20.139 18.9711 20.4201 18.4759C20.7012 17.9888 20.9643 17.4906 21.2154 17.0005L21.2134 17.0015ZM6.61598 11.6509C7.05211 13.1293 7.52026 14.3657 8.06542 15.5581L7.9904 15.376C7.52426 16.3813 7.06312 17.6107 6.68501 18.8761L6.63299 19.0811C5.92678 18.8641 5.35861 18.651 4.80544 18.4119L4.92048 18.4559C2.75583 17.5347 1.35541 16.3233 1.35541 15.363C1.35541 14.4027 2.75583 13.1854 4.92048 12.2681C5.44563 12.043 6.02181 11.84 6.61598 11.6509ZM23.36 11.6459C23.9652 11.8329 24.5404 12.042 25.0785 12.2681C27.2432 13.1934 28.6436 14.4027 28.6436 15.363C28.6376 16.3233 27.2372 17.5377 25.0725 18.4569C24.5474 18.682 23.9722 18.8841 23.379 19.0731C22.9389 17.5897 22.4707 16.3543 21.9276 15.1599L22.0036 15.348C22.4677 14.3437 22.9299 13.1143 23.307 11.849L23.36 11.6429V11.6459ZM19.5309 10.8026C20.4001 10.9317 21.2374 11.0897 22.0386 11.2868C21.8135 12.077 21.5325 12.8893 21.2134 13.7035C20.9633 13.2164 20.7012 12.7252 20.4131 12.2361C20.132 11.7459 19.8319 11.2688 19.5319 10.8036L19.5309 10.8026ZM10.4561 10.8026C10.156 11.2738 9.85596 11.7559 9.57587 12.2531C9.29479 12.7402 9.03171 13.2304 8.78163 13.7205C8.45053 12.9003 8.16945 12.083 7.93638 11.2868C8.73662 11.0997 9.57987 10.9327 10.4551 10.8046L10.4561 10.8026ZM14.9995 10.4845C15.9248 10.4845 16.8461 10.5266 17.7523 10.6006C18.2598 11.3281 18.7526 12.103 19.2308 12.9253C19.6956 13.7255 20.1197 14.5364 20.5032 15.358C20.118 16.1773 19.6959 16.9955 19.2368 17.7957C18.7616 18.621 18.2705 19.4062 17.7613 20.1334C16.8511 20.2125 15.9288 20.2555 14.9985 20.2555C14.0732 20.2555 13.1519 20.2115 12.2457 20.1394C11.7385 19.4122 11.2434 18.634 10.7672 17.8147C10.3024 17.0145 9.8783 16.2036 9.49485 15.382C9.87396 14.5608 10.3021 13.7405 10.7612 12.9393C11.2364 12.114 11.7275 11.3318 12.2367 10.6046C13.1469 10.5246 14.0692 10.4825 14.9995 10.4825V10.4845ZM14.9805 7.20256C15.5607 7.80274 16.1168 8.43993 16.64 9.10413L16.68 9.15715C16.1298 9.13214 15.5677 9.11513 14.9985 9.11513C14.4233 9.11513 13.8552 9.12714 13.298 9.15715C13.8542 8.43693 14.4043 7.79974 14.9875 7.19256L14.9795 7.20056L14.9805 7.20256ZM8.87766 3.38942C10.9313 3.76553 12.6988 4.78684 14.0082 6.23127L14.0152 6.23927C13.1359 7.16355 12.3077 8.15885 11.5485 9.20816L11.4904 9.29219C10.015 9.44523 8.69161 9.6813 7.40322 10.0064L7.59928 9.96439C7.45924 9.35221 7.35521 8.75903 7.28218 8.18986C6.9951 5.85516 7.3492 4.03961 8.17445 3.55647C8.38051 3.45944 8.62159 3.39942 8.87566 3.39142H8.87866L8.87766 3.38942ZM21.0913 3.36441V3.37241C21.1043 3.37241 21.1193 3.37141 21.1353 3.37141C21.3744 3.37141 21.5995 3.43043 21.7975 3.53446L21.7895 3.53046C22.6218 4.0076 22.9829 5.82415 22.7018 8.16085C22.6348 8.73602 22.5248 9.3422 22.3897 9.96039C21.3044 9.6823 19.983 9.44723 18.6346 9.30419L18.5066 9.29319C17.6803 8.15885 16.8461 7.16155 15.9508 6.22227L15.9628 6.23427C17.2742 4.77383 19.0407 3.74552 21.0383 3.37441L21.0943 3.36541L21.0913 3.36441ZM21.0973 2.002C18.6546 2.37311 16.54 3.55947 14.9955 5.27098L14.9875 5.27998C13.432 3.56947 11.3174 2.39112 8.93468 2.03401L8.87866 2.02701C8.86566 2.02701 8.84966 2.02701 8.83365 2.02701C8.3425 2.02701 7.88136 2.15605 7.48224 2.38211L7.49625 2.37511C5.77773 3.36641 5.39262 6.45534 6.27988 10.3315C2.47474 11.5069 0 13.3854 0 15.365C0 17.3526 2.48775 19.2362 6.30389 20.4025C5.42363 24.2937 5.81674 27.3876 7.53926 28.3779C7.91737 28.595 8.37151 28.722 8.85466 28.722C8.87666 28.722 8.89867 28.722 8.91968 28.721H8.91667C11.3594 28.3499 13.474 27.1625 15.0185 25.45L15.0265 25.441C16.582 27.1525 18.6966 28.3309 21.0793 28.688L21.1353 28.695C21.1503 28.695 21.1694 28.695 21.1874 28.695C21.6755 28.695 22.1346 28.567 22.5318 28.3439L22.5178 28.3509C24.2353 27.3606 24.6214 24.2717 23.7341 20.3945C27.5253 19.2292 30 17.3466 30 15.364C30 13.3764 27.5123 11.4928 23.6961 10.3235C24.5764 6.43633 24.1833 3.3394 22.4607 2.3481C22.0786 2.12904 21.6205 2 21.1323 2C21.1193 2 21.1063 2 21.0933 2H21.0953L21.0973 2.002ZM17.7873 15.365C17.7873 16.9085 16.536 18.1598 14.9925 18.1598C13.449 18.1598 12.1977 16.9085 12.1977 15.365C12.1977 13.8215 13.449 12.5702 14.9925 12.5702C15.7647 12.5702 16.4629 12.8833 16.9691 13.3884C17.4752 13.8946 17.7873 14.5928 17.7873 15.365Z" fill="white"/>
</g>
<defs>
<clipPath id="clip0_7_35">
<rect width="30" height="30" fill="white"/>
</clipPath>
</defs>
</svg>
