<svg width="30" height="30" viewBox="0 0 30 30" fill="none" xmlns="http://www.w3.org/2000/svg">
<g clip-path="url(#clip0_7_37)">
<path d="M15 2.5C17.4723 2.5 19.889 3.23311 21.9446 4.60663C24.0002 5.98015 25.6024 7.93238 26.5485 10.2165C27.4946 12.5005 27.7421 15.0139 27.2598 17.4386C26.7775 19.8634 25.587 22.0907 23.8388 23.8388C22.0907 25.587 19.8634 26.7775 17.4386 27.2598C15.0139 27.7421 12.5005 27.4946 10.2165 26.5485C7.93238 25.6024 5.98015 24.0002 4.60663 21.9446C3.23311 19.889 2.5 17.4723 2.5 15C2.5 11.6848 3.81696 8.50537 6.16116 6.16116C8.50537 3.81696 11.6848 2.5 15 2.5ZM12.5 19.1625C12.688 19.7734 12.688 20.4266 12.5 21.0375C12.5 21.1 12.5 21.1625 12.425 21.25C12.35 21.3375 12.425 21.3375 12.3375 21.4C12.1928 21.7087 11.9986 21.9916 11.7625 22.2375C11.0375 23.0375 10 23.3375 9.5875 23.0875C9.175 22.8375 9.375 21.6875 10.2 20.8C10.846 20.1627 11.5885 19.6312 12.4 19.225L12.5 19.1625ZM22.8375 7.9125C22.275 5.6875 18.5875 4.9625 15.1125 6.2C12.9338 6.91289 10.9165 8.04686 9.175 9.5375C7.2625 11.3375 6.95 12.9 7.075 13.55C7.5 15.85 10.675 17.3625 11.975 18.475C11.6 18.6625 8.8 20.075 8.125 21.525C7.83957 21.9779 7.74508 22.5254 7.8622 23.0477C7.97932 23.5701 8.29852 24.0248 8.75 24.3125C9.55164 24.5059 10.3937 24.4435 11.1581 24.1342C11.9226 23.8248 12.571 23.284 13.0125 22.5875C13.3776 22.0252 13.6061 21.3854 13.6799 20.7191C13.7537 20.0528 13.6707 19.3785 13.4375 18.75C14.064 18.6035 14.7116 18.5697 15.35 18.65C17.55 18.9125 17.975 20.275 17.85 20.85C17.8128 21.0542 17.7321 21.2481 17.6135 21.4184C17.4949 21.5888 17.3411 21.7317 17.1625 21.8375C17.0125 21.925 16.9625 21.9625 16.975 22.0375C16.9875 22.1125 17.0625 22.1375 17.1875 22.1125C17.5285 22.0198 17.8322 21.8231 18.0562 21.5497C18.2802 21.2764 18.4135 20.9401 18.4375 20.5875C18.4375 19.2375 17.1875 17.7375 14.925 17.775C14.2643 17.7596 13.6056 17.8524 12.975 18.05L12.875 17.9375C11.4625 16.4375 8.8625 15.4375 8.975 13.35C8.975 12.6125 9.2625 10.6875 13.975 8.35C17.825 6.425 20.9125 6.95 21.475 8.1375C22.2375 9.8 19.825 12.9125 15.825 13.3625C15.387 13.4454 14.9362 13.4312 14.5043 13.3211C14.0723 13.211 13.6698 13.0075 13.325 12.725C13.1125 12.5125 13.0875 12.475 13.0125 12.5125C12.9375 12.55 13.0125 12.8 13.0125 12.925C13.3304 13.4725 13.8441 13.879 14.45 14.0625C16.0265 14.4027 17.67 14.241 19.15 13.6C21.5 12.65 23.4 10 22.8375 7.85V7.9125Z" fill="white"/>
</g>
<defs>
<clipPath id="clip0_7_37">
<rect width="30" height="30" fill="white"/>
</clipPath>
</defs>
</svg>
