<svg width="25" height="25" viewBox="0 0 25 25" fill="none" xmlns="http://www.w3.org/2000/svg">
<path d="M6.77087 8.33331C7.63382 8.33331 8.33337 7.63376 8.33337 6.77081C8.33337 5.90787 7.63382 5.20831 6.77087 5.20831C5.90793 5.20831 5.20837 5.90787 5.20837 6.77081C5.20837 7.63376 5.90793 8.33331 6.77087 8.33331Z" fill="#ECECEC"/>
<path d="M5.20837 10.4167C5.20837 9.84137 5.67475 9.375 6.25004 9.375H7.29171C7.867 9.375 8.33337 9.84136 8.33337 10.4167V18.75C8.33337 19.3253 7.867 19.7917 7.29171 19.7917H6.25004C5.67475 19.7917 5.20837 19.3253 5.20837 18.75V10.4167Z" fill="#ECECEC"/>
<path d="M11.4583 19.7917H12.5C13.0753 19.7917 13.5416 19.3253 13.5416 18.75V14.0625C13.5416 12.5 16.6666 11.4583 16.6666 13.5417V18.7504C16.6666 19.3257 17.133 19.7917 17.7083 19.7917H18.75C19.3253 19.7917 19.7916 19.3253 19.7916 18.75V12.5C19.7916 10.4167 18.2291 9.375 16.1458 9.375C14.0625 9.375 13.5416 10.9375 13.5416 10.9375V10.4167C13.5416 9.84136 13.0753 9.375 12.5 9.375H11.4583C10.883 9.375 10.4166 9.84137 10.4166 10.4167V18.75C10.4166 19.3253 10.883 19.7917 11.4583 19.7917Z" fill="#ECECEC"/>
<path fill-rule="evenodd" clip-rule="evenodd" d="M20.8333 1.04169C22.5592 1.04169 23.9583 2.4408 23.9583 4.16669V20.8334C23.9583 22.5593 22.5592 23.9584 20.8333 23.9584H4.16663C2.44074 23.9584 1.04163 22.5593 1.04163 20.8334V4.16669C1.04163 2.4408 2.44074 1.04169 4.16663 1.04169H20.8333ZM20.8333 3.12502C21.4086 3.12502 21.875 3.5914 21.875 4.16669V20.8334C21.875 21.4087 21.4086 21.875 20.8333 21.875H4.16663C3.59133 21.875 3.12496 21.4087 3.12496 20.8334V4.16669C3.12496 3.5914 3.59133 3.12502 4.16663 3.12502H20.8333Z" fill="#ECECEC"/>
</svg>
