<svg version="1.1" id="Layer_1" xmlns="http://www.w3.org/2000/svg" xmlns:xlink="http://www.w3.org/1999/xlink" x="0px" y="0px"
	 width="100%" viewBox="0 0 500 500" enable-background="new 0 0 500 500" xml:space="preserve">
<path fill="#0E0E0E" opacity="1.000000" stroke="none" 
	d="
M232.000000,501.000000 
	C154.666687,501.000000 77.833366,501.000000 1.000041,501.000000 
	C1.000027,334.333405 1.000027,167.666779 1.000014,1.000131 
	C167.666565,1.000087 334.333130,1.000087 500.999756,1.000044 
	C500.999847,167.666519 500.999847,334.333038 500.999939,500.999786 
	C411.500000,501.000000 322.000000,501.000000 232.000000,501.000000 
M175.267319,150.504395 
	C175.267319,225.248230 175.267319,299.992065 175.267319,374.788940 
	C232.122849,374.788940 288.369904,374.788940 344.783142,374.788940 
	C344.783142,367.508270 344.783142,360.439545 344.783142,352.867249 
	C296.694885,352.867249 248.820892,352.867249 201.109695,352.867249 
	C201.109695,322.947113 201.109695,293.532257 201.109695,263.728271 
	C242.136078,263.728271 282.873871,263.728271 323.769409,263.728271 
	C323.769409,256.423676 323.769409,249.511963 323.769409,242.031738 
	C282.685669,242.031738 241.828522,242.031738 201.070908,242.031738 
	C201.070908,213.372925 201.070908,185.284271 201.070908,156.805359 
	C247.388794,156.805359 293.457092,156.805359 339.761505,156.805359 
	C339.761505,149.346100 339.761505,142.278351 339.761505,135.204468 
	C284.883606,135.204468 230.208786,135.204468 175.267319,135.204468 
	C175.267319,140.215775 175.267319,144.861160 175.267319,150.504395 
z"/>
<path fill="#FFFFFF" opacity="1.000000" stroke="none" 
	d="
M175.267319,150.005478 
	C175.267319,144.861160 175.267319,140.215775 175.267319,135.204468 
	C230.208786,135.204468 284.883606,135.204468 339.761505,135.204468 
	C339.761505,142.278351 339.761505,149.346100 339.761505,156.805359 
	C293.457092,156.805359 247.388794,156.805359 201.070908,156.805359 
	C201.070908,185.284271 201.070908,213.372925 201.070908,242.031738 
	C241.828522,242.031738 282.685669,242.031738 323.769409,242.031738 
	C323.769409,249.511963 323.769409,256.423676 323.769409,263.728271 
	C282.873871,263.728271 242.136078,263.728271 201.109695,263.728271 
	C201.109695,293.532257 201.109695,322.947113 201.109695,352.867249 
	C248.820892,352.867249 296.694885,352.867249 344.783142,352.867249 
	C344.783142,360.439545 344.783142,367.508270 344.783142,374.788940 
	C288.369904,374.788940 232.122849,374.788940 175.267319,374.788940 
	C175.267319,299.992065 175.267319,225.248230 175.267319,150.005478 
z"/>
</svg>